<?xml version="1.0" encoding="utf-8"?>
<svg xmlns="http://www.w3.org/2000/svg" xmlns:xlink="http://www.w3.org/1999/xlink" width="600" height="400" viewBox="0 0 2400 1600">
<defs>
  <clipPath id="clip990">
    <rect x="0" y="0" width="2400" height="1600"/>
  </clipPath>
</defs>
<path clip-path="url(#clip990)" d="M0 1600 L2400 1600 L2400 0 L0 0  Z" fill="#ffffff" fill-rule="evenodd" fill-opacity="1"/>
<defs>
  <clipPath id="clip991">
    <rect x="480" y="0" width="1681" height="1600"/>
  </clipPath>
</defs>
<path clip-path="url(#clip990)" d="M202.227 1423.18 L2352.76 1423.18 L2352.76 123.472 L202.227 123.472  Z" fill="#ffffff" fill-rule="evenodd" fill-opacity="1"/>
<defs>
  <clipPath id="clip992">
    <rect x="202" y="123" width="2152" height="1301"/>
  </clipPath>
</defs>
<polyline clip-path="url(#clip992)" style="stroke:#000000; stroke-linecap:round; stroke-linejoin:round; stroke-width:2; stroke-opacity:0.1; fill:none" points="413.373,1423.18 413.373,123.472 "/>
<polyline clip-path="url(#clip992)" style="stroke:#000000; stroke-linecap:round; stroke-linejoin:round; stroke-width:2; stroke-opacity:0.1; fill:none" points="789.077,1423.18 789.077,123.472 "/>
<polyline clip-path="url(#clip992)" style="stroke:#000000; stroke-linecap:round; stroke-linejoin:round; stroke-width:2; stroke-opacity:0.1; fill:none" points="1164.78,1423.18 1164.78,123.472 "/>
<polyline clip-path="url(#clip992)" style="stroke:#000000; stroke-linecap:round; stroke-linejoin:round; stroke-width:2; stroke-opacity:0.1; fill:none" points="1540.48,1423.18 1540.48,123.472 "/>
<polyline clip-path="url(#clip992)" style="stroke:#000000; stroke-linecap:round; stroke-linejoin:round; stroke-width:2; stroke-opacity:0.1; fill:none" points="1916.19,1423.18 1916.19,123.472 "/>
<polyline clip-path="url(#clip992)" style="stroke:#000000; stroke-linecap:round; stroke-linejoin:round; stroke-width:2; stroke-opacity:0.1; fill:none" points="2291.89,1423.18 2291.89,123.472 "/>
<polyline clip-path="url(#clip992)" style="stroke:#000000; stroke-linecap:round; stroke-linejoin:round; stroke-width:2; stroke-opacity:0.1; fill:none" points="202.227,1405.73 2352.76,1405.73 "/>
<polyline clip-path="url(#clip992)" style="stroke:#000000; stroke-linecap:round; stroke-linejoin:round; stroke-width:2; stroke-opacity:0.1; fill:none" points="202.227,1070.46 2352.76,1070.46 "/>
<polyline clip-path="url(#clip992)" style="stroke:#000000; stroke-linecap:round; stroke-linejoin:round; stroke-width:2; stroke-opacity:0.1; fill:none" points="202.227,735.183 2352.76,735.183 "/>
<polyline clip-path="url(#clip992)" style="stroke:#000000; stroke-linecap:round; stroke-linejoin:round; stroke-width:2; stroke-opacity:0.1; fill:none" points="202.227,399.908 2352.76,399.908 "/>
<polyline clip-path="url(#clip990)" style="stroke:#000000; stroke-linecap:round; stroke-linejoin:round; stroke-width:4; stroke-opacity:1; fill:none" points="202.227,1423.18 2352.76,1423.18 "/>
<polyline clip-path="url(#clip990)" style="stroke:#000000; stroke-linecap:round; stroke-linejoin:round; stroke-width:4; stroke-opacity:1; fill:none" points="413.373,1423.18 413.373,1404.28 "/>
<polyline clip-path="url(#clip990)" style="stroke:#000000; stroke-linecap:round; stroke-linejoin:round; stroke-width:4; stroke-opacity:1; fill:none" points="789.077,1423.18 789.077,1404.28 "/>
<polyline clip-path="url(#clip990)" style="stroke:#000000; stroke-linecap:round; stroke-linejoin:round; stroke-width:4; stroke-opacity:1; fill:none" points="1164.78,1423.18 1164.78,1404.28 "/>
<polyline clip-path="url(#clip990)" style="stroke:#000000; stroke-linecap:round; stroke-linejoin:round; stroke-width:4; stroke-opacity:1; fill:none" points="1540.48,1423.18 1540.48,1404.28 "/>
<polyline clip-path="url(#clip990)" style="stroke:#000000; stroke-linecap:round; stroke-linejoin:round; stroke-width:4; stroke-opacity:1; fill:none" points="1916.19,1423.18 1916.19,1404.28 "/>
<polyline clip-path="url(#clip990)" style="stroke:#000000; stroke-linecap:round; stroke-linejoin:round; stroke-width:4; stroke-opacity:1; fill:none" points="2291.89,1423.18 2291.89,1404.28 "/>
<path clip-path="url(#clip990)" d="M372.98 1481.64 L380.619 1481.64 L380.619 1455.28 L372.308 1456.95 L372.308 1452.69 L380.572 1451.02 L385.248 1451.02 L385.248 1481.64 L392.887 1481.64 L392.887 1485.58 L372.98 1485.58 L372.98 1481.64 Z" fill="#000000" fill-rule="nonzero" fill-opacity="1" /><path clip-path="url(#clip990)" d="M402.378 1451.02 L420.734 1451.02 L420.734 1454.96 L406.66 1454.96 L406.66 1463.43 Q407.679 1463.08 408.697 1462.92 Q409.716 1462.73 410.734 1462.73 Q416.521 1462.73 419.901 1465.9 Q423.28 1469.08 423.28 1474.49 Q423.28 1480.07 419.808 1483.17 Q416.336 1486.25 410.017 1486.25 Q407.841 1486.25 405.572 1485.88 Q403.327 1485.51 400.919 1484.77 L400.919 1480.07 Q403.003 1481.2 405.225 1481.76 Q407.447 1482.32 409.924 1482.32 Q413.929 1482.32 416.266 1480.21 Q418.604 1478.1 418.604 1474.49 Q418.604 1470.88 416.266 1468.77 Q413.929 1466.67 409.924 1466.67 Q408.049 1466.67 406.174 1467.08 Q404.322 1467.5 402.378 1468.38 L402.378 1451.02 Z" fill="#000000" fill-rule="nonzero" fill-opacity="1" /><path clip-path="url(#clip990)" d="M442.493 1454.1 Q438.882 1454.1 437.053 1457.66 Q435.248 1461.2 435.248 1468.33 Q435.248 1475.44 437.053 1479.01 Q438.882 1482.55 442.493 1482.55 Q446.127 1482.55 447.933 1479.01 Q449.762 1475.44 449.762 1468.33 Q449.762 1461.2 447.933 1457.66 Q446.127 1454.1 442.493 1454.1 M442.493 1450.39 Q448.303 1450.39 451.359 1455 Q454.438 1459.58 454.438 1468.33 Q454.438 1477.06 451.359 1481.67 Q448.303 1486.25 442.493 1486.25 Q436.683 1486.25 433.604 1481.67 Q430.549 1477.06 430.549 1468.33 Q430.549 1459.58 433.604 1455 Q436.683 1450.39 442.493 1450.39 Z" fill="#000000" fill-rule="nonzero" fill-opacity="1" /><path clip-path="url(#clip990)" d="M752.769 1481.64 L769.088 1481.64 L769.088 1485.58 L747.144 1485.58 L747.144 1481.64 Q749.806 1478.89 754.389 1474.26 Q758.996 1469.61 760.176 1468.27 Q762.422 1465.74 763.301 1464.01 Q764.204 1462.25 764.204 1460.56 Q764.204 1457.8 762.26 1456.07 Q760.339 1454.33 757.237 1454.33 Q755.038 1454.33 752.584 1455.09 Q750.153 1455.86 747.376 1457.41 L747.376 1452.69 Q750.2 1451.55 752.653 1450.97 Q755.107 1450.39 757.144 1450.39 Q762.514 1450.39 765.709 1453.08 Q768.903 1455.77 768.903 1460.26 Q768.903 1462.39 768.093 1464.31 Q767.306 1466.2 765.2 1468.8 Q764.621 1469.47 761.519 1472.69 Q758.417 1475.88 752.769 1481.64 Z" fill="#000000" fill-rule="nonzero" fill-opacity="1" /><path clip-path="url(#clip990)" d="M788.903 1454.1 Q785.292 1454.1 783.463 1457.66 Q781.658 1461.2 781.658 1468.33 Q781.658 1475.44 783.463 1479.01 Q785.292 1482.55 788.903 1482.55 Q792.537 1482.55 794.343 1479.01 Q796.172 1475.44 796.172 1468.33 Q796.172 1461.2 794.343 1457.66 Q792.537 1454.1 788.903 1454.1 M788.903 1450.39 Q794.713 1450.39 797.769 1455 Q800.848 1459.58 800.848 1468.33 Q800.848 1477.06 797.769 1481.67 Q794.713 1486.25 788.903 1486.25 Q783.093 1486.25 780.014 1481.67 Q776.959 1477.06 776.959 1468.33 Q776.959 1459.58 780.014 1455 Q783.093 1450.39 788.903 1450.39 Z" fill="#000000" fill-rule="nonzero" fill-opacity="1" /><path clip-path="url(#clip990)" d="M819.065 1454.1 Q815.454 1454.1 813.625 1457.66 Q811.82 1461.2 811.82 1468.33 Q811.82 1475.44 813.625 1479.01 Q815.454 1482.55 819.065 1482.55 Q822.699 1482.55 824.505 1479.01 Q826.334 1475.44 826.334 1468.33 Q826.334 1461.2 824.505 1457.66 Q822.699 1454.1 819.065 1454.1 M819.065 1450.39 Q824.875 1450.39 827.931 1455 Q831.009 1459.58 831.009 1468.33 Q831.009 1477.06 827.931 1481.67 Q824.875 1486.25 819.065 1486.25 Q813.255 1486.25 810.176 1481.67 Q807.121 1477.06 807.121 1468.33 Q807.121 1459.58 810.176 1455 Q813.255 1450.39 819.065 1450.39 Z" fill="#000000" fill-rule="nonzero" fill-opacity="1" /><path clip-path="url(#clip990)" d="M1128.47 1481.64 L1144.79 1481.64 L1144.79 1485.58 L1122.85 1485.58 L1122.85 1481.64 Q1125.51 1478.89 1130.09 1474.26 Q1134.7 1469.61 1135.88 1468.27 Q1138.13 1465.74 1139.01 1464.01 Q1139.91 1462.25 1139.91 1460.56 Q1139.91 1457.8 1137.96 1456.07 Q1136.04 1454.33 1132.94 1454.33 Q1130.74 1454.33 1128.29 1455.09 Q1125.86 1455.86 1123.08 1457.41 L1123.08 1452.69 Q1125.9 1451.55 1128.36 1450.97 Q1130.81 1450.39 1132.85 1450.39 Q1138.22 1450.39 1141.41 1453.08 Q1144.61 1455.77 1144.61 1460.26 Q1144.61 1462.39 1143.8 1464.31 Q1143.01 1466.2 1140.9 1468.8 Q1140.32 1469.47 1137.22 1472.69 Q1134.12 1475.88 1128.47 1481.64 Z" fill="#000000" fill-rule="nonzero" fill-opacity="1" /><path clip-path="url(#clip990)" d="M1154.65 1451.02 L1173.01 1451.02 L1173.01 1454.96 L1158.94 1454.96 L1158.94 1463.43 Q1159.95 1463.08 1160.97 1462.92 Q1161.99 1462.73 1163.01 1462.73 Q1168.8 1462.73 1172.18 1465.9 Q1175.56 1469.08 1175.56 1474.49 Q1175.56 1480.07 1172.08 1483.17 Q1168.61 1486.25 1162.29 1486.25 Q1160.12 1486.25 1157.85 1485.88 Q1155.6 1485.51 1153.19 1484.77 L1153.19 1480.07 Q1155.28 1481.2 1157.5 1481.76 Q1159.72 1482.32 1162.2 1482.32 Q1166.2 1482.32 1168.54 1480.21 Q1170.88 1478.1 1170.88 1474.49 Q1170.88 1470.88 1168.54 1468.77 Q1166.2 1466.67 1162.2 1466.67 Q1160.32 1466.67 1158.45 1467.08 Q1156.6 1467.5 1154.65 1468.38 L1154.65 1451.02 Z" fill="#000000" fill-rule="nonzero" fill-opacity="1" /><path clip-path="url(#clip990)" d="M1194.77 1454.1 Q1191.16 1454.1 1189.33 1457.66 Q1187.52 1461.2 1187.52 1468.33 Q1187.52 1475.44 1189.33 1479.01 Q1191.16 1482.55 1194.77 1482.55 Q1198.4 1482.55 1200.21 1479.01 Q1202.04 1475.44 1202.04 1468.33 Q1202.04 1461.2 1200.21 1457.66 Q1198.4 1454.1 1194.77 1454.1 M1194.77 1450.39 Q1200.58 1450.39 1203.63 1455 Q1206.71 1459.58 1206.71 1468.33 Q1206.71 1477.06 1203.63 1481.67 Q1200.58 1486.25 1194.77 1486.25 Q1188.96 1486.25 1185.88 1481.67 Q1182.82 1477.06 1182.82 1468.33 Q1182.82 1459.58 1185.88 1455 Q1188.96 1450.39 1194.77 1450.39 Z" fill="#000000" fill-rule="nonzero" fill-opacity="1" /><path clip-path="url(#clip990)" d="M1514.25 1466.95 Q1517.6 1467.66 1519.48 1469.93 Q1521.38 1472.2 1521.38 1475.53 Q1521.38 1480.65 1517.86 1483.45 Q1514.34 1486.25 1507.86 1486.25 Q1505.68 1486.25 1503.37 1485.81 Q1501.07 1485.39 1498.62 1484.54 L1498.62 1480.02 Q1500.57 1481.16 1502.88 1481.74 Q1505.2 1482.32 1507.72 1482.32 Q1512.12 1482.32 1514.41 1480.58 Q1516.72 1478.84 1516.72 1475.53 Q1516.72 1472.48 1514.57 1470.77 Q1512.44 1469.03 1508.62 1469.03 L1504.59 1469.03 L1504.59 1465.19 L1508.81 1465.19 Q1512.26 1465.19 1514.08 1463.82 Q1515.91 1462.43 1515.91 1459.84 Q1515.91 1457.18 1514.01 1455.77 Q1512.14 1454.33 1508.62 1454.33 Q1506.7 1454.33 1504.5 1454.75 Q1502.3 1455.16 1499.66 1456.04 L1499.66 1451.88 Q1502.32 1451.14 1504.64 1450.77 Q1506.98 1450.39 1509.04 1450.39 Q1514.36 1450.39 1517.46 1452.83 Q1520.57 1455.23 1520.57 1459.35 Q1520.57 1462.22 1518.92 1464.21 Q1517.28 1466.18 1514.25 1466.95 Z" fill="#000000" fill-rule="nonzero" fill-opacity="1" /><path clip-path="url(#clip990)" d="M1540.24 1454.1 Q1536.63 1454.1 1534.8 1457.66 Q1533 1461.2 1533 1468.33 Q1533 1475.44 1534.8 1479.01 Q1536.63 1482.55 1540.24 1482.55 Q1543.88 1482.55 1545.68 1479.01 Q1547.51 1475.44 1547.51 1468.33 Q1547.51 1461.2 1545.68 1457.66 Q1543.88 1454.1 1540.24 1454.1 M1540.24 1450.39 Q1546.05 1450.39 1549.11 1455 Q1552.19 1459.58 1552.19 1468.33 Q1552.19 1477.06 1549.11 1481.67 Q1546.05 1486.25 1540.24 1486.25 Q1534.43 1486.25 1531.35 1481.67 Q1528.3 1477.06 1528.3 1468.33 Q1528.3 1459.58 1531.35 1455 Q1534.43 1450.39 1540.24 1450.39 Z" fill="#000000" fill-rule="nonzero" fill-opacity="1" /><path clip-path="url(#clip990)" d="M1570.4 1454.1 Q1566.79 1454.1 1564.96 1457.66 Q1563.16 1461.2 1563.16 1468.33 Q1563.16 1475.44 1564.96 1479.01 Q1566.79 1482.55 1570.4 1482.55 Q1574.04 1482.55 1575.84 1479.01 Q1577.67 1475.44 1577.67 1468.33 Q1577.67 1461.2 1575.84 1457.66 Q1574.04 1454.1 1570.4 1454.1 M1570.4 1450.39 Q1576.21 1450.39 1579.27 1455 Q1582.35 1459.58 1582.35 1468.33 Q1582.35 1477.06 1579.27 1481.67 Q1576.21 1486.25 1570.4 1486.25 Q1564.59 1486.25 1561.51 1481.67 Q1558.46 1477.06 1558.46 1468.33 Q1558.46 1459.58 1561.51 1455 Q1564.59 1450.39 1570.4 1450.39 Z" fill="#000000" fill-rule="nonzero" fill-opacity="1" /><path clip-path="url(#clip990)" d="M1889.95 1466.95 Q1893.31 1467.66 1895.18 1469.93 Q1897.08 1472.2 1897.08 1475.53 Q1897.08 1480.65 1893.56 1483.45 Q1890.04 1486.25 1883.56 1486.25 Q1881.39 1486.25 1879.07 1485.81 Q1876.78 1485.39 1874.32 1484.54 L1874.32 1480.02 Q1876.27 1481.16 1878.58 1481.74 Q1880.9 1482.32 1883.42 1482.32 Q1887.82 1482.32 1890.11 1480.58 Q1892.43 1478.84 1892.43 1475.53 Q1892.43 1472.48 1890.27 1470.77 Q1888.14 1469.03 1884.32 1469.03 L1880.3 1469.03 L1880.3 1465.19 L1884.51 1465.19 Q1887.96 1465.19 1889.79 1463.82 Q1891.62 1462.43 1891.62 1459.84 Q1891.62 1457.18 1889.72 1455.77 Q1887.84 1454.33 1884.32 1454.33 Q1882.4 1454.33 1880.2 1454.75 Q1878.01 1455.16 1875.37 1456.04 L1875.37 1451.88 Q1878.03 1451.14 1880.34 1450.77 Q1882.68 1450.39 1884.74 1450.39 Q1890.07 1450.39 1893.17 1452.83 Q1896.27 1455.23 1896.27 1459.35 Q1896.27 1462.22 1894.63 1464.21 Q1892.98 1466.18 1889.95 1466.95 Z" fill="#000000" fill-rule="nonzero" fill-opacity="1" /><path clip-path="url(#clip990)" d="M1905.99 1451.02 L1924.35 1451.02 L1924.35 1454.96 L1910.27 1454.96 L1910.27 1463.43 Q1911.29 1463.08 1912.31 1462.92 Q1913.33 1462.73 1914.35 1462.73 Q1920.13 1462.73 1923.51 1465.9 Q1926.89 1469.08 1926.89 1474.49 Q1926.89 1480.07 1923.42 1483.17 Q1919.95 1486.25 1913.63 1486.25 Q1911.45 1486.25 1909.19 1485.88 Q1906.94 1485.51 1904.53 1484.77 L1904.53 1480.07 Q1906.62 1481.2 1908.84 1481.76 Q1911.06 1482.32 1913.54 1482.32 Q1917.54 1482.32 1919.88 1480.21 Q1922.22 1478.1 1922.22 1474.49 Q1922.22 1470.88 1919.88 1468.77 Q1917.54 1466.67 1913.54 1466.67 Q1911.66 1466.67 1909.79 1467.08 Q1907.94 1467.5 1905.99 1468.38 L1905.99 1451.02 Z" fill="#000000" fill-rule="nonzero" fill-opacity="1" /><path clip-path="url(#clip990)" d="M1946.11 1454.1 Q1942.5 1454.1 1940.67 1457.66 Q1938.86 1461.2 1938.86 1468.33 Q1938.86 1475.44 1940.67 1479.01 Q1942.5 1482.55 1946.11 1482.55 Q1949.74 1482.55 1951.55 1479.01 Q1953.38 1475.44 1953.38 1468.33 Q1953.38 1461.2 1951.55 1457.66 Q1949.74 1454.1 1946.11 1454.1 M1946.11 1450.39 Q1951.92 1450.39 1954.97 1455 Q1958.05 1459.58 1958.05 1468.33 Q1958.05 1477.06 1954.97 1481.67 Q1951.92 1486.25 1946.11 1486.25 Q1940.3 1486.25 1937.22 1481.67 Q1934.16 1477.06 1934.16 1468.33 Q1934.16 1459.58 1937.22 1455 Q1940.3 1450.39 1946.11 1450.39 Z" fill="#000000" fill-rule="nonzero" fill-opacity="1" /><path clip-path="url(#clip990)" d="M2264.98 1455.09 L2253.18 1473.54 L2264.98 1473.54 L2264.98 1455.09 M2263.76 1451.02 L2269.64 1451.02 L2269.64 1473.54 L2274.57 1473.54 L2274.57 1477.43 L2269.64 1477.43 L2269.64 1485.58 L2264.98 1485.58 L2264.98 1477.43 L2249.38 1477.43 L2249.38 1472.92 L2263.76 1451.02 Z" fill="#000000" fill-rule="nonzero" fill-opacity="1" /><path clip-path="url(#clip990)" d="M2292.3 1454.1 Q2288.69 1454.1 2286.86 1457.66 Q2285.05 1461.2 2285.05 1468.33 Q2285.05 1475.44 2286.86 1479.01 Q2288.69 1482.55 2292.3 1482.55 Q2295.93 1482.55 2297.74 1479.01 Q2299.57 1475.44 2299.57 1468.33 Q2299.57 1461.2 2297.74 1457.66 Q2295.93 1454.1 2292.3 1454.1 M2292.3 1450.39 Q2298.11 1450.39 2301.16 1455 Q2304.24 1459.58 2304.24 1468.33 Q2304.24 1477.06 2301.16 1481.67 Q2298.11 1486.25 2292.3 1486.25 Q2286.49 1486.25 2283.41 1481.67 Q2280.35 1477.06 2280.35 1468.33 Q2280.35 1459.58 2283.41 1455 Q2286.49 1450.39 2292.3 1450.39 Z" fill="#000000" fill-rule="nonzero" fill-opacity="1" /><path clip-path="url(#clip990)" d="M2322.46 1454.1 Q2318.85 1454.1 2317.02 1457.66 Q2315.21 1461.2 2315.21 1468.33 Q2315.21 1475.44 2317.02 1479.01 Q2318.85 1482.55 2322.46 1482.55 Q2326.09 1482.55 2327.9 1479.01 Q2329.73 1475.44 2329.73 1468.33 Q2329.73 1461.2 2327.9 1457.66 Q2326.09 1454.1 2322.46 1454.1 M2322.46 1450.39 Q2328.27 1450.39 2331.32 1455 Q2334.4 1459.58 2334.4 1468.33 Q2334.4 1477.06 2331.32 1481.67 Q2328.27 1486.25 2322.46 1486.25 Q2316.65 1486.25 2313.57 1481.67 Q2310.51 1477.06 2310.51 1468.33 Q2310.51 1459.58 2313.57 1455 Q2316.65 1450.39 2322.46 1450.39 Z" fill="#000000" fill-rule="nonzero" fill-opacity="1" /><path clip-path="url(#clip990)" d="M1154.03 1520.52 L1194.23 1520.52 L1194.23 1525.93 L1177.36 1525.93 L1177.36 1568.04 L1170.9 1568.04 L1170.9 1525.93 L1154.03 1525.93 L1154.03 1520.52 Z" fill="#000000" fill-rule="nonzero" fill-opacity="1" /><path clip-path="url(#clip990)" d="M1234.97 1518.58 Q1230.7 1525.9 1228.63 1533.06 Q1226.57 1540.23 1226.57 1547.58 Q1226.57 1554.93 1228.63 1562.16 Q1230.74 1569.35 1234.97 1576.64 L1229.88 1576.64 Q1225.1 1569.16 1222.71 1561.93 Q1220.36 1554.71 1220.36 1547.58 Q1220.36 1540.48 1222.71 1533.29 Q1225.07 1526.09 1229.88 1518.58 L1234.97 1518.58 Z" fill="#000000" fill-rule="nonzero" fill-opacity="1" /><path clip-path="url(#clip990)" d="M1246.59 1520.52 L1256.17 1520.52 L1268.29 1552.86 L1280.48 1520.52 L1290.06 1520.52 L1290.06 1568.04 L1283.79 1568.04 L1283.79 1526.32 L1271.54 1558.91 L1265.08 1558.91 L1252.82 1526.32 L1252.82 1568.04 L1246.59 1568.04 L1246.59 1520.52 Z" fill="#000000" fill-rule="nonzero" fill-opacity="1" /><path clip-path="url(#clip990)" d="M1333.06 1548.76 L1333.06 1551.62 L1306.14 1551.62 Q1306.52 1557.67 1309.77 1560.85 Q1313.04 1564 1318.87 1564 Q1322.24 1564 1325.39 1563.17 Q1328.58 1562.35 1331.7 1560.69 L1331.7 1566.23 Q1328.54 1567.57 1325.23 1568.27 Q1321.92 1568.97 1318.52 1568.97 Q1309.99 1568.97 1304.99 1564 Q1300.03 1559.04 1300.03 1550.57 Q1300.03 1541.82 1304.74 1536.69 Q1309.48 1531.54 1317.5 1531.54 Q1324.69 1531.54 1328.86 1536.18 Q1333.06 1540.8 1333.06 1548.76 M1327.21 1547.04 Q1327.14 1542.23 1324.5 1539.37 Q1321.89 1536.5 1317.56 1536.5 Q1312.66 1536.5 1309.7 1539.27 Q1306.77 1542.04 1306.33 1547.07 L1327.21 1547.04 Z" fill="#000000" fill-rule="nonzero" fill-opacity="1" /><path clip-path="url(#clip990)" d="M1355.19 1568.04 L1337.04 1520.52 L1343.76 1520.52 L1358.81 1560.53 L1373.9 1520.52 L1380.58 1520.52 L1362.47 1568.04 L1355.19 1568.04 Z" fill="#000000" fill-rule="nonzero" fill-opacity="1" /><path clip-path="url(#clip990)" d="M1386.35 1518.58 L1391.44 1518.58 Q1396.21 1526.09 1398.57 1533.29 Q1400.95 1540.48 1400.95 1547.58 Q1400.95 1554.71 1398.57 1561.93 Q1396.21 1569.16 1391.44 1576.64 L1386.35 1576.64 Q1390.58 1569.35 1392.65 1562.16 Q1394.75 1554.93 1394.75 1547.58 Q1394.75 1540.23 1392.65 1533.06 Q1390.58 1525.9 1386.35 1518.58 Z" fill="#000000" fill-rule="nonzero" fill-opacity="1" /><polyline clip-path="url(#clip990)" style="stroke:#000000; stroke-linecap:round; stroke-linejoin:round; stroke-width:4; stroke-opacity:1; fill:none" points="202.227,1423.18 202.227,123.472 "/>
<polyline clip-path="url(#clip990)" style="stroke:#000000; stroke-linecap:round; stroke-linejoin:round; stroke-width:4; stroke-opacity:1; fill:none" points="202.227,1405.73 221.125,1405.73 "/>
<polyline clip-path="url(#clip990)" style="stroke:#000000; stroke-linecap:round; stroke-linejoin:round; stroke-width:4; stroke-opacity:1; fill:none" points="202.227,1070.46 221.125,1070.46 "/>
<polyline clip-path="url(#clip990)" style="stroke:#000000; stroke-linecap:round; stroke-linejoin:round; stroke-width:4; stroke-opacity:1; fill:none" points="202.227,735.183 221.125,735.183 "/>
<polyline clip-path="url(#clip990)" style="stroke:#000000; stroke-linecap:round; stroke-linejoin:round; stroke-width:4; stroke-opacity:1; fill:none" points="202.227,399.908 221.125,399.908 "/>
<path clip-path="url(#clip990)" d="M154.283 1391.53 Q150.672 1391.53 148.843 1395.1 Q147.038 1398.64 147.038 1405.77 Q147.038 1412.87 148.843 1416.44 Q150.672 1419.98 154.283 1419.98 Q157.917 1419.98 159.723 1416.44 Q161.552 1412.87 161.552 1405.77 Q161.552 1398.64 159.723 1395.1 Q157.917 1391.53 154.283 1391.53 M154.283 1387.83 Q160.093 1387.83 163.149 1392.43 Q166.227 1397.02 166.227 1405.77 Q166.227 1414.49 163.149 1419.1 Q160.093 1423.68 154.283 1423.68 Q148.473 1423.68 145.394 1419.1 Q142.339 1414.49 142.339 1405.77 Q142.339 1397.02 145.394 1392.43 Q148.473 1387.83 154.283 1387.83 Z" fill="#000000" fill-rule="nonzero" fill-opacity="1" /><path clip-path="url(#clip990)" d="M145.325 1053.18 L163.681 1053.18 L163.681 1057.11 L149.607 1057.11 L149.607 1065.59 Q150.626 1065.24 151.644 1065.08 Q152.663 1064.89 153.681 1064.89 Q159.468 1064.89 162.848 1068.06 Q166.227 1071.23 166.227 1076.65 Q166.227 1082.23 162.755 1085.33 Q159.283 1088.41 152.964 1088.41 Q150.788 1088.41 148.519 1088.04 Q146.274 1087.67 143.866 1086.93 L143.866 1082.23 Q145.95 1083.36 148.172 1083.92 Q150.394 1084.47 152.871 1084.47 Q156.876 1084.47 159.214 1082.37 Q161.552 1080.26 161.552 1076.65 Q161.552 1073.04 159.214 1070.93 Q156.876 1068.83 152.871 1068.83 Q150.996 1068.83 149.121 1069.24 Q147.269 1069.66 145.325 1070.54 L145.325 1053.18 Z" fill="#000000" fill-rule="nonzero" fill-opacity="1" /><path clip-path="url(#clip990)" d="M114.931 748.528 L122.57 748.528 L122.57 722.163 L114.26 723.829 L114.26 719.57 L122.524 717.903 L127.2 717.903 L127.2 748.528 L134.839 748.528 L134.839 752.463 L114.931 752.463 L114.931 748.528 Z" fill="#000000" fill-rule="nonzero" fill-opacity="1" /><path clip-path="url(#clip990)" d="M154.283 720.982 Q150.672 720.982 148.843 724.547 Q147.038 728.088 147.038 735.218 Q147.038 742.324 148.843 745.889 Q150.672 749.431 154.283 749.431 Q157.917 749.431 159.723 745.889 Q161.552 742.324 161.552 735.218 Q161.552 728.088 159.723 724.547 Q157.917 720.982 154.283 720.982 M154.283 717.278 Q160.093 717.278 163.149 721.885 Q166.227 726.468 166.227 735.218 Q166.227 743.945 163.149 748.551 Q160.093 753.135 154.283 753.135 Q148.473 753.135 145.394 748.551 Q142.339 743.945 142.339 735.218 Q142.339 726.468 145.394 721.885 Q148.473 717.278 154.283 717.278 Z" fill="#000000" fill-rule="nonzero" fill-opacity="1" /><path clip-path="url(#clip990)" d="M115.927 413.253 L123.566 413.253 L123.566 386.888 L115.256 388.554 L115.256 384.295 L123.519 382.628 L128.195 382.628 L128.195 413.253 L135.834 413.253 L135.834 417.188 L115.927 417.188 L115.927 413.253 Z" fill="#000000" fill-rule="nonzero" fill-opacity="1" /><path clip-path="url(#clip990)" d="M145.325 382.628 L163.681 382.628 L163.681 386.564 L149.607 386.564 L149.607 395.036 Q150.626 394.689 151.644 394.526 Q152.663 394.341 153.681 394.341 Q159.468 394.341 162.848 397.513 Q166.227 400.684 166.227 406.1 Q166.227 411.679 162.755 414.781 Q159.283 417.86 152.964 417.86 Q150.788 417.86 148.519 417.489 Q146.274 417.119 143.866 416.378 L143.866 411.679 Q145.95 412.813 148.172 413.369 Q150.394 413.925 152.871 413.925 Q156.876 413.925 159.214 411.818 Q161.552 409.712 161.552 406.1 Q161.552 402.489 159.214 400.383 Q156.876 398.276 152.871 398.276 Q150.996 398.276 149.121 398.693 Q147.269 399.11 145.325 399.989 L145.325 382.628 Z" fill="#000000" fill-rule="nonzero" fill-opacity="1" /><path clip-path="url(#clip990)" d="M29.4065 839.529 L34.9447 839.529 Q33.6716 842.012 33.035 844.686 Q32.3984 847.359 32.3984 850.224 Q32.3984 854.584 33.7352 856.78 Q35.072 858.945 37.7456 858.945 Q39.7826 858.945 40.9603 857.385 Q42.1061 855.826 43.1565 851.115 L43.6021 849.11 Q44.9389 842.871 47.3897 840.261 Q49.8086 837.62 54.1691 837.62 Q59.1344 837.62 62.0308 841.566 Q64.9272 845.481 64.9272 852.356 Q64.9272 855.221 64.3543 858.34 Q63.8132 861.427 62.6992 864.865 L56.6518 864.865 Q58.3387 861.618 59.198 858.467 Q60.0256 855.316 60.0256 852.229 Q60.0256 848.091 58.6251 845.863 Q57.1929 843.635 54.6147 843.635 Q52.2276 843.635 50.9545 845.258 Q49.6813 846.85 48.5037 852.293 L48.0262 854.33 Q46.8804 859.772 44.5251 862.191 Q42.138 864.61 38.0002 864.61 Q32.9713 864.61 30.2341 861.045 Q27.4968 857.481 27.4968 850.924 Q27.4968 847.677 27.9743 844.813 Q28.4517 841.948 29.4065 839.529 Z" fill="#000000" fill-rule="nonzero" fill-opacity="1" /><path clip-path="url(#clip990)" d="M16.4842 817.886 L16.4842 812.475 L70.0516 829.026 L70.0516 834.437 L16.4842 817.886 Z" fill="#000000" fill-rule="nonzero" fill-opacity="1" /><path clip-path="url(#clip990)" d="M16.4842 812.666 L16.4842 772.467 L21.895 772.467 L21.895 789.336 L64.0042 789.336 L64.0042 795.797 L21.895 795.797 L21.895 812.666 L16.4842 812.666 Z" fill="#000000" fill-rule="nonzero" fill-opacity="1" /><path clip-path="url(#clip990)" d="M16.4842 742.23 L34.2127 724.947 L34.2127 731.344 L21.6404 745.349 L34.2127 759.353 L34.2127 765.751 L16.4842 748.468 L16.4842 742.23 Z" fill="#000000" fill-rule="nonzero" fill-opacity="1" /><path clip-path="url(#clip990)" d="M38.3822 691.59 Q39.3689 686.975 42.4881 684.397 Q45.6073 681.787 50.1906 681.787 Q57.2247 681.787 61.0759 686.625 Q64.9272 691.463 64.9272 700.375 Q64.9272 703.367 64.3224 706.55 Q63.7495 709.701 62.5719 713.075 L56.3653 713.075 Q57.9249 710.401 58.7206 707.218 Q59.5163 704.035 59.5163 700.566 Q59.5163 694.519 57.1292 691.368 Q54.7421 688.185 50.1906 688.185 Q45.9892 688.185 43.6339 691.145 Q41.2468 694.073 41.2468 699.325 L41.2468 704.863 L35.9632 704.863 L35.9632 699.07 Q35.9632 694.328 34.0853 691.813 Q32.1756 689.299 28.6108 689.299 Q24.9505 689.299 23.009 691.909 Q21.0356 694.487 21.0356 699.325 Q21.0356 701.966 21.6086 704.99 Q22.1815 708.014 23.3909 711.642 L17.6618 711.642 Q16.6433 707.982 16.134 704.799 Q15.6248 701.584 15.6248 698.752 Q15.6248 691.431 18.9668 687.166 Q22.277 682.901 27.9424 682.901 Q31.8892 682.901 34.6264 685.161 Q37.3318 687.421 38.3822 691.59 Z" fill="#000000" fill-rule="nonzero" fill-opacity="1" /><path clip-path="url(#clip990)" d="M-155.252 9.54393 L-147.799 9.54393 L-147.799 72.576 L-155.252 72.576 L-155.252 9.54393 Z" fill="#000000" fill-rule="nonzero" fill-opacity="1" /><path clip-path="url(#clip990)" d="M-114.622 32.4315 Q-120.617 32.4315 -124.101 37.1306 Q-127.585 41.7891 -127.585 49.9314 Q-127.585 58.0738 -124.141 62.7728 Q-120.658 67.4314 -114.622 67.4314 Q-108.667 67.4314 -105.183 62.7323 Q-101.699 58.0333 -101.699 49.9314 Q-101.699 41.8701 -105.183 37.1711 Q-108.667 32.4315 -114.622 32.4315 M-114.622 26.1121 Q-104.9 26.1121 -99.3499 32.4315 Q-93.8002 38.7509 -93.8002 49.9314 Q-93.8002 61.0714 -99.3499 67.4314 Q-104.9 73.7508 -114.622 73.7508 Q-124.384 73.7508 -129.934 67.4314 Q-135.443 61.0714 -135.443 49.9314 Q-135.443 38.7509 -129.934 32.4315 Q-124.384 26.1121 -114.622 26.1121 Z" fill="#000000" fill-rule="nonzero" fill-opacity="1" /><path clip-path="url(#clip990)" d="M-51.5897 49.3643 Q-51.5897 41.2625 -54.952 36.8065 Q-58.2737 32.3505 -64.3096 32.3505 Q-70.3049 32.3505 -73.6672 36.8065 Q-76.9889 41.2625 -76.9889 49.3643 Q-76.9889 57.4256 -73.6672 61.8816 Q-70.3049 66.3376 -64.3096 66.3376 Q-58.2737 66.3376 -54.952 61.8816 Q-51.5897 57.4256 -51.5897 49.3643 M-44.1361 66.9452 Q-44.1361 78.5308 -49.2807 84.1616 Q-54.4254 89.8329 -65.0387 89.8329 Q-68.9681 89.8329 -72.4519 89.2252 Q-75.9357 88.6581 -79.2169 87.4428 L-79.2169 80.1917 Q-75.9357 81.9741 -72.7355 82.8248 Q-69.5352 83.6755 -66.2135 83.6755 Q-58.8814 83.6755 -55.2355 79.8271 Q-51.5897 76.0193 -51.5897 68.282 L-51.5897 64.5957 Q-53.8987 68.6061 -57.5041 70.5911 Q-61.1094 72.576 -66.1325 72.576 Q-74.4773 72.576 -79.5815 66.2161 Q-84.6856 59.8562 -84.6856 49.3643 Q-84.6856 38.832 -79.5815 32.472 Q-74.4773 26.1121 -66.1325 26.1121 Q-61.1094 26.1121 -57.5041 28.0971 Q-53.8987 30.082 -51.5897 34.0924 L-51.5897 27.2059 L-44.1361 27.2059 L-44.1361 66.9452 Z" fill="#000000" fill-rule="nonzero" fill-opacity="1" /><path clip-path="url(#clip990)" d="M-3.01939 12.096 L5.20395 12.096 L5.20395 48.8377 Q5.20395 58.5599 8.72823 62.8538 Q12.2525 67.1073 20.1518 67.1073 Q28.0105 67.1073 31.5348 62.8538 Q35.0591 58.5599 35.0591 48.8377 L35.0591 12.096 L43.2824 12.096 L43.2824 49.8504 Q43.2824 61.6791 37.4086 67.7149 Q31.5753 73.7508 20.1518 73.7508 Q8.68772 73.7508 2.81391 67.7149 Q-3.01939 61.6791 -3.01939 49.8504 L-3.01939 12.096 Z" fill="#000000" fill-rule="nonzero" fill-opacity="1" /><path clip-path="url(#clip990)" d="M107.651 9.54393 L107.651 15.7418 L100.522 15.7418 Q96.5113 15.7418 94.9315 17.3622 Q93.3921 18.9825 93.3921 23.1955 L93.3921 27.2059 L105.666 27.2059 L105.666 32.9987 L93.3921 32.9987 L93.3921 72.576 L85.898 72.576 L85.898 32.9987 L78.7684 32.9987 L78.7684 27.2059 L85.898 27.2059 L85.898 24.0462 Q85.898 16.471 89.4222 13.0277 Q92.9465 9.54393 100.603 9.54393 L107.651 9.54393 Z" fill="#000000" fill-rule="nonzero" fill-opacity="1" /><path clip-path="url(#clip990)" d="M113.89 27.2059 L121.343 27.2059 L121.343 72.576 L113.89 72.576 L113.89 27.2059 M113.89 9.54393 L121.343 9.54393 L121.343 18.9825 L113.89 18.9825 L113.89 9.54393 Z" fill="#000000" fill-rule="nonzero" fill-opacity="1" /><path clip-path="url(#clip990)" d="M144.312 14.324 L144.312 27.2059 L159.665 27.2059 L159.665 32.9987 L144.312 32.9987 L144.312 57.6282 Q144.312 63.1779 145.811 64.7578 Q147.35 66.3376 152.009 66.3376 L159.665 66.3376 L159.665 72.576 L152.009 72.576 Q143.38 72.576 140.099 69.3758 Q136.818 66.1351 136.818 57.6282 L136.818 32.9987 L131.349 32.9987 L131.349 27.2059 L136.818 27.2059 L136.818 14.324 L144.312 14.324 Z" fill="#000000" fill-rule="nonzero" fill-opacity="1" /><path clip-path="url(#clip990)" d="M205.44 9.17935 L205.44 92.1419 L198.554 92.1419 L198.554 9.17935 L205.44 9.17935 Z" fill="#000000" fill-rule="nonzero" fill-opacity="1" /><path clip-path="url(#clip990)" d="M270.781 49.7694 Q261.748 49.7694 258.264 51.8354 Q254.78 53.9013 254.78 58.8839 Q254.78 62.8538 257.373 65.2034 Q260.006 67.5124 264.502 67.5124 Q270.7 67.5124 274.427 63.1374 Q278.194 58.7219 278.194 51.4303 L278.194 49.7694 L270.781 49.7694 M285.648 46.6907 L285.648 72.576 L278.194 72.576 L278.194 65.6895 Q275.642 69.8214 271.834 71.8063 Q268.027 73.7508 262.517 73.7508 Q255.55 73.7508 251.418 69.8619 Q247.326 65.9325 247.326 59.3701 Q247.326 51.7138 252.431 47.825 Q257.575 43.9361 267.743 43.9361 L278.194 43.9361 L278.194 43.2069 Q278.194 38.0623 274.792 35.2672 Q271.429 32.4315 265.313 32.4315 Q261.424 32.4315 257.737 33.3632 Q254.051 34.295 250.648 36.1584 L250.648 29.2718 Q254.74 27.692 258.588 26.9223 Q262.436 26.1121 266.082 26.1121 Q275.926 26.1121 280.787 31.2163 Q285.648 36.3204 285.648 46.6907 Z" fill="#000000" fill-rule="nonzero" fill-opacity="1" /><path clip-path="url(#clip990)" d="M303.472 65.6895 L316.84 65.6895 L316.84 19.5497 L302.297 22.4663 L302.297 15.0127 L316.759 12.096 L324.942 12.096 L324.942 65.6895 L338.31 65.6895 L338.31 72.576 L303.472 72.576 L303.472 65.6895 Z" fill="#000000" fill-rule="nonzero" fill-opacity="1" /><path clip-path="url(#clip990)" d="M354.756 34.9026 L406.689 34.9026 L406.689 41.7081 L354.756 41.7081 L354.756 34.9026 M354.756 51.4303 L406.689 51.4303 L406.689 58.3168 L354.756 58.3168 L354.756 51.4303 Z" fill="#000000" fill-rule="nonzero" fill-opacity="1" /><path clip-path="url(#clip990)" d="M431.4 65.6895 L459.958 65.6895 L459.958 72.576 L421.556 72.576 L421.556 65.6895 Q426.214 60.8689 434.235 52.7671 Q442.297 44.6248 444.362 42.2752 Q448.292 37.8598 449.831 34.8216 Q451.411 31.7429 451.411 28.7857 Q451.411 23.9651 448.008 20.927 Q444.646 17.8888 439.218 17.8888 Q435.369 17.8888 431.076 19.2256 Q426.822 20.5624 421.961 23.2765 L421.961 15.0127 Q426.903 13.0277 431.197 12.015 Q435.491 11.0023 439.056 11.0023 Q448.454 11.0023 454.044 15.7013 Q459.634 20.4004 459.634 28.2591 Q459.634 31.9859 458.217 35.3482 Q456.839 38.6699 453.153 43.2069 Q452.14 44.3817 446.712 50.0125 Q441.284 55.6027 431.4 65.6895 Z" fill="#000000" fill-rule="nonzero" fill-opacity="1" /><path clip-path="url(#clip990)" d="M501.926 39.9662 Q507.8 41.222 511.081 45.1919 Q514.403 49.1618 514.403 54.9951 Q514.403 63.9476 508.245 68.8492 Q502.088 73.7508 490.745 73.7508 Q486.937 73.7508 482.887 72.9811 Q478.876 72.2519 474.582 70.7531 L474.582 62.8538 Q477.985 64.8388 482.036 65.8515 Q486.087 66.8642 490.502 66.8642 Q498.199 66.8642 502.209 63.826 Q506.26 60.7879 506.26 54.9951 Q506.26 49.6479 502.493 46.6502 Q498.766 43.612 492.082 43.612 L485.034 43.612 L485.034 36.8875 L492.406 36.8875 Q498.442 36.8875 501.642 34.4975 Q504.842 32.067 504.842 27.5299 Q504.842 22.8714 501.521 20.4004 Q498.239 17.8888 492.082 17.8888 Q488.72 17.8888 484.872 18.618 Q481.023 19.3471 476.405 20.8865 L476.405 13.5948 Q481.064 12.2985 485.115 11.6504 Q489.206 11.0023 492.811 11.0023 Q502.128 11.0023 507.557 15.2557 Q512.985 19.4686 512.985 26.6793 Q512.985 31.7024 510.109 35.1862 Q507.233 38.6294 501.926 39.9662 Z" fill="#000000" fill-rule="nonzero" fill-opacity="1" /><path clip-path="url(#clip990)" d="M529.918 62.2867 L538.465 62.2867 L538.465 72.576 L529.918 72.576 L529.918 62.2867 Z" fill="#000000" fill-rule="nonzero" fill-opacity="1" /><path clip-path="url(#clip990)" d="M557.707 65.6895 L571.075 65.6895 L571.075 19.5497 L556.532 22.4663 L556.532 15.0127 L570.994 12.096 L579.177 12.096 L579.177 65.6895 L592.545 65.6895 L592.545 72.576 L557.707 72.576 L557.707 65.6895 Z" fill="#000000" fill-rule="nonzero" fill-opacity="1" /><path clip-path="url(#clip990)" d="M607.006 12.096 L645.895 12.096 L645.895 15.5798 L623.939 72.576 L615.392 72.576 L636.051 18.9825 L607.006 18.9825 L607.006 12.096 Z" fill="#000000" fill-rule="nonzero" fill-opacity="1" /><path clip-path="url(#clip990)" d="M662.706 62.2867 L671.254 62.2867 L671.254 69.2543 L664.61 82.2172 L659.384 82.2172 L662.706 69.2543 L662.706 62.2867 Z" fill="#000000" fill-rule="nonzero" fill-opacity="1" /><path clip-path="url(#clip990)" d="M734.164 49.7694 Q725.131 49.7694 721.647 51.8354 Q718.163 53.9013 718.163 58.8839 Q718.163 62.8538 720.756 65.2034 Q723.389 67.5124 727.885 67.5124 Q734.083 67.5124 737.81 63.1374 Q741.577 58.7219 741.577 51.4303 L741.577 49.7694 L734.164 49.7694 M749.031 46.6907 L749.031 72.576 L741.577 72.576 L741.577 65.6895 Q739.025 69.8214 735.217 71.8063 Q731.41 73.7508 725.9 73.7508 Q718.933 73.7508 714.801 69.8619 Q710.709 65.9325 710.709 59.3701 Q710.709 51.7138 715.814 47.825 Q720.958 43.9361 731.126 43.9361 L741.577 43.9361 L741.577 43.2069 Q741.577 38.0623 738.175 35.2672 Q734.812 32.4315 728.695 32.4315 Q724.807 32.4315 721.12 33.3632 Q717.434 34.295 714.031 36.1584 L714.031 29.2718 Q718.123 27.692 721.971 26.9223 Q725.819 26.1121 729.465 26.1121 Q739.309 26.1121 744.17 31.2163 Q749.031 36.3204 749.031 46.6907 Z" fill="#000000" fill-rule="nonzero" fill-opacity="1" /><path clip-path="url(#clip990)" d="M772.486 65.6895 L801.045 65.6895 L801.045 72.576 L762.642 72.576 L762.642 65.6895 Q767.301 60.8689 775.321 52.7671 Q783.383 44.6248 785.449 42.2752 Q789.378 37.8598 790.917 34.8216 Q792.497 31.7429 792.497 28.7857 Q792.497 23.9651 789.094 20.927 Q785.732 17.8888 780.304 17.8888 Q776.456 17.8888 772.162 19.2256 Q767.908 20.5624 763.047 23.2765 L763.047 15.0127 Q767.989 13.0277 772.283 12.015 Q776.577 11.0023 780.142 11.0023 Q789.54 11.0023 795.13 15.7013 Q800.721 20.4004 800.721 28.2591 Q800.721 31.9859 799.303 35.3482 Q797.925 38.6699 794.239 43.2069 Q793.226 44.3817 787.798 50.0125 Q782.37 55.6027 772.486 65.6895 Z" fill="#000000" fill-rule="nonzero" fill-opacity="1" /><path clip-path="url(#clip990)" d="M818.139 34.9026 L870.072 34.9026 L870.072 41.7081 L818.139 41.7081 L818.139 34.9026 M818.139 51.4303 L870.072 51.4303 L870.072 58.3168 L818.139 58.3168 L818.139 51.4303 Z" fill="#000000" fill-rule="nonzero" fill-opacity="1" /><path clip-path="url(#clip990)" d="M889.152 65.6895 L902.52 65.6895 L902.52 19.5497 L887.977 22.4663 L887.977 15.0127 L902.439 12.096 L910.622 12.096 L910.622 65.6895 L923.99 65.6895 L923.99 72.576 L889.152 72.576 L889.152 65.6895 Z" fill="#000000" fill-rule="nonzero" fill-opacity="1" /><path clip-path="url(#clip990)" d="M940.517 62.2867 L949.065 62.2867 L949.065 72.576 L940.517 72.576 L940.517 62.2867 Z" fill="#000000" fill-rule="nonzero" fill-opacity="1" /><path clip-path="url(#clip990)" d="M973.937 65.6895 L1002.5 65.6895 L1002.5 72.576 L964.093 72.576 L964.093 65.6895 Q968.752 60.8689 976.773 52.7671 Q984.834 44.6248 986.9 42.2752 Q990.829 37.8598 992.369 34.8216 Q993.949 31.7429 993.949 28.7857 Q993.949 23.9651 990.546 20.927 Q987.184 17.8888 981.755 17.8888 Q977.907 17.8888 973.613 19.2256 Q969.36 20.5624 964.499 23.2765 L964.499 15.0127 Q969.441 13.0277 973.735 12.015 Q978.029 11.0023 981.593 11.0023 Q990.991 11.0023 996.582 15.7013 Q1002.17 20.4004 1002.17 28.2591 Q1002.17 31.9859 1000.75 35.3482 Q999.377 38.6699 995.691 43.2069 Q994.678 44.3817 989.25 50.0125 Q983.821 55.6027 973.937 65.6895 Z" fill="#000000" fill-rule="nonzero" fill-opacity="1" /><path clip-path="url(#clip990)" d="M1038.18 39.075 Q1032.68 39.075 1029.43 42.8424 Q1026.23 46.6097 1026.23 53.1722 Q1026.23 59.6941 1029.43 63.502 Q1032.68 67.2693 1038.18 67.2693 Q1043.69 67.2693 1046.89 63.502 Q1050.13 59.6941 1050.13 53.1722 Q1050.13 46.6097 1046.89 42.8424 Q1043.69 39.075 1038.18 39.075 M1054.43 13.4328 L1054.43 20.8865 Q1051.35 19.4281 1048.19 18.6585 Q1045.07 17.8888 1041.99 17.8888 Q1033.89 17.8888 1029.6 23.3575 Q1025.34 28.8262 1024.74 39.8852 Q1027.13 36.3609 1030.73 34.4975 Q1034.34 32.5936 1038.67 32.5936 Q1047.79 32.5936 1053.05 38.1433 Q1058.36 43.6525 1058.36 53.1722 Q1058.36 62.4892 1052.85 68.12 Q1047.34 73.7508 1038.18 73.7508 Q1027.69 73.7508 1022.14 65.73 Q1016.59 57.6687 1016.59 42.3968 Q1016.59 28.0566 1023.4 19.5497 Q1030.2 11.0023 1041.67 11.0023 Q1044.75 11.0023 1047.87 11.6099 Q1051.03 12.2175 1054.43 13.4328 Z" fill="#000000" fill-rule="nonzero" fill-opacity="1" /><path clip-path="url(#clip990)" d="M1090.97 39.075 Q1085.46 39.075 1082.22 42.8424 Q1079.02 46.6097 1079.02 53.1722 Q1079.02 59.6941 1082.22 63.502 Q1085.46 67.2693 1090.97 67.2693 Q1096.48 67.2693 1099.68 63.502 Q1102.92 59.6941 1102.92 53.1722 Q1102.92 46.6097 1099.68 42.8424 Q1096.48 39.075 1090.97 39.075 M1107.21 13.4328 L1107.21 20.8865 Q1104.13 19.4281 1100.97 18.6585 Q1097.85 17.8888 1094.78 17.8888 Q1086.67 17.8888 1082.38 23.3575 Q1078.13 28.8262 1077.52 39.8852 Q1079.91 36.3609 1083.51 34.4975 Q1087.12 32.5936 1091.45 32.5936 Q1100.57 32.5936 1105.83 38.1433 Q1111.14 43.6525 1111.14 53.1722 Q1111.14 62.4892 1105.63 68.12 Q1100.12 73.7508 1090.97 73.7508 Q1080.48 73.7508 1074.93 65.73 Q1069.38 57.6687 1069.38 42.3968 Q1069.38 28.0566 1076.18 19.5497 Q1082.99 11.0023 1094.45 11.0023 Q1097.53 11.0023 1100.65 11.6099 Q1103.81 12.2175 1107.21 13.4328 Z" fill="#000000" fill-rule="nonzero" fill-opacity="1" /><path clip-path="url(#clip990)" d="M1126.66 65.6895 L1140.02 65.6895 L1140.02 19.5497 L1125.48 22.4663 L1125.48 15.0127 L1139.94 12.096 L1148.13 12.096 L1148.13 65.6895 L1161.49 65.6895 L1161.49 72.576 L1126.66 72.576 L1126.66 65.6895 Z" fill="#000000" fill-rule="nonzero" fill-opacity="1" /><path clip-path="url(#clip990)" d="M1178.87 62.2867 L1187.42 62.2867 L1187.42 69.2543 L1180.78 82.2172 L1175.55 82.2172 L1178.87 69.2543 L1178.87 62.2867 Z" fill="#000000" fill-rule="nonzero" fill-opacity="1" /><path clip-path="url(#clip990)" d="M1221.65 12.096 L1272.81 12.096 L1272.81 18.9825 L1251.34 18.9825 L1251.34 72.576 L1243.12 72.576 L1243.12 18.9825 L1221.65 18.9825 L1221.65 12.096 Z" fill="#000000" fill-rule="nonzero" fill-opacity="1" /><path clip-path="url(#clip990)" d="M1298.94 17.4837 Q1292.62 17.4837 1289.42 23.7221 Q1286.26 29.92 1286.26 42.3968 Q1286.26 54.833 1289.42 61.0714 Q1292.62 67.2693 1298.94 67.2693 Q1305.3 67.2693 1308.46 61.0714 Q1311.66 54.833 1311.66 42.3968 Q1311.66 29.92 1308.46 23.7221 Q1305.3 17.4837 1298.94 17.4837 M1298.94 11.0023 Q1309.11 11.0023 1314.46 19.0636 Q1319.84 27.0843 1319.84 42.3968 Q1319.84 57.6687 1314.46 65.73 Q1309.11 73.7508 1298.94 73.7508 Q1288.77 73.7508 1283.39 65.73 Q1278.04 57.6687 1278.04 42.3968 Q1278.04 27.0843 1283.39 19.0636 Q1288.77 11.0023 1298.94 11.0023 Z" fill="#000000" fill-rule="nonzero" fill-opacity="1" /><path clip-path="url(#clip990)" d="M1334.14 34.9026 L1386.08 34.9026 L1386.08 41.7081 L1334.14 41.7081 L1334.14 34.9026 M1334.14 51.4303 L1386.08 51.4303 L1386.08 58.3168 L1334.14 58.3168 L1334.14 51.4303 Z" fill="#000000" fill-rule="nonzero" fill-opacity="1" /><path clip-path="url(#clip990)" d="M1405.16 65.6895 L1418.52 65.6895 L1418.52 19.5497 L1403.98 22.4663 L1403.98 15.0127 L1418.44 12.096 L1426.63 12.096 L1426.63 65.6895 L1439.99 65.6895 L1439.99 72.576 L1405.16 72.576 L1405.16 65.6895 Z" fill="#000000" fill-rule="nonzero" fill-opacity="1" /><path clip-path="url(#clip990)" d="M1475.03 39.075 Q1469.52 39.075 1466.28 42.8424 Q1463.08 46.6097 1463.08 53.1722 Q1463.08 59.6941 1466.28 63.502 Q1469.52 67.2693 1475.03 67.2693 Q1480.54 67.2693 1483.74 63.502 Q1486.98 59.6941 1486.98 53.1722 Q1486.98 46.6097 1483.74 42.8424 Q1480.54 39.075 1475.03 39.075 M1491.28 13.4328 L1491.28 20.8865 Q1488.2 19.4281 1485.04 18.6585 Q1481.92 17.8888 1478.84 17.8888 Q1470.74 17.8888 1466.45 23.3575 Q1462.19 28.8262 1461.59 39.8852 Q1463.98 36.3609 1467.58 34.4975 Q1471.19 32.5936 1475.52 32.5936 Q1484.63 32.5936 1489.9 38.1433 Q1495.21 43.6525 1495.21 53.1722 Q1495.21 62.4892 1489.7 68.12 Q1484.19 73.7508 1475.03 73.7508 Q1464.54 73.7508 1458.99 65.73 Q1453.44 57.6687 1453.44 42.3968 Q1453.44 28.0566 1460.25 19.5497 Q1467.05 11.0023 1478.52 11.0023 Q1481.6 11.0023 1484.72 11.6099 Q1487.88 12.2175 1491.28 13.4328 Z" fill="#000000" fill-rule="nonzero" fill-opacity="1" /><path clip-path="url(#clip990)" d="M1510.72 65.6895 L1524.09 65.6895 L1524.09 19.5497 L1509.55 22.4663 L1509.55 15.0127 L1524.01 12.096 L1532.19 12.096 L1532.19 65.6895 L1545.56 65.6895 L1545.56 72.576 L1510.72 72.576 L1510.72 65.6895 Z" fill="#000000" fill-rule="nonzero" fill-opacity="1" /><path clip-path="url(#clip990)" d="M1562.09 62.2867 L1570.64 62.2867 L1570.64 72.576 L1562.09 72.576 L1562.09 62.2867 Z" fill="#000000" fill-rule="nonzero" fill-opacity="1" /><path clip-path="url(#clip990)" d="M1605.96 17.4837 Q1599.64 17.4837 1596.44 23.7221 Q1593.28 29.92 1593.28 42.3968 Q1593.28 54.833 1596.44 61.0714 Q1599.64 67.2693 1605.96 67.2693 Q1612.32 67.2693 1615.48 61.0714 Q1618.68 54.833 1618.68 42.3968 Q1618.68 29.92 1615.48 23.7221 Q1612.32 17.4837 1605.96 17.4837 M1605.96 11.0023 Q1616.13 11.0023 1621.47 19.0636 Q1626.86 27.0843 1626.86 42.3968 Q1626.86 57.6687 1621.47 65.73 Q1616.13 73.7508 1605.96 73.7508 Q1595.79 73.7508 1590.4 65.73 Q1585.06 57.6687 1585.06 42.3968 Q1585.06 27.0843 1590.4 19.0636 Q1595.79 11.0023 1605.96 11.0023 Z" fill="#000000" fill-rule="nonzero" fill-opacity="1" /><path clip-path="url(#clip990)" d="M1666.03 39.9662 Q1671.91 41.222 1675.19 45.1919 Q1678.51 49.1618 1678.51 54.9951 Q1678.51 63.9476 1672.35 68.8492 Q1666.2 73.7508 1654.85 73.7508 Q1651.05 73.7508 1646.99 72.9811 Q1642.98 72.2519 1638.69 70.7531 L1638.69 62.8538 Q1642.09 64.8388 1646.14 65.8515 Q1650.2 66.8642 1654.61 66.8642 Q1662.31 66.8642 1666.32 63.826 Q1670.37 60.7879 1670.37 54.9951 Q1670.37 49.6479 1666.6 46.6502 Q1662.87 43.612 1656.19 43.612 L1649.14 43.612 L1649.14 36.8875 L1656.51 36.8875 Q1662.55 36.8875 1665.75 34.4975 Q1668.95 32.067 1668.95 27.5299 Q1668.95 22.8714 1665.63 20.4004 Q1662.35 17.8888 1656.19 17.8888 Q1652.83 17.8888 1648.98 18.618 Q1645.13 19.3471 1640.51 20.8865 L1640.51 13.5948 Q1645.17 12.2985 1649.22 11.6504 Q1653.31 11.0023 1656.92 11.0023 Q1666.24 11.0023 1671.66 15.2557 Q1677.09 19.4686 1677.09 26.6793 Q1677.09 31.7024 1674.22 35.1862 Q1671.34 38.6294 1666.03 39.9662 Z" fill="#000000" fill-rule="nonzero" fill-opacity="1" /><path clip-path="url(#clip990)" d="M1694.11 12.096 L1726.23 12.096 L1726.23 18.9825 L1701.6 18.9825 L1701.6 33.8088 Q1703.38 33.2012 1705.17 32.9176 Q1706.95 32.5936 1708.73 32.5936 Q1718.86 32.5936 1724.77 38.1433 Q1730.69 43.6931 1730.69 53.1722 Q1730.69 62.9348 1724.61 68.3631 Q1718.53 73.7508 1707.47 73.7508 Q1703.67 73.7508 1699.7 73.1026 Q1695.77 72.4545 1691.55 71.1582 L1691.55 62.9348 Q1695.2 64.9198 1699.09 65.892 Q1702.98 66.8642 1707.31 66.8642 Q1714.32 66.8642 1718.41 63.1779 Q1722.5 59.4916 1722.5 53.1722 Q1722.5 46.8528 1718.41 43.1664 Q1714.32 39.4801 1707.31 39.4801 Q1704.03 39.4801 1700.75 40.2093 Q1697.51 40.9384 1694.11 42.4778 L1694.11 12.096 Z" fill="#000000" fill-rule="nonzero" fill-opacity="1" /><path clip-path="url(#clip990)" d="M1772.45 12.096 L1784.64 12.096 L1800.08 53.2532 L1815.59 12.096 L1827.79 12.096 L1827.79 72.576 L1819.81 72.576 L1819.81 19.4686 L1804.21 60.9499 L1795.99 60.9499 L1780.39 19.4686 L1780.39 72.576 L1772.45 72.576 L1772.45 12.096 Z" fill="#000000" fill-rule="nonzero" fill-opacity="1" /><path clip-path="url(#clip990)" d="M1882.51 48.0275 L1882.51 51.6733 L1848.24 51.6733 Q1848.73 59.3701 1852.86 63.421 Q1857.03 67.4314 1864.45 67.4314 Q1868.74 67.4314 1872.75 66.3781 Q1876.8 65.3249 1880.77 63.2184 L1880.77 70.267 Q1876.76 71.9684 1872.55 72.8596 Q1868.34 73.7508 1864 73.7508 Q1853.15 73.7508 1846.79 67.4314 Q1840.47 61.1119 1840.47 50.3365 Q1840.47 39.1965 1846.46 32.6746 Q1852.5 26.1121 1862.71 26.1121 Q1871.86 26.1121 1877.17 32.0264 Q1882.51 37.9003 1882.51 48.0275 M1875.06 45.84 Q1874.98 39.7232 1871.62 36.0774 Q1868.3 32.4315 1862.79 32.4315 Q1856.55 32.4315 1852.78 35.9558 Q1849.05 39.4801 1848.49 45.8805 L1875.06 45.84 Z" fill="#000000" fill-rule="nonzero" fill-opacity="1" /><path clip-path="url(#clip990)" d="M1910.67 72.576 L1887.58 12.096 L1896.13 12.096 L1915.29 63.0159 L1934.49 12.096 L1942.99 12.096 L1919.94 72.576 L1910.67 72.576 Z" fill="#000000" fill-rule="nonzero" fill-opacity="1" /><path clip-path="url(#clip990)" d="M1953.41 62.2867 L1961.95 62.2867 L1961.95 69.2543 L1955.31 82.2172 L1950.08 82.2172 L1953.41 69.2543 L1953.41 62.2867 Z" fill="#000000" fill-rule="nonzero" fill-opacity="1" /><path clip-path="url(#clip990)" d="M1996.18 12.096 L2047.35 12.096 L2047.35 18.9825 L2025.88 18.9825 L2025.88 72.576 L2017.65 72.576 L2017.65 18.9825 L1996.18 18.9825 L1996.18 12.096 Z" fill="#000000" fill-rule="nonzero" fill-opacity="1" /><path clip-path="url(#clip990)" d="M2062.13 65.7705 L2062.13 89.8329 L2054.64 89.8329 L2054.64 27.2059 L2062.13 27.2059 L2062.13 34.0924 Q2064.48 30.0415 2068.05 28.0971 Q2071.65 26.1121 2076.63 26.1121 Q2084.9 26.1121 2090.04 32.6746 Q2095.23 39.2371 2095.23 49.9314 Q2095.23 60.6258 2090.04 67.1883 Q2084.9 73.7508 2076.63 73.7508 Q2071.65 73.7508 2068.05 71.8063 Q2064.48 69.8214 2062.13 65.7705 M2087.49 49.9314 Q2087.49 41.7081 2084.09 37.0496 Q2080.73 32.3505 2074.81 32.3505 Q2068.9 32.3505 2065.49 37.0496 Q2062.13 41.7081 2062.13 49.9314 Q2062.13 58.1548 2065.49 62.8538 Q2068.9 67.5124 2074.81 67.5124 Q2080.73 67.5124 2084.09 62.8538 Q2087.49 58.1548 2087.49 49.9314 Z" fill="#000000" fill-rule="nonzero" fill-opacity="1" /><path clip-path="url(#clip990)" d="M2140.23 28.9478 L2140.23 35.9153 Q2137.07 34.1734 2133.87 33.3227 Q2130.71 32.4315 2127.47 32.4315 Q2120.22 32.4315 2116.21 37.0496 Q2112.2 41.6271 2112.2 49.9314 Q2112.2 58.2358 2116.21 62.8538 Q2120.22 67.4314 2127.47 67.4314 Q2130.71 67.4314 2133.87 66.5807 Q2137.07 65.6895 2140.23 63.9476 L2140.23 70.8341 Q2137.11 72.2924 2133.75 73.0216 Q2130.43 73.7508 2126.66 73.7508 Q2116.41 73.7508 2110.38 67.3098 Q2104.34 60.8689 2104.34 49.9314 Q2104.34 38.832 2110.42 32.472 Q2116.54 26.1121 2127.15 26.1121 Q2130.59 26.1121 2133.87 26.8413 Q2137.15 27.5299 2140.23 28.9478 Z" fill="#000000" fill-rule="nonzero" fill-opacity="1" /><path clip-path="url(#clip990)" d="M2154.17 34.9026 L2206.1 34.9026 L2206.1 41.7081 L2154.17 41.7081 L2154.17 34.9026 M2154.17 51.4303 L2206.1 51.4303 L2206.1 58.3168 L2154.17 58.3168 L2154.17 51.4303 Z" fill="#000000" fill-rule="nonzero" fill-opacity="1" /><path clip-path="url(#clip990)" d="M2225.18 65.6895 L2238.55 65.6895 L2238.55 19.5497 L2224.01 22.4663 L2224.01 15.0127 L2238.47 12.096 L2246.65 12.096 L2246.65 65.6895 L2260.02 65.6895 L2260.02 72.576 L2225.18 72.576 L2225.18 65.6895 Z" fill="#000000" fill-rule="nonzero" fill-opacity="1" /><path clip-path="url(#clip990)" d="M2274.48 12.096 L2313.37 12.096 L2313.37 15.5798 L2291.41 72.576 L2282.87 72.576 L2303.52 18.9825 L2274.48 18.9825 L2274.48 12.096 Z" fill="#000000" fill-rule="nonzero" fill-opacity="1" /><path clip-path="url(#clip990)" d="M2346.83 17.4837 Q2340.51 17.4837 2337.31 23.7221 Q2334.15 29.92 2334.15 42.3968 Q2334.15 54.833 2337.31 61.0714 Q2340.51 67.2693 2346.83 67.2693 Q2353.19 67.2693 2356.35 61.0714 Q2359.55 54.833 2359.55 42.3968 Q2359.55 29.92 2356.35 23.7221 Q2353.19 17.4837 2346.83 17.4837 M2346.83 11.0023 Q2357 11.0023 2362.34 19.0636 Q2367.73 27.0843 2367.73 42.3968 Q2367.73 57.6687 2362.34 65.73 Q2357 73.7508 2346.83 73.7508 Q2336.66 73.7508 2331.27 65.73 Q2325.93 57.6687 2325.93 42.3968 Q2325.93 27.0843 2331.27 19.0636 Q2336.66 11.0023 2346.83 11.0023 Z" fill="#000000" fill-rule="nonzero" fill-opacity="1" /><path clip-path="url(#clip990)" d="M2382.11 62.2867 L2390.66 62.2867 L2390.66 72.576 L2382.11 72.576 L2382.11 62.2867 Z" fill="#000000" fill-rule="nonzero" fill-opacity="1" /><path clip-path="url(#clip990)" d="M2427 39.075 Q2421.49 39.075 2418.25 42.8424 Q2415.05 46.6097 2415.05 53.1722 Q2415.05 59.6941 2418.25 63.502 Q2421.49 67.2693 2427 67.2693 Q2432.51 67.2693 2435.71 63.502 Q2438.95 59.6941 2438.95 53.1722 Q2438.95 46.6097 2435.71 42.8424 Q2432.51 39.075 2427 39.075 M2443.24 13.4328 L2443.24 20.8865 Q2440.16 19.4281 2437 18.6585 Q2433.88 17.8888 2430.8 17.8888 Q2422.7 17.8888 2418.41 23.3575 Q2414.16 28.8262 2413.55 39.8852 Q2415.94 36.3609 2419.54 34.4975 Q2423.15 32.5936 2427.48 32.5936 Q2436.6 32.5936 2441.86 38.1433 Q2447.17 43.6525 2447.17 53.1722 Q2447.17 62.4892 2441.66 68.12 Q2436.15 73.7508 2427 73.7508 Q2416.5 73.7508 2410.95 65.73 Q2405.41 57.6687 2405.41 42.3968 Q2405.41 28.0566 2412.21 19.5497 Q2419.02 11.0023 2430.48 11.0023 Q2433.56 11.0023 2436.68 11.6099 Q2439.84 12.2175 2443.24 13.4328 Z" fill="#000000" fill-rule="nonzero" fill-opacity="1" /><path clip-path="url(#clip990)" d="M2461.51 71.3202 L2461.51 63.8666 Q2464.59 65.3249 2467.75 66.0946 Q2470.91 66.8642 2473.95 66.8642 Q2482.05 66.8642 2486.3 61.436 Q2490.6 55.9673 2491.2 44.8678 Q2488.85 48.3516 2485.25 50.215 Q2481.64 52.0784 2477.27 52.0784 Q2468.19 52.0784 2462.89 46.6097 Q2457.62 41.1005 2457.62 31.5808 Q2457.62 22.2638 2463.13 16.633 Q2468.64 11.0023 2477.79 11.0023 Q2488.29 11.0023 2493.8 19.0636 Q2499.35 27.0843 2499.35 42.3968 Q2499.35 56.6965 2492.54 65.2439 Q2485.78 73.7508 2474.31 73.7508 Q2471.23 73.7508 2468.07 73.1431 Q2464.91 72.5355 2461.51 71.3202 M2477.79 45.678 Q2483.3 45.678 2486.5 41.9107 Q2489.75 38.1433 2489.75 31.5808 Q2489.75 25.0589 2486.5 21.2916 Q2483.3 17.4837 2477.79 17.4837 Q2472.29 17.4837 2469.04 21.2916 Q2465.84 25.0589 2465.84 31.5808 Q2465.84 38.1433 2469.04 41.9107 Q2472.29 45.678 2477.79 45.678 Z" fill="#000000" fill-rule="nonzero" fill-opacity="1" /><path clip-path="url(#clip990)" d="M2539.69 12.096 L2551.89 12.096 L2567.32 53.2532 L2582.83 12.096 L2595.03 12.096 L2595.03 72.576 L2587.05 72.576 L2587.05 19.4686 L2571.45 60.9499 L2563.23 60.9499 L2547.63 19.4686 L2547.63 72.576 L2539.69 72.576 L2539.69 12.096 Z" fill="#000000" fill-rule="nonzero" fill-opacity="1" /><path clip-path="url(#clip990)" d="M2649.76 48.0275 L2649.76 51.6733 L2615.49 51.6733 Q2615.97 59.3701 2620.1 63.421 Q2624.28 67.4314 2631.69 67.4314 Q2635.98 67.4314 2639.99 66.3781 Q2644.04 65.3249 2648.01 63.2184 L2648.01 70.267 Q2644 71.9684 2639.79 72.8596 Q2635.58 73.7508 2631.24 73.7508 Q2620.39 73.7508 2614.03 67.4314 Q2607.71 61.1119 2607.71 50.3365 Q2607.71 39.1965 2613.7 32.6746 Q2619.74 26.1121 2629.95 26.1121 Q2639.1 26.1121 2644.41 32.0264 Q2649.76 37.9003 2649.76 48.0275 M2642.3 45.84 Q2642.22 39.7232 2638.86 36.0774 Q2635.54 32.4315 2630.03 32.4315 Q2623.79 32.4315 2620.02 35.9558 Q2616.3 39.4801 2615.73 45.8805 L2642.3 45.84 Z" fill="#000000" fill-rule="nonzero" fill-opacity="1" /><path clip-path="url(#clip990)" d="M2677.91 72.576 L2654.82 12.096 L2663.37 12.096 L2682.53 63.0159 L2701.73 12.096 L2710.24 12.096 L2687.19 72.576 L2677.91 72.576 Z" fill="#000000" fill-rule="nonzero" fill-opacity="1" /><polyline clip-path="url(#clip992)" style="stroke:#000000; stroke-linecap:round; stroke-linejoin:round; stroke-width:4; stroke-opacity:1; fill:none" points="263.091,1239.77 263.091,1200.21 "/>
<polyline clip-path="url(#clip992)" style="stroke:#000000; stroke-linecap:round; stroke-linejoin:round; stroke-width:4; stroke-opacity:1; fill:none" points="300.662,1224.35 300.662,1167.35 "/>
<polyline clip-path="url(#clip992)" style="stroke:#000000; stroke-linecap:round; stroke-linejoin:round; stroke-width:4; stroke-opacity:1; fill:none" points="338.232,1198.2 338.232,1133.15 "/>
<polyline clip-path="url(#clip992)" style="stroke:#000000; stroke-linecap:round; stroke-linejoin:round; stroke-width:4; stroke-opacity:1; fill:none" points="375.803,1166.01 375.803,1094.26 "/>
<polyline clip-path="url(#clip992)" style="stroke:#000000; stroke-linecap:round; stroke-linejoin:round; stroke-width:4; stroke-opacity:1; fill:none" points="413.373,1130.14 413.373,1051.01 "/>
<polyline clip-path="url(#clip992)" style="stroke:#000000; stroke-linecap:round; stroke-linejoin:round; stroke-width:4; stroke-opacity:1; fill:none" points="450.943,1090.24 450.943,1005.08 "/>
<polyline clip-path="url(#clip992)" style="stroke:#000000; stroke-linecap:round; stroke-linejoin:round; stroke-width:4; stroke-opacity:1; fill:none" points="488.514,1048.33 488.514,958.476 "/>
<polyline clip-path="url(#clip992)" style="stroke:#000000; stroke-linecap:round; stroke-linejoin:round; stroke-width:4; stroke-opacity:1; fill:none" points="526.084,1005.75 526.084,912.544 "/>
<polyline clip-path="url(#clip992)" style="stroke:#000000; stroke-linecap:round; stroke-linejoin:round; stroke-width:4; stroke-opacity:1; fill:none" points="563.655,962.164 563.655,867.617 "/>
<polyline clip-path="url(#clip992)" style="stroke:#000000; stroke-linecap:round; stroke-linejoin:round; stroke-width:4; stroke-opacity:1; fill:none" points="601.225,920.926 601.225,825.708 "/>
<polyline clip-path="url(#clip992)" style="stroke:#000000; stroke-linecap:round; stroke-linejoin:round; stroke-width:4; stroke-opacity:1; fill:none" points="638.795,881.028 638.795,786.48 "/>
<polyline clip-path="url(#clip992)" style="stroke:#000000; stroke-linecap:round; stroke-linejoin:round; stroke-width:4; stroke-opacity:1; fill:none" points="676.366,844.483 676.366,749.265 "/>
<polyline clip-path="url(#clip992)" style="stroke:#000000; stroke-linecap:round; stroke-linejoin:round; stroke-width:4; stroke-opacity:1; fill:none" points="713.936,807.938 713.936,716.073 "/>
<polyline clip-path="url(#clip992)" style="stroke:#000000; stroke-linecap:round; stroke-linejoin:round; stroke-width:4; stroke-opacity:1; fill:none" points="751.506,775.752 751.506,685.227 "/>
<polyline clip-path="url(#clip992)" style="stroke:#000000; stroke-linecap:round; stroke-linejoin:round; stroke-width:4; stroke-opacity:1; fill:none" points="789.077,745.912 789.077,657.4 "/>
<polyline clip-path="url(#clip992)" style="stroke:#000000; stroke-linecap:round; stroke-linejoin:round; stroke-width:4; stroke-opacity:1; fill:none" points="826.647,717.749 826.647,631.919 "/>
<polyline clip-path="url(#clip992)" style="stroke:#000000; stroke-linecap:round; stroke-linejoin:round; stroke-width:4; stroke-opacity:1; fill:none" points="864.218,692.268 864.218,607.779 "/>
<polyline clip-path="url(#clip992)" style="stroke:#000000; stroke-linecap:round; stroke-linejoin:round; stroke-width:4; stroke-opacity:1; fill:none" points="901.788,668.128 901.788,586.321 "/>
<polyline clip-path="url(#clip992)" style="stroke:#000000; stroke-linecap:round; stroke-linejoin:round; stroke-width:4; stroke-opacity:1; fill:none" points="939.358,646.671 939.358,566.205 "/>
<polyline clip-path="url(#clip992)" style="stroke:#000000; stroke-linecap:round; stroke-linejoin:round; stroke-width:4; stroke-opacity:1; fill:none" points="976.929,626.219 976.929,547.765 "/>
<polyline clip-path="url(#clip992)" style="stroke:#000000; stroke-linecap:round; stroke-linejoin:round; stroke-width:4; stroke-opacity:1; fill:none" points="1014.5,607.444 1014.5,528.989 "/>
<polyline clip-path="url(#clip992)" style="stroke:#000000; stroke-linecap:round; stroke-linejoin:round; stroke-width:4; stroke-opacity:1; fill:none" points="1052.07,590.009 1052.07,511.555 "/>
<polyline clip-path="url(#clip992)" style="stroke:#000000; stroke-linecap:round; stroke-linejoin:round; stroke-width:4; stroke-opacity:1; fill:none" points="1089.64,572.91 1089.64,495.126 "/>
<polyline clip-path="url(#clip992)" style="stroke:#000000; stroke-linecap:round; stroke-linejoin:round; stroke-width:4; stroke-opacity:1; fill:none" points="1127.21,556.482 1127.21,479.369 "/>
<polyline clip-path="url(#clip992)" style="stroke:#000000; stroke-linecap:round; stroke-linejoin:round; stroke-width:4; stroke-opacity:1; fill:none" points="1164.78,540.724 1164.78,464.281 "/>
<polyline clip-path="url(#clip992)" style="stroke:#000000; stroke-linecap:round; stroke-linejoin:round; stroke-width:4; stroke-opacity:1; fill:none" points="1202.35,526.642 1202.35,450.2 "/>
<polyline clip-path="url(#clip992)" style="stroke:#000000; stroke-linecap:round; stroke-linejoin:round; stroke-width:4; stroke-opacity:1; fill:none" points="1239.92,512.896 1239.92,435.783 "/>
<polyline clip-path="url(#clip992)" style="stroke:#000000; stroke-linecap:round; stroke-linejoin:round; stroke-width:4; stroke-opacity:1; fill:none" points="1277.49,499.485 1277.49,422.372 "/>
<polyline clip-path="url(#clip992)" style="stroke:#000000; stroke-linecap:round; stroke-linejoin:round; stroke-width:4; stroke-opacity:1; fill:none" points="1315.06,486.409 1315.06,409.967 "/>
<polyline clip-path="url(#clip992)" style="stroke:#000000; stroke-linecap:round; stroke-linejoin:round; stroke-width:4; stroke-opacity:1; fill:none" points="1352.63,474.339 1352.63,397.897 "/>
<polyline clip-path="url(#clip992)" style="stroke:#000000; stroke-linecap:round; stroke-linejoin:round; stroke-width:4; stroke-opacity:1; fill:none" points="1390.2,462.94 1390.2,386.497 "/>
<polyline clip-path="url(#clip992)" style="stroke:#000000; stroke-linecap:round; stroke-linejoin:round; stroke-width:4; stroke-opacity:1; fill:none" points="1427.77,451.541 1427.77,375.098 "/>
<polyline clip-path="url(#clip992)" style="stroke:#000000; stroke-linecap:round; stroke-linejoin:round; stroke-width:4; stroke-opacity:1; fill:none" points="1465.34,441.147 1465.34,365.375 "/>
<polyline clip-path="url(#clip992)" style="stroke:#000000; stroke-linecap:round; stroke-linejoin:round; stroke-width:4; stroke-opacity:1; fill:none" points="1502.91,430.083 1502.91,354.982 "/>
<polyline clip-path="url(#clip992)" style="stroke:#000000; stroke-linecap:round; stroke-linejoin:round; stroke-width:4; stroke-opacity:1; fill:none" points="1540.48,420.695 1540.48,345.594 "/>
<polyline clip-path="url(#clip992)" style="stroke:#000000; stroke-linecap:round; stroke-linejoin:round; stroke-width:4; stroke-opacity:1; fill:none" points="1578.05,410.972 1578.05,336.541 "/>
<polyline clip-path="url(#clip992)" style="stroke:#000000; stroke-linecap:round; stroke-linejoin:round; stroke-width:4; stroke-opacity:1; fill:none" points="1615.63,402.255 1615.63,327.824 "/>
<polyline clip-path="url(#clip992)" style="stroke:#000000; stroke-linecap:round; stroke-linejoin:round; stroke-width:4; stroke-opacity:1; fill:none" points="1653.2,394.209 1653.2,319.778 "/>
<polyline clip-path="url(#clip992)" style="stroke:#000000; stroke-linecap:round; stroke-linejoin:round; stroke-width:4; stroke-opacity:1; fill:none" points="1690.77,385.827 1690.77,312.066 "/>
<polyline clip-path="url(#clip992)" style="stroke:#000000; stroke-linecap:round; stroke-linejoin:round; stroke-width:4; stroke-opacity:1; fill:none" points="1728.34,377.445 1728.34,304.355 "/>
<polyline clip-path="url(#clip992)" style="stroke:#000000; stroke-linecap:round; stroke-linejoin:round; stroke-width:4; stroke-opacity:1; fill:none" points="1765.91,369.734 1765.91,297.314 "/>
<polyline clip-path="url(#clip992)" style="stroke:#000000; stroke-linecap:round; stroke-linejoin:round; stroke-width:4; stroke-opacity:1; fill:none" points="1803.48,363.028 1803.48,290.609 "/>
<polyline clip-path="url(#clip992)" style="stroke:#000000; stroke-linecap:round; stroke-linejoin:round; stroke-width:4; stroke-opacity:1; fill:none" points="1841.05,355.987 1841.05,284.239 "/>
<polyline clip-path="url(#clip992)" style="stroke:#000000; stroke-linecap:round; stroke-linejoin:round; stroke-width:4; stroke-opacity:1; fill:none" points="1878.62,349.282 1878.62,277.533 "/>
<polyline clip-path="url(#clip992)" style="stroke:#000000; stroke-linecap:round; stroke-linejoin:round; stroke-width:4; stroke-opacity:1; fill:none" points="1916.19,342.912 1916.19,271.833 "/>
<polyline clip-path="url(#clip992)" style="stroke:#000000; stroke-linecap:round; stroke-linejoin:round; stroke-width:4; stroke-opacity:1; fill:none" points="1953.76,336.877 1953.76,265.798 "/>
<polyline clip-path="url(#clip992)" style="stroke:#000000; stroke-linecap:round; stroke-linejoin:round; stroke-width:4; stroke-opacity:1; fill:none" points="1991.33,331.512 1991.33,260.434 "/>
<polyline clip-path="url(#clip992)" style="stroke:#000000; stroke-linecap:round; stroke-linejoin:round; stroke-width:4; stroke-opacity:1; fill:none" points="2028.9,326.148 2028.9,255.07 "/>
<polyline clip-path="url(#clip992)" style="stroke:#000000; stroke-linecap:round; stroke-linejoin:round; stroke-width:4; stroke-opacity:1; fill:none" points="2066.47,320.784 2066.47,249.705 "/>
<polyline clip-path="url(#clip992)" style="stroke:#000000; stroke-linecap:round; stroke-linejoin:round; stroke-width:4; stroke-opacity:1; fill:none" points="2104.04,316.09 2104.04,245.011 "/>
<polyline clip-path="url(#clip992)" style="stroke:#000000; stroke-linecap:round; stroke-linejoin:round; stroke-width:4; stroke-opacity:1; fill:none" points="2141.61,311.396 2141.61,240.318 "/>
<polyline clip-path="url(#clip992)" style="stroke:#000000; stroke-linecap:round; stroke-linejoin:round; stroke-width:4; stroke-opacity:1; fill:none" points="2179.18,306.702 2179.18,235.624 "/>
<polyline clip-path="url(#clip992)" style="stroke:#000000; stroke-linecap:round; stroke-linejoin:round; stroke-width:4; stroke-opacity:1; fill:none" points="2216.75,302.008 2216.75,230.93 "/>
<polyline clip-path="url(#clip992)" style="stroke:#000000; stroke-linecap:round; stroke-linejoin:round; stroke-width:4; stroke-opacity:1; fill:none" points="2254.32,297.985 2254.32,226.907 "/>
<polyline clip-path="url(#clip992)" style="stroke:#000000; stroke-linecap:round; stroke-linejoin:round; stroke-width:4; stroke-opacity:1; fill:none" points="2291.89,293.291 2291.89,222.213 "/>
<line clip-path="url(#clip992)" x1="279.091" y1="1239.77" x2="247.091" y2="1239.77" style="stroke:#000000; stroke-width:4; stroke-opacity:1"/>
<line clip-path="url(#clip992)" x1="279.091" y1="1200.21" x2="247.091" y2="1200.21" style="stroke:#000000; stroke-width:4; stroke-opacity:1"/>
<line clip-path="url(#clip992)" x1="316.662" y1="1224.35" x2="284.662" y2="1224.35" style="stroke:#000000; stroke-width:4; stroke-opacity:1"/>
<line clip-path="url(#clip992)" x1="316.662" y1="1167.35" x2="284.662" y2="1167.35" style="stroke:#000000; stroke-width:4; stroke-opacity:1"/>
<line clip-path="url(#clip992)" x1="354.232" y1="1198.2" x2="322.232" y2="1198.2" style="stroke:#000000; stroke-width:4; stroke-opacity:1"/>
<line clip-path="url(#clip992)" x1="354.232" y1="1133.15" x2="322.232" y2="1133.15" style="stroke:#000000; stroke-width:4; stroke-opacity:1"/>
<line clip-path="url(#clip992)" x1="391.803" y1="1166.01" x2="359.803" y2="1166.01" style="stroke:#000000; stroke-width:4; stroke-opacity:1"/>
<line clip-path="url(#clip992)" x1="391.803" y1="1094.26" x2="359.803" y2="1094.26" style="stroke:#000000; stroke-width:4; stroke-opacity:1"/>
<line clip-path="url(#clip992)" x1="429.373" y1="1130.14" x2="397.373" y2="1130.14" style="stroke:#000000; stroke-width:4; stroke-opacity:1"/>
<line clip-path="url(#clip992)" x1="429.373" y1="1051.01" x2="397.373" y2="1051.01" style="stroke:#000000; stroke-width:4; stroke-opacity:1"/>
<line clip-path="url(#clip992)" x1="466.943" y1="1090.24" x2="434.943" y2="1090.24" style="stroke:#000000; stroke-width:4; stroke-opacity:1"/>
<line clip-path="url(#clip992)" x1="466.943" y1="1005.08" x2="434.943" y2="1005.08" style="stroke:#000000; stroke-width:4; stroke-opacity:1"/>
<line clip-path="url(#clip992)" x1="504.514" y1="1048.33" x2="472.514" y2="1048.33" style="stroke:#000000; stroke-width:4; stroke-opacity:1"/>
<line clip-path="url(#clip992)" x1="504.514" y1="958.476" x2="472.514" y2="958.476" style="stroke:#000000; stroke-width:4; stroke-opacity:1"/>
<line clip-path="url(#clip992)" x1="542.084" y1="1005.75" x2="510.084" y2="1005.75" style="stroke:#000000; stroke-width:4; stroke-opacity:1"/>
<line clip-path="url(#clip992)" x1="542.084" y1="912.544" x2="510.084" y2="912.544" style="stroke:#000000; stroke-width:4; stroke-opacity:1"/>
<line clip-path="url(#clip992)" x1="579.655" y1="962.164" x2="547.655" y2="962.164" style="stroke:#000000; stroke-width:4; stroke-opacity:1"/>
<line clip-path="url(#clip992)" x1="579.655" y1="867.617" x2="547.655" y2="867.617" style="stroke:#000000; stroke-width:4; stroke-opacity:1"/>
<line clip-path="url(#clip992)" x1="617.225" y1="920.926" x2="585.225" y2="920.926" style="stroke:#000000; stroke-width:4; stroke-opacity:1"/>
<line clip-path="url(#clip992)" x1="617.225" y1="825.708" x2="585.225" y2="825.708" style="stroke:#000000; stroke-width:4; stroke-opacity:1"/>
<line clip-path="url(#clip992)" x1="654.795" y1="881.028" x2="622.795" y2="881.028" style="stroke:#000000; stroke-width:4; stroke-opacity:1"/>
<line clip-path="url(#clip992)" x1="654.795" y1="786.48" x2="622.795" y2="786.48" style="stroke:#000000; stroke-width:4; stroke-opacity:1"/>
<line clip-path="url(#clip992)" x1="692.366" y1="844.483" x2="660.366" y2="844.483" style="stroke:#000000; stroke-width:4; stroke-opacity:1"/>
<line clip-path="url(#clip992)" x1="692.366" y1="749.265" x2="660.366" y2="749.265" style="stroke:#000000; stroke-width:4; stroke-opacity:1"/>
<line clip-path="url(#clip992)" x1="729.936" y1="807.938" x2="697.936" y2="807.938" style="stroke:#000000; stroke-width:4; stroke-opacity:1"/>
<line clip-path="url(#clip992)" x1="729.936" y1="716.073" x2="697.936" y2="716.073" style="stroke:#000000; stroke-width:4; stroke-opacity:1"/>
<line clip-path="url(#clip992)" x1="767.506" y1="775.752" x2="735.506" y2="775.752" style="stroke:#000000; stroke-width:4; stroke-opacity:1"/>
<line clip-path="url(#clip992)" x1="767.506" y1="685.227" x2="735.506" y2="685.227" style="stroke:#000000; stroke-width:4; stroke-opacity:1"/>
<line clip-path="url(#clip992)" x1="805.077" y1="745.912" x2="773.077" y2="745.912" style="stroke:#000000; stroke-width:4; stroke-opacity:1"/>
<line clip-path="url(#clip992)" x1="805.077" y1="657.4" x2="773.077" y2="657.4" style="stroke:#000000; stroke-width:4; stroke-opacity:1"/>
<line clip-path="url(#clip992)" x1="842.647" y1="717.749" x2="810.647" y2="717.749" style="stroke:#000000; stroke-width:4; stroke-opacity:1"/>
<line clip-path="url(#clip992)" x1="842.647" y1="631.919" x2="810.647" y2="631.919" style="stroke:#000000; stroke-width:4; stroke-opacity:1"/>
<line clip-path="url(#clip992)" x1="880.218" y1="692.268" x2="848.218" y2="692.268" style="stroke:#000000; stroke-width:4; stroke-opacity:1"/>
<line clip-path="url(#clip992)" x1="880.218" y1="607.779" x2="848.218" y2="607.779" style="stroke:#000000; stroke-width:4; stroke-opacity:1"/>
<line clip-path="url(#clip992)" x1="917.788" y1="668.128" x2="885.788" y2="668.128" style="stroke:#000000; stroke-width:4; stroke-opacity:1"/>
<line clip-path="url(#clip992)" x1="917.788" y1="586.321" x2="885.788" y2="586.321" style="stroke:#000000; stroke-width:4; stroke-opacity:1"/>
<line clip-path="url(#clip992)" x1="955.358" y1="646.671" x2="923.358" y2="646.671" style="stroke:#000000; stroke-width:4; stroke-opacity:1"/>
<line clip-path="url(#clip992)" x1="955.358" y1="566.205" x2="923.358" y2="566.205" style="stroke:#000000; stroke-width:4; stroke-opacity:1"/>
<line clip-path="url(#clip992)" x1="992.929" y1="626.219" x2="960.929" y2="626.219" style="stroke:#000000; stroke-width:4; stroke-opacity:1"/>
<line clip-path="url(#clip992)" x1="992.929" y1="547.765" x2="960.929" y2="547.765" style="stroke:#000000; stroke-width:4; stroke-opacity:1"/>
<line clip-path="url(#clip992)" x1="1030.5" y1="607.444" x2="998.499" y2="607.444" style="stroke:#000000; stroke-width:4; stroke-opacity:1"/>
<line clip-path="url(#clip992)" x1="1030.5" y1="528.989" x2="998.499" y2="528.989" style="stroke:#000000; stroke-width:4; stroke-opacity:1"/>
<line clip-path="url(#clip992)" x1="1068.07" y1="590.009" x2="1036.07" y2="590.009" style="stroke:#000000; stroke-width:4; stroke-opacity:1"/>
<line clip-path="url(#clip992)" x1="1068.07" y1="511.555" x2="1036.07" y2="511.555" style="stroke:#000000; stroke-width:4; stroke-opacity:1"/>
<line clip-path="url(#clip992)" x1="1105.64" y1="572.91" x2="1073.64" y2="572.91" style="stroke:#000000; stroke-width:4; stroke-opacity:1"/>
<line clip-path="url(#clip992)" x1="1105.64" y1="495.126" x2="1073.64" y2="495.126" style="stroke:#000000; stroke-width:4; stroke-opacity:1"/>
<line clip-path="url(#clip992)" x1="1143.21" y1="556.482" x2="1111.21" y2="556.482" style="stroke:#000000; stroke-width:4; stroke-opacity:1"/>
<line clip-path="url(#clip992)" x1="1143.21" y1="479.369" x2="1111.21" y2="479.369" style="stroke:#000000; stroke-width:4; stroke-opacity:1"/>
<line clip-path="url(#clip992)" x1="1180.78" y1="540.724" x2="1148.78" y2="540.724" style="stroke:#000000; stroke-width:4; stroke-opacity:1"/>
<line clip-path="url(#clip992)" x1="1180.78" y1="464.281" x2="1148.78" y2="464.281" style="stroke:#000000; stroke-width:4; stroke-opacity:1"/>
<line clip-path="url(#clip992)" x1="1218.35" y1="526.642" x2="1186.35" y2="526.642" style="stroke:#000000; stroke-width:4; stroke-opacity:1"/>
<line clip-path="url(#clip992)" x1="1218.35" y1="450.2" x2="1186.35" y2="450.2" style="stroke:#000000; stroke-width:4; stroke-opacity:1"/>
<line clip-path="url(#clip992)" x1="1255.92" y1="512.896" x2="1223.92" y2="512.896" style="stroke:#000000; stroke-width:4; stroke-opacity:1"/>
<line clip-path="url(#clip992)" x1="1255.92" y1="435.783" x2="1223.92" y2="435.783" style="stroke:#000000; stroke-width:4; stroke-opacity:1"/>
<line clip-path="url(#clip992)" x1="1293.49" y1="499.485" x2="1261.49" y2="499.485" style="stroke:#000000; stroke-width:4; stroke-opacity:1"/>
<line clip-path="url(#clip992)" x1="1293.49" y1="422.372" x2="1261.49" y2="422.372" style="stroke:#000000; stroke-width:4; stroke-opacity:1"/>
<line clip-path="url(#clip992)" x1="1331.06" y1="486.409" x2="1299.06" y2="486.409" style="stroke:#000000; stroke-width:4; stroke-opacity:1"/>
<line clip-path="url(#clip992)" x1="1331.06" y1="409.967" x2="1299.06" y2="409.967" style="stroke:#000000; stroke-width:4; stroke-opacity:1"/>
<line clip-path="url(#clip992)" x1="1368.63" y1="474.339" x2="1336.63" y2="474.339" style="stroke:#000000; stroke-width:4; stroke-opacity:1"/>
<line clip-path="url(#clip992)" x1="1368.63" y1="397.897" x2="1336.63" y2="397.897" style="stroke:#000000; stroke-width:4; stroke-opacity:1"/>
<line clip-path="url(#clip992)" x1="1406.2" y1="462.94" x2="1374.2" y2="462.94" style="stroke:#000000; stroke-width:4; stroke-opacity:1"/>
<line clip-path="url(#clip992)" x1="1406.2" y1="386.497" x2="1374.2" y2="386.497" style="stroke:#000000; stroke-width:4; stroke-opacity:1"/>
<line clip-path="url(#clip992)" x1="1443.77" y1="451.541" x2="1411.77" y2="451.541" style="stroke:#000000; stroke-width:4; stroke-opacity:1"/>
<line clip-path="url(#clip992)" x1="1443.77" y1="375.098" x2="1411.77" y2="375.098" style="stroke:#000000; stroke-width:4; stroke-opacity:1"/>
<line clip-path="url(#clip992)" x1="1481.34" y1="441.147" x2="1449.34" y2="441.147" style="stroke:#000000; stroke-width:4; stroke-opacity:1"/>
<line clip-path="url(#clip992)" x1="1481.34" y1="365.375" x2="1449.34" y2="365.375" style="stroke:#000000; stroke-width:4; stroke-opacity:1"/>
<line clip-path="url(#clip992)" x1="1518.91" y1="430.083" x2="1486.91" y2="430.083" style="stroke:#000000; stroke-width:4; stroke-opacity:1"/>
<line clip-path="url(#clip992)" x1="1518.91" y1="354.982" x2="1486.91" y2="354.982" style="stroke:#000000; stroke-width:4; stroke-opacity:1"/>
<line clip-path="url(#clip992)" x1="1556.48" y1="420.695" x2="1524.48" y2="420.695" style="stroke:#000000; stroke-width:4; stroke-opacity:1"/>
<line clip-path="url(#clip992)" x1="1556.48" y1="345.594" x2="1524.48" y2="345.594" style="stroke:#000000; stroke-width:4; stroke-opacity:1"/>
<line clip-path="url(#clip992)" x1="1594.05" y1="410.972" x2="1562.05" y2="410.972" style="stroke:#000000; stroke-width:4; stroke-opacity:1"/>
<line clip-path="url(#clip992)" x1="1594.05" y1="336.541" x2="1562.05" y2="336.541" style="stroke:#000000; stroke-width:4; stroke-opacity:1"/>
<line clip-path="url(#clip992)" x1="1631.63" y1="402.255" x2="1599.63" y2="402.255" style="stroke:#000000; stroke-width:4; stroke-opacity:1"/>
<line clip-path="url(#clip992)" x1="1631.63" y1="327.824" x2="1599.63" y2="327.824" style="stroke:#000000; stroke-width:4; stroke-opacity:1"/>
<line clip-path="url(#clip992)" x1="1669.2" y1="394.209" x2="1637.2" y2="394.209" style="stroke:#000000; stroke-width:4; stroke-opacity:1"/>
<line clip-path="url(#clip992)" x1="1669.2" y1="319.778" x2="1637.2" y2="319.778" style="stroke:#000000; stroke-width:4; stroke-opacity:1"/>
<line clip-path="url(#clip992)" x1="1706.77" y1="385.827" x2="1674.77" y2="385.827" style="stroke:#000000; stroke-width:4; stroke-opacity:1"/>
<line clip-path="url(#clip992)" x1="1706.77" y1="312.066" x2="1674.77" y2="312.066" style="stroke:#000000; stroke-width:4; stroke-opacity:1"/>
<line clip-path="url(#clip992)" x1="1744.34" y1="377.445" x2="1712.34" y2="377.445" style="stroke:#000000; stroke-width:4; stroke-opacity:1"/>
<line clip-path="url(#clip992)" x1="1744.34" y1="304.355" x2="1712.34" y2="304.355" style="stroke:#000000; stroke-width:4; stroke-opacity:1"/>
<line clip-path="url(#clip992)" x1="1781.91" y1="369.734" x2="1749.91" y2="369.734" style="stroke:#000000; stroke-width:4; stroke-opacity:1"/>
<line clip-path="url(#clip992)" x1="1781.91" y1="297.314" x2="1749.91" y2="297.314" style="stroke:#000000; stroke-width:4; stroke-opacity:1"/>
<line clip-path="url(#clip992)" x1="1819.48" y1="363.028" x2="1787.48" y2="363.028" style="stroke:#000000; stroke-width:4; stroke-opacity:1"/>
<line clip-path="url(#clip992)" x1="1819.48" y1="290.609" x2="1787.48" y2="290.609" style="stroke:#000000; stroke-width:4; stroke-opacity:1"/>
<line clip-path="url(#clip992)" x1="1857.05" y1="355.987" x2="1825.05" y2="355.987" style="stroke:#000000; stroke-width:4; stroke-opacity:1"/>
<line clip-path="url(#clip992)" x1="1857.05" y1="284.239" x2="1825.05" y2="284.239" style="stroke:#000000; stroke-width:4; stroke-opacity:1"/>
<line clip-path="url(#clip992)" x1="1894.62" y1="349.282" x2="1862.62" y2="349.282" style="stroke:#000000; stroke-width:4; stroke-opacity:1"/>
<line clip-path="url(#clip992)" x1="1894.62" y1="277.533" x2="1862.62" y2="277.533" style="stroke:#000000; stroke-width:4; stroke-opacity:1"/>
<line clip-path="url(#clip992)" x1="1932.19" y1="342.912" x2="1900.19" y2="342.912" style="stroke:#000000; stroke-width:4; stroke-opacity:1"/>
<line clip-path="url(#clip992)" x1="1932.19" y1="271.833" x2="1900.19" y2="271.833" style="stroke:#000000; stroke-width:4; stroke-opacity:1"/>
<line clip-path="url(#clip992)" x1="1969.76" y1="336.877" x2="1937.76" y2="336.877" style="stroke:#000000; stroke-width:4; stroke-opacity:1"/>
<line clip-path="url(#clip992)" x1="1969.76" y1="265.798" x2="1937.76" y2="265.798" style="stroke:#000000; stroke-width:4; stroke-opacity:1"/>
<line clip-path="url(#clip992)" x1="2007.33" y1="331.512" x2="1975.33" y2="331.512" style="stroke:#000000; stroke-width:4; stroke-opacity:1"/>
<line clip-path="url(#clip992)" x1="2007.33" y1="260.434" x2="1975.33" y2="260.434" style="stroke:#000000; stroke-width:4; stroke-opacity:1"/>
<line clip-path="url(#clip992)" x1="2044.9" y1="326.148" x2="2012.9" y2="326.148" style="stroke:#000000; stroke-width:4; stroke-opacity:1"/>
<line clip-path="url(#clip992)" x1="2044.9" y1="255.07" x2="2012.9" y2="255.07" style="stroke:#000000; stroke-width:4; stroke-opacity:1"/>
<line clip-path="url(#clip992)" x1="2082.47" y1="320.784" x2="2050.47" y2="320.784" style="stroke:#000000; stroke-width:4; stroke-opacity:1"/>
<line clip-path="url(#clip992)" x1="2082.47" y1="249.705" x2="2050.47" y2="249.705" style="stroke:#000000; stroke-width:4; stroke-opacity:1"/>
<line clip-path="url(#clip992)" x1="2120.04" y1="316.09" x2="2088.04" y2="316.09" style="stroke:#000000; stroke-width:4; stroke-opacity:1"/>
<line clip-path="url(#clip992)" x1="2120.04" y1="245.011" x2="2088.04" y2="245.011" style="stroke:#000000; stroke-width:4; stroke-opacity:1"/>
<line clip-path="url(#clip992)" x1="2157.61" y1="311.396" x2="2125.61" y2="311.396" style="stroke:#000000; stroke-width:4; stroke-opacity:1"/>
<line clip-path="url(#clip992)" x1="2157.61" y1="240.318" x2="2125.61" y2="240.318" style="stroke:#000000; stroke-width:4; stroke-opacity:1"/>
<line clip-path="url(#clip992)" x1="2195.18" y1="306.702" x2="2163.18" y2="306.702" style="stroke:#000000; stroke-width:4; stroke-opacity:1"/>
<line clip-path="url(#clip992)" x1="2195.18" y1="235.624" x2="2163.18" y2="235.624" style="stroke:#000000; stroke-width:4; stroke-opacity:1"/>
<line clip-path="url(#clip992)" x1="2232.75" y1="302.008" x2="2200.75" y2="302.008" style="stroke:#000000; stroke-width:4; stroke-opacity:1"/>
<line clip-path="url(#clip992)" x1="2232.75" y1="230.93" x2="2200.75" y2="230.93" style="stroke:#000000; stroke-width:4; stroke-opacity:1"/>
<line clip-path="url(#clip992)" x1="2270.32" y1="297.985" x2="2238.32" y2="297.985" style="stroke:#000000; stroke-width:4; stroke-opacity:1"/>
<line clip-path="url(#clip992)" x1="2270.32" y1="226.907" x2="2238.32" y2="226.907" style="stroke:#000000; stroke-width:4; stroke-opacity:1"/>
<line clip-path="url(#clip992)" x1="2307.89" y1="293.291" x2="2275.89" y2="293.291" style="stroke:#000000; stroke-width:4; stroke-opacity:1"/>
<line clip-path="url(#clip992)" x1="2307.89" y1="222.213" x2="2275.89" y2="222.213" style="stroke:#000000; stroke-width:4; stroke-opacity:1"/>
<circle clip-path="url(#clip992)" cx="263.091" cy="1219.99" r="14.4" fill="#009af9" fill-rule="evenodd" fill-opacity="1" stroke="#000000" stroke-opacity="1" stroke-width="3.2"/>
<circle clip-path="url(#clip992)" cx="300.662" cy="1195.85" r="14.4" fill="#009af9" fill-rule="evenodd" fill-opacity="1" stroke="#000000" stroke-opacity="1" stroke-width="3.2"/>
<circle clip-path="url(#clip992)" cx="338.232" cy="1165.68" r="14.4" fill="#009af9" fill-rule="evenodd" fill-opacity="1" stroke="#000000" stroke-opacity="1" stroke-width="3.2"/>
<circle clip-path="url(#clip992)" cx="375.803" cy="1130.14" r="14.4" fill="#009af9" fill-rule="evenodd" fill-opacity="1" stroke="#000000" stroke-opacity="1" stroke-width="3.2"/>
<circle clip-path="url(#clip992)" cx="413.373" cy="1090.57" r="14.4" fill="#009af9" fill-rule="evenodd" fill-opacity="1" stroke="#000000" stroke-opacity="1" stroke-width="3.2"/>
<circle clip-path="url(#clip992)" cx="450.943" cy="1047.66" r="14.4" fill="#009af9" fill-rule="evenodd" fill-opacity="1" stroke="#000000" stroke-opacity="1" stroke-width="3.2"/>
<circle clip-path="url(#clip992)" cx="488.514" cy="1003.4" r="14.4" fill="#009af9" fill-rule="evenodd" fill-opacity="1" stroke="#000000" stroke-opacity="1" stroke-width="3.2"/>
<circle clip-path="url(#clip992)" cx="526.084" cy="959.147" r="14.4" fill="#009af9" fill-rule="evenodd" fill-opacity="1" stroke="#000000" stroke-opacity="1" stroke-width="3.2"/>
<circle clip-path="url(#clip992)" cx="563.655" cy="914.891" r="14.4" fill="#009af9" fill-rule="evenodd" fill-opacity="1" stroke="#000000" stroke-opacity="1" stroke-width="3.2"/>
<circle clip-path="url(#clip992)" cx="601.225" cy="873.317" r="14.4" fill="#009af9" fill-rule="evenodd" fill-opacity="1" stroke="#000000" stroke-opacity="1" stroke-width="3.2"/>
<circle clip-path="url(#clip992)" cx="638.795" cy="833.754" r="14.4" fill="#009af9" fill-rule="evenodd" fill-opacity="1" stroke="#000000" stroke-opacity="1" stroke-width="3.2"/>
<circle clip-path="url(#clip992)" cx="676.366" cy="796.874" r="14.4" fill="#009af9" fill-rule="evenodd" fill-opacity="1" stroke="#000000" stroke-opacity="1" stroke-width="3.2"/>
<circle clip-path="url(#clip992)" cx="713.936" cy="762.005" r="14.4" fill="#009af9" fill-rule="evenodd" fill-opacity="1" stroke="#000000" stroke-opacity="1" stroke-width="3.2"/>
<circle clip-path="url(#clip992)" cx="751.506" cy="730.489" r="14.4" fill="#009af9" fill-rule="evenodd" fill-opacity="1" stroke="#000000" stroke-opacity="1" stroke-width="3.2"/>
<circle clip-path="url(#clip992)" cx="789.077" cy="701.656" r="14.4" fill="#009af9" fill-rule="evenodd" fill-opacity="1" stroke="#000000" stroke-opacity="1" stroke-width="3.2"/>
<circle clip-path="url(#clip992)" cx="826.647" cy="674.834" r="14.4" fill="#009af9" fill-rule="evenodd" fill-opacity="1" stroke="#000000" stroke-opacity="1" stroke-width="3.2"/>
<circle clip-path="url(#clip992)" cx="864.218" cy="650.023" r="14.4" fill="#009af9" fill-rule="evenodd" fill-opacity="1" stroke="#000000" stroke-opacity="1" stroke-width="3.2"/>
<circle clip-path="url(#clip992)" cx="901.788" cy="627.225" r="14.4" fill="#009af9" fill-rule="evenodd" fill-opacity="1" stroke="#000000" stroke-opacity="1" stroke-width="3.2"/>
<circle clip-path="url(#clip992)" cx="939.358" cy="606.438" r="14.4" fill="#009af9" fill-rule="evenodd" fill-opacity="1" stroke="#000000" stroke-opacity="1" stroke-width="3.2"/>
<circle clip-path="url(#clip992)" cx="976.929" cy="586.992" r="14.4" fill="#009af9" fill-rule="evenodd" fill-opacity="1" stroke="#000000" stroke-opacity="1" stroke-width="3.2"/>
<circle clip-path="url(#clip992)" cx="1014.5" cy="568.216" r="14.4" fill="#009af9" fill-rule="evenodd" fill-opacity="1" stroke="#000000" stroke-opacity="1" stroke-width="3.2"/>
<circle clip-path="url(#clip992)" cx="1052.07" cy="550.782" r="14.4" fill="#009af9" fill-rule="evenodd" fill-opacity="1" stroke="#000000" stroke-opacity="1" stroke-width="3.2"/>
<circle clip-path="url(#clip992)" cx="1089.64" cy="534.018" r="14.4" fill="#009af9" fill-rule="evenodd" fill-opacity="1" stroke="#000000" stroke-opacity="1" stroke-width="3.2"/>
<circle clip-path="url(#clip992)" cx="1127.21" cy="517.925" r="14.4" fill="#009af9" fill-rule="evenodd" fill-opacity="1" stroke="#000000" stroke-opacity="1" stroke-width="3.2"/>
<circle clip-path="url(#clip992)" cx="1164.78" cy="502.503" r="14.4" fill="#009af9" fill-rule="evenodd" fill-opacity="1" stroke="#000000" stroke-opacity="1" stroke-width="3.2"/>
<circle clip-path="url(#clip992)" cx="1202.35" cy="488.421" r="14.4" fill="#009af9" fill-rule="evenodd" fill-opacity="1" stroke="#000000" stroke-opacity="1" stroke-width="3.2"/>
<circle clip-path="url(#clip992)" cx="1239.92" cy="474.339" r="14.4" fill="#009af9" fill-rule="evenodd" fill-opacity="1" stroke="#000000" stroke-opacity="1" stroke-width="3.2"/>
<circle clip-path="url(#clip992)" cx="1277.49" cy="460.928" r="14.4" fill="#009af9" fill-rule="evenodd" fill-opacity="1" stroke="#000000" stroke-opacity="1" stroke-width="3.2"/>
<circle clip-path="url(#clip992)" cx="1315.06" cy="448.188" r="14.4" fill="#009af9" fill-rule="evenodd" fill-opacity="1" stroke="#000000" stroke-opacity="1" stroke-width="3.2"/>
<circle clip-path="url(#clip992)" cx="1352.63" cy="436.118" r="14.4" fill="#009af9" fill-rule="evenodd" fill-opacity="1" stroke="#000000" stroke-opacity="1" stroke-width="3.2"/>
<circle clip-path="url(#clip992)" cx="1390.2" cy="424.719" r="14.4" fill="#009af9" fill-rule="evenodd" fill-opacity="1" stroke="#000000" stroke-opacity="1" stroke-width="3.2"/>
<circle clip-path="url(#clip992)" cx="1427.77" cy="413.319" r="14.4" fill="#009af9" fill-rule="evenodd" fill-opacity="1" stroke="#000000" stroke-opacity="1" stroke-width="3.2"/>
<circle clip-path="url(#clip992)" cx="1465.34" cy="403.261" r="14.4" fill="#009af9" fill-rule="evenodd" fill-opacity="1" stroke="#000000" stroke-opacity="1" stroke-width="3.2"/>
<circle clip-path="url(#clip992)" cx="1502.91" cy="392.532" r="14.4" fill="#009af9" fill-rule="evenodd" fill-opacity="1" stroke="#000000" stroke-opacity="1" stroke-width="3.2"/>
<circle clip-path="url(#clip992)" cx="1540.48" cy="383.145" r="14.4" fill="#009af9" fill-rule="evenodd" fill-opacity="1" stroke="#000000" stroke-opacity="1" stroke-width="3.2"/>
<circle clip-path="url(#clip992)" cx="1578.05" cy="373.757" r="14.4" fill="#009af9" fill-rule="evenodd" fill-opacity="1" stroke="#000000" stroke-opacity="1" stroke-width="3.2"/>
<circle clip-path="url(#clip992)" cx="1615.63" cy="365.04" r="14.4" fill="#009af9" fill-rule="evenodd" fill-opacity="1" stroke="#000000" stroke-opacity="1" stroke-width="3.2"/>
<circle clip-path="url(#clip992)" cx="1653.2" cy="356.993" r="14.4" fill="#009af9" fill-rule="evenodd" fill-opacity="1" stroke="#000000" stroke-opacity="1" stroke-width="3.2"/>
<circle clip-path="url(#clip992)" cx="1690.77" cy="348.947" r="14.4" fill="#009af9" fill-rule="evenodd" fill-opacity="1" stroke="#000000" stroke-opacity="1" stroke-width="3.2"/>
<circle clip-path="url(#clip992)" cx="1728.34" cy="340.9" r="14.4" fill="#009af9" fill-rule="evenodd" fill-opacity="1" stroke="#000000" stroke-opacity="1" stroke-width="3.2"/>
<circle clip-path="url(#clip992)" cx="1765.91" cy="333.524" r="14.4" fill="#009af9" fill-rule="evenodd" fill-opacity="1" stroke="#000000" stroke-opacity="1" stroke-width="3.2"/>
<circle clip-path="url(#clip992)" cx="1803.48" cy="326.818" r="14.4" fill="#009af9" fill-rule="evenodd" fill-opacity="1" stroke="#000000" stroke-opacity="1" stroke-width="3.2"/>
<circle clip-path="url(#clip992)" cx="1841.05" cy="320.113" r="14.4" fill="#009af9" fill-rule="evenodd" fill-opacity="1" stroke="#000000" stroke-opacity="1" stroke-width="3.2"/>
<circle clip-path="url(#clip992)" cx="1878.62" cy="313.407" r="14.4" fill="#009af9" fill-rule="evenodd" fill-opacity="1" stroke="#000000" stroke-opacity="1" stroke-width="3.2"/>
<circle clip-path="url(#clip992)" cx="1916.19" cy="307.373" r="14.4" fill="#009af9" fill-rule="evenodd" fill-opacity="1" stroke="#000000" stroke-opacity="1" stroke-width="3.2"/>
<circle clip-path="url(#clip992)" cx="1953.76" cy="301.338" r="14.4" fill="#009af9" fill-rule="evenodd" fill-opacity="1" stroke="#000000" stroke-opacity="1" stroke-width="3.2"/>
<circle clip-path="url(#clip992)" cx="1991.33" cy="295.973" r="14.4" fill="#009af9" fill-rule="evenodd" fill-opacity="1" stroke="#000000" stroke-opacity="1" stroke-width="3.2"/>
<circle clip-path="url(#clip992)" cx="2028.9" cy="290.609" r="14.4" fill="#009af9" fill-rule="evenodd" fill-opacity="1" stroke="#000000" stroke-opacity="1" stroke-width="3.2"/>
<circle clip-path="url(#clip992)" cx="2066.47" cy="285.244" r="14.4" fill="#009af9" fill-rule="evenodd" fill-opacity="1" stroke="#000000" stroke-opacity="1" stroke-width="3.2"/>
<circle clip-path="url(#clip992)" cx="2104.04" cy="280.551" r="14.4" fill="#009af9" fill-rule="evenodd" fill-opacity="1" stroke="#000000" stroke-opacity="1" stroke-width="3.2"/>
<circle clip-path="url(#clip992)" cx="2141.61" cy="275.857" r="14.4" fill="#009af9" fill-rule="evenodd" fill-opacity="1" stroke="#000000" stroke-opacity="1" stroke-width="3.2"/>
<circle clip-path="url(#clip992)" cx="2179.18" cy="271.163" r="14.4" fill="#009af9" fill-rule="evenodd" fill-opacity="1" stroke="#000000" stroke-opacity="1" stroke-width="3.2"/>
<circle clip-path="url(#clip992)" cx="2216.75" cy="266.469" r="14.4" fill="#009af9" fill-rule="evenodd" fill-opacity="1" stroke="#000000" stroke-opacity="1" stroke-width="3.2"/>
<circle clip-path="url(#clip992)" cx="2254.32" cy="262.446" r="14.4" fill="#009af9" fill-rule="evenodd" fill-opacity="1" stroke="#000000" stroke-opacity="1" stroke-width="3.2"/>
<circle clip-path="url(#clip992)" cx="2291.89" cy="257.752" r="14.4" fill="#009af9" fill-rule="evenodd" fill-opacity="1" stroke="#000000" stroke-opacity="1" stroke-width="3.2"/>
<polyline clip-path="url(#clip992)" style="stroke:#e26f46; stroke-linecap:round; stroke-linejoin:round; stroke-width:8; stroke-opacity:1; fill:none" points="263.091,1386.4 300.662,1379.07 338.232,1368.68 375.803,1353.29 413.373,1328.86 450.943,1286.22 488.514,1209.35 526.084,1099.38 563.655,982.444 601.225,886.034 638.795,820.899 676.366,772.446 713.936,731.779 751.506,695.668 789.077,662.767 826.647,632.386 864.218,604.105 901.788,577.638 939.358,552.773 976.929,529.347 1014.5,507.23 1052.07,486.318 1089.64,466.521 1127.21,447.765 1164.78,429.985 1202.35,413.124 1239.92,397.131 1277.49,381.959 1315.06,367.561 1352.63,353.897 1390.2,340.927 1427.77,328.61 1465.34,316.911 1502.91,305.794 1540.48,295.225 1578.05,285.17 1615.63,275.599 1653.2,266.483 1690.77,257.794 1728.34,249.507 1765.91,241.596 1803.48,234.04 1841.05,226.817 1878.62,219.907 1916.19,213.294 1953.76,206.959 1991.33,200.887 2028.9,195.064 2066.47,189.476 2104.04,184.111 2141.61,178.958 2179.18,174.005 2216.75,169.243 2254.32,164.663 2291.89,160.256 "/>
<path clip-path="url(#clip990)" d="M1790.21 1379.86 L2281.07 1379.86 L2281.07 1224.34 L1790.21 1224.34  Z" fill="#ffffff" fill-rule="evenodd" fill-opacity="1"/>
<polyline clip-path="url(#clip990)" style="stroke:#000000; stroke-linecap:round; stroke-linejoin:round; stroke-width:4; stroke-opacity:1; fill:none" points="1790.21,1379.86 2281.07,1379.86 2281.07,1224.34 1790.21,1224.34 1790.21,1379.86 "/>
<circle clip-path="url(#clip990)" cx="1885.79" cy="1276.18" r="20.48" fill="#009af9" fill-rule="evenodd" fill-opacity="1" stroke="#000000" stroke-opacity="1" stroke-width="4.55111"/>
<path clip-path="url(#clip990)" d="M1981.37 1258.9 L1986.04 1258.9 L1986.04 1289.52 L2002.87 1289.52 L2002.87 1293.46 L1981.37 1293.46 L1981.37 1258.9 Z" fill="#000000" fill-rule="nonzero" fill-opacity="1" /><path clip-path="url(#clip990)" d="M2021.81 1262.07 Q2016.72 1262.07 2013.71 1265.86 Q2010.72 1269.66 2010.72 1276.21 Q2010.72 1282.74 2013.71 1286.53 Q2016.72 1290.33 2021.81 1290.33 Q2026.9 1290.33 2029.86 1286.53 Q2032.85 1282.74 2032.85 1276.21 Q2032.85 1269.66 2029.86 1265.86 Q2026.9 1262.07 2021.81 1262.07 M2028.36 1292.83 L2034.52 1299.57 L2028.87 1299.57 L2023.75 1294.03 Q2022.99 1294.08 2022.57 1294.1 Q2022.18 1294.13 2021.81 1294.13 Q2014.52 1294.13 2010.14 1289.27 Q2005.79 1284.38 2005.79 1276.21 Q2005.79 1268.02 2010.14 1263.16 Q2014.52 1258.27 2021.81 1258.27 Q2029.08 1258.27 2033.43 1263.16 Q2037.78 1268.02 2037.78 1276.21 Q2037.78 1282.23 2035.35 1286.51 Q2032.94 1290.79 2028.36 1292.83 Z" fill="#000000" fill-rule="nonzero" fill-opacity="1" /><path clip-path="url(#clip990)" d="M2070.97 1261.56 L2070.97 1266.49 Q2068.61 1264.29 2065.93 1263.2 Q2063.27 1262.11 2060.26 1262.11 Q2054.33 1262.11 2051.18 1265.75 Q2048.03 1269.36 2048.03 1276.21 Q2048.03 1283.04 2051.18 1286.67 Q2054.33 1290.28 2060.26 1290.28 Q2063.27 1290.28 2065.93 1289.2 Q2068.61 1288.11 2070.97 1285.91 L2070.97 1290.79 Q2068.52 1292.46 2065.77 1293.29 Q2063.03 1294.13 2059.98 1294.13 Q2052.13 1294.13 2047.62 1289.34 Q2043.1 1284.52 2043.1 1276.21 Q2043.1 1267.88 2047.62 1263.09 Q2052.13 1258.27 2059.98 1258.27 Q2063.08 1258.27 2065.81 1259.1 Q2068.57 1259.91 2070.97 1261.56 Z" fill="#000000" fill-rule="nonzero" fill-opacity="1" /><path clip-path="url(#clip990)" d="M2082.87 1262.74 L2082.87 1289.61 L2088.52 1289.61 Q2095.67 1289.61 2098.98 1286.37 Q2102.32 1283.13 2102.32 1276.14 Q2102.32 1269.2 2098.98 1265.98 Q2095.67 1262.74 2088.52 1262.74 L2082.87 1262.74 M2078.2 1258.9 L2087.8 1258.9 Q2097.85 1258.9 2102.55 1263.09 Q2107.25 1267.25 2107.25 1276.14 Q2107.25 1285.08 2102.52 1289.27 Q2097.8 1293.46 2087.8 1293.46 L2078.2 1293.46 L2078.2 1258.9 Z" fill="#000000" fill-rule="nonzero" fill-opacity="1" /><polyline clip-path="url(#clip990)" style="stroke:#e26f46; stroke-linecap:round; stroke-linejoin:round; stroke-width:8; stroke-opacity:1; fill:none" points="1814.1,1328.02 1957.47,1328.02 "/>
<path clip-path="url(#clip990)" d="M1981.37 1309.28 L1985.63 1309.28 L1985.63 1345.3 L1981.37 1345.3 L1981.37 1309.28 Z" fill="#000000" fill-rule="nonzero" fill-opacity="1" /><path clip-path="url(#clip990)" d="M2004.59 1322.36 Q2001.16 1322.36 1999.17 1325.04 Q1997.18 1327.7 1997.18 1332.36 Q1997.18 1337.01 1999.15 1339.69 Q2001.14 1342.36 2004.59 1342.36 Q2007.99 1342.36 2009.98 1339.67 Q2011.97 1336.99 2011.97 1332.36 Q2011.97 1327.75 2009.98 1325.06 Q2007.99 1322.36 2004.59 1322.36 M2004.59 1318.75 Q2010.14 1318.75 2013.31 1322.36 Q2016.48 1325.97 2016.48 1332.36 Q2016.48 1338.72 2013.31 1342.36 Q2010.14 1345.97 2004.59 1345.97 Q1999.01 1345.97 1995.84 1342.36 Q1992.69 1338.72 1992.69 1332.36 Q1992.69 1325.97 1995.84 1322.36 Q1999.01 1318.75 2004.59 1318.75 Z" fill="#000000" fill-rule="nonzero" fill-opacity="1" /><path clip-path="url(#clip990)" d="M2040.6 1332.03 Q2040.6 1327.4 2038.68 1324.86 Q2036.78 1322.31 2033.34 1322.31 Q2029.91 1322.31 2027.99 1324.86 Q2026.09 1327.4 2026.09 1332.03 Q2026.09 1336.64 2027.99 1339.19 Q2029.91 1341.73 2033.34 1341.73 Q2036.78 1341.73 2038.68 1339.19 Q2040.6 1336.64 2040.6 1332.03 M2044.86 1342.08 Q2044.86 1348.7 2041.92 1351.92 Q2038.98 1355.16 2032.92 1355.16 Q2030.67 1355.16 2028.68 1354.81 Q2026.69 1354.49 2024.82 1353.79 L2024.82 1349.65 Q2026.69 1350.67 2028.52 1351.15 Q2030.35 1351.64 2032.25 1351.64 Q2036.44 1351.64 2038.52 1349.44 Q2040.6 1347.26 2040.6 1342.84 L2040.6 1340.74 Q2039.28 1343.03 2037.22 1344.16 Q2035.16 1345.3 2032.29 1345.3 Q2027.53 1345.3 2024.61 1341.66 Q2021.69 1338.03 2021.69 1332.03 Q2021.69 1326.01 2024.61 1322.38 Q2027.53 1318.75 2032.29 1318.75 Q2035.16 1318.75 2037.22 1319.88 Q2039.28 1321.01 2040.6 1323.31 L2040.6 1319.37 L2044.86 1319.37 L2044.86 1342.08 Z" fill="#000000" fill-rule="nonzero" fill-opacity="1" /><path clip-path="url(#clip990)" d="M2068.36 1310.74 L2073.06 1310.74 L2073.06 1331.73 Q2073.06 1337.29 2075.07 1339.74 Q2077.09 1342.17 2081.6 1342.17 Q2086.09 1342.17 2088.1 1339.74 Q2090.12 1337.29 2090.12 1331.73 L2090.12 1310.74 L2094.82 1310.74 L2094.82 1332.31 Q2094.82 1339.07 2091.46 1342.52 Q2088.13 1345.97 2081.6 1345.97 Q2075.05 1345.97 2071.69 1342.52 Q2068.36 1339.07 2068.36 1332.31 L2068.36 1310.74 Z" fill="#000000" fill-rule="nonzero" fill-opacity="1" /><path clip-path="url(#clip990)" d="M2138.66 1324.35 Q2140.26 1321.48 2142.48 1320.11 Q2144.7 1318.75 2147.71 1318.75 Q2151.76 1318.75 2153.96 1321.59 Q2156.16 1324.42 2156.16 1329.65 L2156.16 1345.3 L2151.88 1345.3 L2151.88 1329.79 Q2151.88 1326.06 2150.56 1324.25 Q2149.24 1322.45 2146.53 1322.45 Q2143.22 1322.45 2141.3 1324.65 Q2139.38 1326.85 2139.38 1330.64 L2139.38 1345.3 L2135.09 1345.3 L2135.09 1329.79 Q2135.09 1326.04 2133.77 1324.25 Q2132.46 1322.45 2129.7 1322.45 Q2126.44 1322.45 2124.52 1324.67 Q2122.59 1326.87 2122.59 1330.64 L2122.59 1345.3 L2118.31 1345.3 L2118.31 1319.37 L2122.59 1319.37 L2122.59 1323.4 Q2124.05 1321.01 2126.09 1319.88 Q2128.13 1318.75 2130.93 1318.75 Q2133.75 1318.75 2135.72 1320.18 Q2137.71 1321.62 2138.66 1324.35 Z" fill="#000000" fill-rule="nonzero" fill-opacity="1" /><path clip-path="url(#clip990)" d="M2174.7 1322.36 Q2171.27 1322.36 2169.28 1325.04 Q2167.29 1327.7 2167.29 1332.36 Q2167.29 1337.01 2169.26 1339.69 Q2171.25 1342.36 2174.7 1342.36 Q2178.1 1342.36 2180.09 1339.67 Q2182.08 1336.99 2182.08 1332.36 Q2182.08 1327.75 2180.09 1325.06 Q2178.1 1322.36 2174.7 1322.36 M2174.7 1318.75 Q2180.26 1318.75 2183.43 1322.36 Q2186.6 1325.97 2186.6 1332.36 Q2186.6 1338.72 2183.43 1342.36 Q2180.26 1345.97 2174.7 1345.97 Q2169.12 1345.97 2165.95 1342.36 Q2162.8 1338.72 2162.8 1332.36 Q2162.8 1325.97 2165.95 1322.36 Q2169.12 1318.75 2174.7 1318.75 Z" fill="#000000" fill-rule="nonzero" fill-opacity="1" /><path clip-path="url(#clip990)" d="M2210.72 1323.31 L2210.72 1309.28 L2214.98 1309.28 L2214.98 1345.3 L2210.72 1345.3 L2210.72 1341.41 Q2209.38 1343.72 2207.32 1344.86 Q2205.28 1345.97 2202.41 1345.97 Q2197.71 1345.97 2194.75 1342.22 Q2191.81 1338.47 2191.81 1332.36 Q2191.81 1326.25 2194.75 1322.5 Q2197.71 1318.75 2202.41 1318.75 Q2205.28 1318.75 2207.32 1319.88 Q2209.38 1320.99 2210.72 1323.31 M2196.2 1332.36 Q2196.2 1337.06 2198.13 1339.74 Q2200.07 1342.4 2203.45 1342.4 Q2206.83 1342.4 2208.77 1339.74 Q2210.72 1337.06 2210.72 1332.36 Q2210.72 1327.66 2208.77 1325 Q2206.83 1322.31 2203.45 1322.31 Q2200.07 1322.31 2198.13 1325 Q2196.2 1327.66 2196.2 1332.36 Z" fill="#000000" fill-rule="nonzero" fill-opacity="1" /><path clip-path="url(#clip990)" d="M2245.93 1331.27 L2245.93 1333.35 L2226.34 1333.35 Q2226.62 1337.75 2228.98 1340.06 Q2231.37 1342.36 2235.6 1342.36 Q2238.06 1342.36 2240.35 1341.75 Q2242.66 1341.15 2244.93 1339.95 L2244.93 1343.98 Q2242.64 1344.95 2240.23 1345.46 Q2237.83 1345.97 2235.35 1345.97 Q2229.14 1345.97 2225.51 1342.36 Q2221.9 1338.75 2221.9 1332.59 Q2221.9 1326.22 2225.33 1322.5 Q2228.77 1318.75 2234.61 1318.75 Q2239.84 1318.75 2242.87 1322.13 Q2245.93 1325.48 2245.93 1331.27 M2241.67 1330.02 Q2241.62 1326.52 2239.7 1324.44 Q2237.8 1322.36 2234.65 1322.36 Q2231.09 1322.36 2228.94 1324.37 Q2226.81 1326.38 2226.48 1330.04 L2241.67 1330.02 Z" fill="#000000" fill-rule="nonzero" fill-opacity="1" /><path clip-path="url(#clip990)" d="M2252.92 1309.28 L2257.18 1309.28 L2257.18 1345.3 L2252.92 1345.3 L2252.92 1309.28 Z" fill="#000000" fill-rule="nonzero" fill-opacity="1" /></svg>
