<?xml version="1.0" encoding="utf-8"?>
<svg xmlns="http://www.w3.org/2000/svg" xmlns:xlink="http://www.w3.org/1999/xlink" width="600" height="400" viewBox="0 0 2400 1600">
<defs>
  <clipPath id="clip700">
    <rect x="0" y="0" width="2400" height="1600"/>
  </clipPath>
</defs>
<path clip-path="url(#clip700)" d="M0 1600 L2400 1600 L2400 0 L0 0  Z" fill="#ffffff" fill-rule="evenodd" fill-opacity="1"/>
<defs>
  <clipPath id="clip701">
    <rect x="480" y="0" width="1681" height="1600"/>
  </clipPath>
</defs>
<path clip-path="url(#clip700)" d="M202.227 1423.18 L2352.76 1423.18 L2352.76 123.472 L202.227 123.472  Z" fill="#ffffff" fill-rule="evenodd" fill-opacity="1"/>
<defs>
  <clipPath id="clip702">
    <rect x="202" y="123" width="2152" height="1301"/>
  </clipPath>
</defs>
<polyline clip-path="url(#clip702)" style="stroke:#000000; stroke-linecap:round; stroke-linejoin:round; stroke-width:2; stroke-opacity:0.1; fill:none" points="413.373,1423.18 413.373,123.472 "/>
<polyline clip-path="url(#clip702)" style="stroke:#000000; stroke-linecap:round; stroke-linejoin:round; stroke-width:2; stroke-opacity:0.1; fill:none" points="789.077,1423.18 789.077,123.472 "/>
<polyline clip-path="url(#clip702)" style="stroke:#000000; stroke-linecap:round; stroke-linejoin:round; stroke-width:2; stroke-opacity:0.1; fill:none" points="1164.78,1423.18 1164.78,123.472 "/>
<polyline clip-path="url(#clip702)" style="stroke:#000000; stroke-linecap:round; stroke-linejoin:round; stroke-width:2; stroke-opacity:0.1; fill:none" points="1540.48,1423.18 1540.48,123.472 "/>
<polyline clip-path="url(#clip702)" style="stroke:#000000; stroke-linecap:round; stroke-linejoin:round; stroke-width:2; stroke-opacity:0.1; fill:none" points="1916.19,1423.18 1916.19,123.472 "/>
<polyline clip-path="url(#clip702)" style="stroke:#000000; stroke-linecap:round; stroke-linejoin:round; stroke-width:2; stroke-opacity:0.1; fill:none" points="2291.89,1423.18 2291.89,123.472 "/>
<polyline clip-path="url(#clip702)" style="stroke:#000000; stroke-linecap:round; stroke-linejoin:round; stroke-width:2; stroke-opacity:0.1; fill:none" points="202.227,1413.82 2352.76,1413.82 "/>
<polyline clip-path="url(#clip702)" style="stroke:#000000; stroke-linecap:round; stroke-linejoin:round; stroke-width:2; stroke-opacity:0.1; fill:none" points="202.227,1058.72 2352.76,1058.72 "/>
<polyline clip-path="url(#clip702)" style="stroke:#000000; stroke-linecap:round; stroke-linejoin:round; stroke-width:2; stroke-opacity:0.1; fill:none" points="202.227,703.614 2352.76,703.614 "/>
<polyline clip-path="url(#clip702)" style="stroke:#000000; stroke-linecap:round; stroke-linejoin:round; stroke-width:2; stroke-opacity:0.1; fill:none" points="202.227,348.511 2352.76,348.511 "/>
<polyline clip-path="url(#clip700)" style="stroke:#000000; stroke-linecap:round; stroke-linejoin:round; stroke-width:4; stroke-opacity:1; fill:none" points="202.227,1423.18 2352.76,1423.18 "/>
<polyline clip-path="url(#clip700)" style="stroke:#000000; stroke-linecap:round; stroke-linejoin:round; stroke-width:4; stroke-opacity:1; fill:none" points="413.373,1423.18 413.373,1404.28 "/>
<polyline clip-path="url(#clip700)" style="stroke:#000000; stroke-linecap:round; stroke-linejoin:round; stroke-width:4; stroke-opacity:1; fill:none" points="789.077,1423.18 789.077,1404.28 "/>
<polyline clip-path="url(#clip700)" style="stroke:#000000; stroke-linecap:round; stroke-linejoin:round; stroke-width:4; stroke-opacity:1; fill:none" points="1164.78,1423.18 1164.78,1404.28 "/>
<polyline clip-path="url(#clip700)" style="stroke:#000000; stroke-linecap:round; stroke-linejoin:round; stroke-width:4; stroke-opacity:1; fill:none" points="1540.48,1423.18 1540.48,1404.28 "/>
<polyline clip-path="url(#clip700)" style="stroke:#000000; stroke-linecap:round; stroke-linejoin:round; stroke-width:4; stroke-opacity:1; fill:none" points="1916.19,1423.18 1916.19,1404.28 "/>
<polyline clip-path="url(#clip700)" style="stroke:#000000; stroke-linecap:round; stroke-linejoin:round; stroke-width:4; stroke-opacity:1; fill:none" points="2291.89,1423.18 2291.89,1404.28 "/>
<path clip-path="url(#clip700)" d="M372.98 1481.64 L380.619 1481.64 L380.619 1455.28 L372.308 1456.95 L372.308 1452.69 L380.572 1451.02 L385.248 1451.02 L385.248 1481.64 L392.887 1481.64 L392.887 1485.58 L372.98 1485.58 L372.98 1481.64 Z" fill="#000000" fill-rule="nonzero" fill-opacity="1" /><path clip-path="url(#clip700)" d="M402.378 1451.02 L420.734 1451.02 L420.734 1454.96 L406.66 1454.96 L406.66 1463.43 Q407.679 1463.08 408.697 1462.92 Q409.716 1462.73 410.734 1462.73 Q416.521 1462.73 419.901 1465.9 Q423.28 1469.08 423.28 1474.49 Q423.28 1480.07 419.808 1483.17 Q416.336 1486.25 410.017 1486.25 Q407.841 1486.25 405.572 1485.88 Q403.327 1485.51 400.919 1484.77 L400.919 1480.07 Q403.003 1481.2 405.225 1481.76 Q407.447 1482.32 409.924 1482.32 Q413.929 1482.32 416.266 1480.21 Q418.604 1478.1 418.604 1474.49 Q418.604 1470.88 416.266 1468.77 Q413.929 1466.67 409.924 1466.67 Q408.049 1466.67 406.174 1467.08 Q404.322 1467.5 402.378 1468.38 L402.378 1451.02 Z" fill="#000000" fill-rule="nonzero" fill-opacity="1" /><path clip-path="url(#clip700)" d="M442.493 1454.1 Q438.882 1454.1 437.053 1457.66 Q435.248 1461.2 435.248 1468.33 Q435.248 1475.44 437.053 1479.01 Q438.882 1482.55 442.493 1482.55 Q446.127 1482.55 447.933 1479.01 Q449.762 1475.44 449.762 1468.33 Q449.762 1461.2 447.933 1457.66 Q446.127 1454.1 442.493 1454.1 M442.493 1450.39 Q448.303 1450.39 451.359 1455 Q454.438 1459.58 454.438 1468.33 Q454.438 1477.06 451.359 1481.67 Q448.303 1486.25 442.493 1486.25 Q436.683 1486.25 433.604 1481.67 Q430.549 1477.06 430.549 1468.33 Q430.549 1459.58 433.604 1455 Q436.683 1450.39 442.493 1450.39 Z" fill="#000000" fill-rule="nonzero" fill-opacity="1" /><path clip-path="url(#clip700)" d="M752.769 1481.64 L769.088 1481.64 L769.088 1485.58 L747.144 1485.58 L747.144 1481.64 Q749.806 1478.89 754.389 1474.26 Q758.996 1469.61 760.176 1468.27 Q762.422 1465.74 763.301 1464.01 Q764.204 1462.25 764.204 1460.56 Q764.204 1457.8 762.26 1456.07 Q760.339 1454.33 757.237 1454.33 Q755.038 1454.33 752.584 1455.09 Q750.153 1455.86 747.376 1457.41 L747.376 1452.69 Q750.2 1451.55 752.653 1450.97 Q755.107 1450.39 757.144 1450.39 Q762.514 1450.39 765.709 1453.08 Q768.903 1455.77 768.903 1460.26 Q768.903 1462.39 768.093 1464.31 Q767.306 1466.2 765.2 1468.8 Q764.621 1469.47 761.519 1472.69 Q758.417 1475.88 752.769 1481.64 Z" fill="#000000" fill-rule="nonzero" fill-opacity="1" /><path clip-path="url(#clip700)" d="M788.903 1454.1 Q785.292 1454.1 783.463 1457.66 Q781.658 1461.2 781.658 1468.33 Q781.658 1475.44 783.463 1479.01 Q785.292 1482.55 788.903 1482.55 Q792.537 1482.55 794.343 1479.01 Q796.172 1475.44 796.172 1468.33 Q796.172 1461.2 794.343 1457.66 Q792.537 1454.1 788.903 1454.1 M788.903 1450.39 Q794.713 1450.39 797.769 1455 Q800.848 1459.58 800.848 1468.33 Q800.848 1477.06 797.769 1481.67 Q794.713 1486.25 788.903 1486.25 Q783.093 1486.25 780.014 1481.67 Q776.959 1477.06 776.959 1468.33 Q776.959 1459.58 780.014 1455 Q783.093 1450.39 788.903 1450.39 Z" fill="#000000" fill-rule="nonzero" fill-opacity="1" /><path clip-path="url(#clip700)" d="M819.065 1454.1 Q815.454 1454.1 813.625 1457.66 Q811.82 1461.2 811.82 1468.33 Q811.82 1475.44 813.625 1479.01 Q815.454 1482.55 819.065 1482.55 Q822.699 1482.55 824.505 1479.01 Q826.334 1475.44 826.334 1468.33 Q826.334 1461.2 824.505 1457.66 Q822.699 1454.1 819.065 1454.1 M819.065 1450.39 Q824.875 1450.39 827.931 1455 Q831.009 1459.58 831.009 1468.33 Q831.009 1477.06 827.931 1481.67 Q824.875 1486.25 819.065 1486.25 Q813.255 1486.25 810.176 1481.67 Q807.121 1477.06 807.121 1468.33 Q807.121 1459.58 810.176 1455 Q813.255 1450.39 819.065 1450.39 Z" fill="#000000" fill-rule="nonzero" fill-opacity="1" /><path clip-path="url(#clip700)" d="M1128.47 1481.64 L1144.79 1481.64 L1144.79 1485.58 L1122.85 1485.58 L1122.85 1481.64 Q1125.51 1478.89 1130.09 1474.26 Q1134.7 1469.61 1135.88 1468.27 Q1138.13 1465.74 1139.01 1464.01 Q1139.91 1462.25 1139.91 1460.56 Q1139.91 1457.8 1137.96 1456.07 Q1136.04 1454.33 1132.94 1454.33 Q1130.74 1454.33 1128.29 1455.09 Q1125.86 1455.86 1123.08 1457.41 L1123.08 1452.69 Q1125.9 1451.55 1128.36 1450.97 Q1130.81 1450.39 1132.85 1450.39 Q1138.22 1450.39 1141.41 1453.08 Q1144.61 1455.77 1144.61 1460.26 Q1144.61 1462.39 1143.8 1464.31 Q1143.01 1466.2 1140.9 1468.8 Q1140.32 1469.47 1137.22 1472.69 Q1134.12 1475.88 1128.47 1481.64 Z" fill="#000000" fill-rule="nonzero" fill-opacity="1" /><path clip-path="url(#clip700)" d="M1154.65 1451.02 L1173.01 1451.02 L1173.01 1454.96 L1158.94 1454.96 L1158.94 1463.43 Q1159.95 1463.08 1160.97 1462.92 Q1161.99 1462.73 1163.01 1462.73 Q1168.8 1462.73 1172.18 1465.9 Q1175.56 1469.08 1175.56 1474.49 Q1175.56 1480.07 1172.08 1483.17 Q1168.61 1486.25 1162.29 1486.25 Q1160.12 1486.25 1157.85 1485.88 Q1155.6 1485.51 1153.19 1484.77 L1153.19 1480.07 Q1155.28 1481.2 1157.5 1481.76 Q1159.72 1482.32 1162.2 1482.32 Q1166.2 1482.32 1168.54 1480.21 Q1170.88 1478.1 1170.88 1474.49 Q1170.88 1470.88 1168.54 1468.77 Q1166.2 1466.67 1162.2 1466.67 Q1160.32 1466.67 1158.45 1467.08 Q1156.6 1467.5 1154.65 1468.38 L1154.65 1451.02 Z" fill="#000000" fill-rule="nonzero" fill-opacity="1" /><path clip-path="url(#clip700)" d="M1194.77 1454.1 Q1191.16 1454.1 1189.33 1457.66 Q1187.52 1461.2 1187.52 1468.33 Q1187.52 1475.44 1189.33 1479.01 Q1191.16 1482.55 1194.77 1482.55 Q1198.4 1482.55 1200.21 1479.01 Q1202.04 1475.44 1202.04 1468.33 Q1202.04 1461.2 1200.21 1457.66 Q1198.4 1454.1 1194.77 1454.1 M1194.77 1450.39 Q1200.58 1450.39 1203.63 1455 Q1206.71 1459.58 1206.71 1468.33 Q1206.71 1477.06 1203.63 1481.67 Q1200.58 1486.25 1194.77 1486.25 Q1188.96 1486.25 1185.88 1481.67 Q1182.82 1477.06 1182.82 1468.33 Q1182.82 1459.58 1185.88 1455 Q1188.96 1450.39 1194.77 1450.39 Z" fill="#000000" fill-rule="nonzero" fill-opacity="1" /><path clip-path="url(#clip700)" d="M1514.25 1466.95 Q1517.6 1467.66 1519.48 1469.93 Q1521.38 1472.2 1521.38 1475.53 Q1521.38 1480.65 1517.86 1483.45 Q1514.34 1486.25 1507.86 1486.25 Q1505.68 1486.25 1503.37 1485.81 Q1501.07 1485.39 1498.62 1484.54 L1498.62 1480.02 Q1500.57 1481.16 1502.88 1481.74 Q1505.2 1482.32 1507.72 1482.32 Q1512.12 1482.32 1514.41 1480.58 Q1516.72 1478.84 1516.72 1475.53 Q1516.72 1472.48 1514.57 1470.77 Q1512.44 1469.03 1508.62 1469.03 L1504.59 1469.03 L1504.59 1465.19 L1508.81 1465.19 Q1512.26 1465.19 1514.08 1463.82 Q1515.91 1462.43 1515.91 1459.84 Q1515.91 1457.18 1514.01 1455.77 Q1512.14 1454.33 1508.62 1454.33 Q1506.7 1454.33 1504.5 1454.75 Q1502.3 1455.16 1499.66 1456.04 L1499.66 1451.88 Q1502.32 1451.14 1504.64 1450.77 Q1506.98 1450.39 1509.04 1450.39 Q1514.36 1450.39 1517.46 1452.83 Q1520.57 1455.23 1520.57 1459.35 Q1520.57 1462.22 1518.92 1464.21 Q1517.28 1466.18 1514.25 1466.95 Z" fill="#000000" fill-rule="nonzero" fill-opacity="1" /><path clip-path="url(#clip700)" d="M1540.24 1454.1 Q1536.63 1454.1 1534.8 1457.66 Q1533 1461.2 1533 1468.33 Q1533 1475.44 1534.8 1479.01 Q1536.63 1482.55 1540.24 1482.55 Q1543.88 1482.55 1545.68 1479.01 Q1547.51 1475.44 1547.51 1468.33 Q1547.51 1461.2 1545.68 1457.66 Q1543.88 1454.1 1540.24 1454.1 M1540.24 1450.39 Q1546.05 1450.39 1549.11 1455 Q1552.19 1459.58 1552.19 1468.33 Q1552.19 1477.06 1549.11 1481.67 Q1546.05 1486.25 1540.24 1486.25 Q1534.43 1486.25 1531.35 1481.67 Q1528.3 1477.06 1528.3 1468.33 Q1528.3 1459.58 1531.35 1455 Q1534.43 1450.39 1540.24 1450.39 Z" fill="#000000" fill-rule="nonzero" fill-opacity="1" /><path clip-path="url(#clip700)" d="M1570.4 1454.1 Q1566.79 1454.1 1564.96 1457.66 Q1563.16 1461.2 1563.16 1468.33 Q1563.16 1475.44 1564.96 1479.01 Q1566.79 1482.55 1570.4 1482.55 Q1574.04 1482.55 1575.84 1479.01 Q1577.67 1475.44 1577.67 1468.33 Q1577.67 1461.2 1575.84 1457.66 Q1574.04 1454.1 1570.4 1454.1 M1570.4 1450.39 Q1576.21 1450.39 1579.27 1455 Q1582.35 1459.58 1582.35 1468.33 Q1582.35 1477.06 1579.27 1481.67 Q1576.21 1486.25 1570.4 1486.25 Q1564.59 1486.25 1561.51 1481.67 Q1558.46 1477.06 1558.46 1468.33 Q1558.46 1459.58 1561.51 1455 Q1564.59 1450.39 1570.4 1450.39 Z" fill="#000000" fill-rule="nonzero" fill-opacity="1" /><path clip-path="url(#clip700)" d="M1889.95 1466.95 Q1893.31 1467.66 1895.18 1469.93 Q1897.08 1472.2 1897.08 1475.53 Q1897.08 1480.65 1893.56 1483.45 Q1890.04 1486.25 1883.56 1486.25 Q1881.39 1486.25 1879.07 1485.81 Q1876.78 1485.39 1874.32 1484.54 L1874.32 1480.02 Q1876.27 1481.16 1878.58 1481.74 Q1880.9 1482.32 1883.42 1482.32 Q1887.82 1482.32 1890.11 1480.58 Q1892.43 1478.84 1892.43 1475.53 Q1892.43 1472.48 1890.27 1470.77 Q1888.14 1469.03 1884.32 1469.03 L1880.3 1469.03 L1880.3 1465.19 L1884.51 1465.19 Q1887.96 1465.19 1889.79 1463.82 Q1891.62 1462.43 1891.62 1459.84 Q1891.62 1457.18 1889.72 1455.77 Q1887.84 1454.33 1884.32 1454.33 Q1882.4 1454.33 1880.2 1454.75 Q1878.01 1455.16 1875.37 1456.04 L1875.37 1451.88 Q1878.03 1451.14 1880.34 1450.77 Q1882.68 1450.39 1884.74 1450.39 Q1890.07 1450.39 1893.17 1452.83 Q1896.27 1455.23 1896.27 1459.35 Q1896.27 1462.22 1894.63 1464.21 Q1892.98 1466.18 1889.95 1466.95 Z" fill="#000000" fill-rule="nonzero" fill-opacity="1" /><path clip-path="url(#clip700)" d="M1905.99 1451.02 L1924.35 1451.02 L1924.35 1454.96 L1910.27 1454.96 L1910.27 1463.43 Q1911.29 1463.08 1912.31 1462.92 Q1913.33 1462.73 1914.35 1462.73 Q1920.13 1462.73 1923.51 1465.9 Q1926.89 1469.08 1926.89 1474.49 Q1926.89 1480.07 1923.42 1483.17 Q1919.95 1486.25 1913.63 1486.25 Q1911.45 1486.25 1909.19 1485.88 Q1906.94 1485.51 1904.53 1484.77 L1904.53 1480.07 Q1906.62 1481.2 1908.84 1481.76 Q1911.06 1482.32 1913.54 1482.32 Q1917.54 1482.32 1919.88 1480.21 Q1922.22 1478.1 1922.22 1474.49 Q1922.22 1470.88 1919.88 1468.77 Q1917.54 1466.67 1913.54 1466.67 Q1911.66 1466.67 1909.79 1467.08 Q1907.94 1467.5 1905.99 1468.38 L1905.99 1451.02 Z" fill="#000000" fill-rule="nonzero" fill-opacity="1" /><path clip-path="url(#clip700)" d="M1946.11 1454.1 Q1942.5 1454.1 1940.67 1457.66 Q1938.86 1461.2 1938.86 1468.33 Q1938.86 1475.44 1940.67 1479.01 Q1942.5 1482.55 1946.11 1482.55 Q1949.74 1482.55 1951.55 1479.01 Q1953.38 1475.44 1953.38 1468.33 Q1953.38 1461.2 1951.55 1457.66 Q1949.74 1454.1 1946.11 1454.1 M1946.11 1450.39 Q1951.92 1450.39 1954.97 1455 Q1958.05 1459.58 1958.05 1468.33 Q1958.05 1477.06 1954.97 1481.67 Q1951.92 1486.25 1946.11 1486.25 Q1940.3 1486.25 1937.22 1481.67 Q1934.16 1477.06 1934.16 1468.33 Q1934.16 1459.58 1937.22 1455 Q1940.3 1450.39 1946.11 1450.39 Z" fill="#000000" fill-rule="nonzero" fill-opacity="1" /><path clip-path="url(#clip700)" d="M2264.98 1455.09 L2253.18 1473.54 L2264.98 1473.54 L2264.98 1455.09 M2263.76 1451.02 L2269.64 1451.02 L2269.64 1473.54 L2274.57 1473.54 L2274.57 1477.43 L2269.64 1477.43 L2269.64 1485.58 L2264.98 1485.58 L2264.98 1477.43 L2249.38 1477.43 L2249.38 1472.92 L2263.76 1451.02 Z" fill="#000000" fill-rule="nonzero" fill-opacity="1" /><path clip-path="url(#clip700)" d="M2292.3 1454.1 Q2288.69 1454.1 2286.86 1457.66 Q2285.05 1461.2 2285.05 1468.33 Q2285.05 1475.44 2286.86 1479.01 Q2288.69 1482.55 2292.3 1482.55 Q2295.93 1482.55 2297.74 1479.01 Q2299.57 1475.44 2299.57 1468.33 Q2299.57 1461.2 2297.74 1457.66 Q2295.93 1454.1 2292.3 1454.1 M2292.3 1450.39 Q2298.11 1450.39 2301.16 1455 Q2304.24 1459.58 2304.24 1468.33 Q2304.24 1477.06 2301.16 1481.67 Q2298.11 1486.25 2292.3 1486.25 Q2286.49 1486.25 2283.41 1481.67 Q2280.35 1477.06 2280.35 1468.33 Q2280.35 1459.58 2283.41 1455 Q2286.49 1450.39 2292.3 1450.39 Z" fill="#000000" fill-rule="nonzero" fill-opacity="1" /><path clip-path="url(#clip700)" d="M2322.46 1454.1 Q2318.85 1454.1 2317.02 1457.66 Q2315.21 1461.2 2315.21 1468.33 Q2315.21 1475.44 2317.02 1479.01 Q2318.85 1482.55 2322.46 1482.55 Q2326.09 1482.55 2327.9 1479.01 Q2329.73 1475.44 2329.73 1468.33 Q2329.73 1461.2 2327.9 1457.66 Q2326.09 1454.1 2322.46 1454.1 M2322.46 1450.39 Q2328.27 1450.39 2331.32 1455 Q2334.4 1459.58 2334.4 1468.33 Q2334.4 1477.06 2331.32 1481.67 Q2328.27 1486.25 2322.46 1486.25 Q2316.65 1486.25 2313.57 1481.67 Q2310.51 1477.06 2310.51 1468.33 Q2310.51 1459.58 2313.57 1455 Q2316.65 1450.39 2322.46 1450.39 Z" fill="#000000" fill-rule="nonzero" fill-opacity="1" /><path clip-path="url(#clip700)" d="M1154.03 1520.52 L1194.23 1520.52 L1194.23 1525.93 L1177.36 1525.93 L1177.36 1568.04 L1170.9 1568.04 L1170.9 1525.93 L1154.03 1525.93 L1154.03 1520.52 Z" fill="#000000" fill-rule="nonzero" fill-opacity="1" /><path clip-path="url(#clip700)" d="M1234.97 1518.58 Q1230.7 1525.9 1228.63 1533.06 Q1226.57 1540.23 1226.57 1547.58 Q1226.57 1554.93 1228.63 1562.16 Q1230.74 1569.35 1234.97 1576.64 L1229.88 1576.64 Q1225.1 1569.16 1222.71 1561.93 Q1220.36 1554.71 1220.36 1547.58 Q1220.36 1540.48 1222.71 1533.29 Q1225.07 1526.09 1229.88 1518.58 L1234.97 1518.58 Z" fill="#000000" fill-rule="nonzero" fill-opacity="1" /><path clip-path="url(#clip700)" d="M1246.59 1520.52 L1256.17 1520.52 L1268.29 1552.86 L1280.48 1520.52 L1290.06 1520.52 L1290.06 1568.04 L1283.79 1568.04 L1283.79 1526.32 L1271.54 1558.91 L1265.08 1558.91 L1252.82 1526.32 L1252.82 1568.04 L1246.59 1568.04 L1246.59 1520.52 Z" fill="#000000" fill-rule="nonzero" fill-opacity="1" /><path clip-path="url(#clip700)" d="M1333.06 1548.76 L1333.06 1551.62 L1306.14 1551.62 Q1306.52 1557.67 1309.77 1560.85 Q1313.04 1564 1318.87 1564 Q1322.24 1564 1325.39 1563.17 Q1328.58 1562.35 1331.7 1560.69 L1331.7 1566.23 Q1328.54 1567.57 1325.23 1568.27 Q1321.92 1568.97 1318.52 1568.97 Q1309.99 1568.97 1304.99 1564 Q1300.03 1559.04 1300.03 1550.57 Q1300.03 1541.82 1304.74 1536.69 Q1309.48 1531.54 1317.5 1531.54 Q1324.69 1531.54 1328.86 1536.18 Q1333.06 1540.8 1333.06 1548.76 M1327.21 1547.04 Q1327.14 1542.23 1324.5 1539.37 Q1321.89 1536.5 1317.56 1536.5 Q1312.66 1536.5 1309.7 1539.27 Q1306.77 1542.04 1306.33 1547.07 L1327.21 1547.04 Z" fill="#000000" fill-rule="nonzero" fill-opacity="1" /><path clip-path="url(#clip700)" d="M1355.19 1568.04 L1337.04 1520.52 L1343.76 1520.52 L1358.81 1560.53 L1373.9 1520.52 L1380.58 1520.52 L1362.47 1568.04 L1355.19 1568.04 Z" fill="#000000" fill-rule="nonzero" fill-opacity="1" /><path clip-path="url(#clip700)" d="M1386.35 1518.58 L1391.44 1518.58 Q1396.21 1526.09 1398.57 1533.29 Q1400.95 1540.48 1400.95 1547.58 Q1400.95 1554.71 1398.57 1561.93 Q1396.21 1569.16 1391.44 1576.64 L1386.35 1576.64 Q1390.58 1569.35 1392.65 1562.16 Q1394.75 1554.93 1394.75 1547.58 Q1394.75 1540.23 1392.65 1533.06 Q1390.58 1525.9 1386.35 1518.58 Z" fill="#000000" fill-rule="nonzero" fill-opacity="1" /><polyline clip-path="url(#clip700)" style="stroke:#000000; stroke-linecap:round; stroke-linejoin:round; stroke-width:4; stroke-opacity:1; fill:none" points="202.227,1423.18 202.227,123.472 "/>
<polyline clip-path="url(#clip700)" style="stroke:#000000; stroke-linecap:round; stroke-linejoin:round; stroke-width:4; stroke-opacity:1; fill:none" points="202.227,1413.82 221.125,1413.82 "/>
<polyline clip-path="url(#clip700)" style="stroke:#000000; stroke-linecap:round; stroke-linejoin:round; stroke-width:4; stroke-opacity:1; fill:none" points="202.227,1058.72 221.125,1058.72 "/>
<polyline clip-path="url(#clip700)" style="stroke:#000000; stroke-linecap:round; stroke-linejoin:round; stroke-width:4; stroke-opacity:1; fill:none" points="202.227,703.614 221.125,703.614 "/>
<polyline clip-path="url(#clip700)" style="stroke:#000000; stroke-linecap:round; stroke-linejoin:round; stroke-width:4; stroke-opacity:1; fill:none" points="202.227,348.511 221.125,348.511 "/>
<path clip-path="url(#clip700)" d="M154.283 1399.62 Q150.672 1399.62 148.843 1403.19 Q147.038 1406.73 147.038 1413.86 Q147.038 1420.96 148.843 1424.53 Q150.672 1428.07 154.283 1428.07 Q157.917 1428.07 159.723 1424.53 Q161.552 1420.96 161.552 1413.86 Q161.552 1406.73 159.723 1403.19 Q157.917 1399.62 154.283 1399.62 M154.283 1395.92 Q160.093 1395.92 163.149 1400.52 Q166.227 1405.11 166.227 1413.86 Q166.227 1422.58 163.149 1427.19 Q160.093 1431.77 154.283 1431.77 Q148.473 1431.77 145.394 1427.19 Q142.339 1422.58 142.339 1413.86 Q142.339 1405.11 145.394 1400.52 Q148.473 1395.92 154.283 1395.92 Z" fill="#000000" fill-rule="nonzero" fill-opacity="1" /><path clip-path="url(#clip700)" d="M145.325 1041.44 L163.681 1041.44 L163.681 1045.37 L149.607 1045.37 L149.607 1053.85 Q150.626 1053.5 151.644 1053.34 Q152.663 1053.15 153.681 1053.15 Q159.468 1053.15 162.848 1056.32 Q166.227 1059.49 166.227 1064.91 Q166.227 1070.49 162.755 1073.59 Q159.283 1076.67 152.964 1076.67 Q150.788 1076.67 148.519 1076.3 Q146.274 1075.93 143.866 1075.19 L143.866 1070.49 Q145.95 1071.62 148.172 1072.18 Q150.394 1072.73 152.871 1072.73 Q156.876 1072.73 159.214 1070.63 Q161.552 1068.52 161.552 1064.91 Q161.552 1061.3 159.214 1059.19 Q156.876 1057.09 152.871 1057.09 Q150.996 1057.09 149.121 1057.5 Q147.269 1057.92 145.325 1058.8 L145.325 1041.44 Z" fill="#000000" fill-rule="nonzero" fill-opacity="1" /><path clip-path="url(#clip700)" d="M114.931 716.959 L122.57 716.959 L122.57 690.594 L114.26 692.26 L114.26 688.001 L122.524 686.334 L127.2 686.334 L127.2 716.959 L134.839 716.959 L134.839 720.894 L114.931 720.894 L114.931 716.959 Z" fill="#000000" fill-rule="nonzero" fill-opacity="1" /><path clip-path="url(#clip700)" d="M154.283 689.413 Q150.672 689.413 148.843 692.978 Q147.038 696.52 147.038 703.649 Q147.038 710.756 148.843 714.32 Q150.672 717.862 154.283 717.862 Q157.917 717.862 159.723 714.32 Q161.552 710.756 161.552 703.649 Q161.552 696.52 159.723 692.978 Q157.917 689.413 154.283 689.413 M154.283 685.709 Q160.093 685.709 163.149 690.316 Q166.227 694.899 166.227 703.649 Q166.227 712.376 163.149 716.982 Q160.093 721.566 154.283 721.566 Q148.473 721.566 145.394 716.982 Q142.339 712.376 142.339 703.649 Q142.339 694.899 145.394 690.316 Q148.473 685.709 154.283 685.709 Z" fill="#000000" fill-rule="nonzero" fill-opacity="1" /><path clip-path="url(#clip700)" d="M115.927 361.855 L123.566 361.855 L123.566 335.49 L115.256 337.156 L115.256 332.897 L123.519 331.231 L128.195 331.231 L128.195 361.855 L135.834 361.855 L135.834 365.791 L115.927 365.791 L115.927 361.855 Z" fill="#000000" fill-rule="nonzero" fill-opacity="1" /><path clip-path="url(#clip700)" d="M145.325 331.231 L163.681 331.231 L163.681 335.166 L149.607 335.166 L149.607 343.638 Q150.626 343.291 151.644 343.129 Q152.663 342.943 153.681 342.943 Q159.468 342.943 162.848 346.115 Q166.227 349.286 166.227 354.703 Q166.227 360.281 162.755 363.383 Q159.283 366.462 152.964 366.462 Q150.788 366.462 148.519 366.091 Q146.274 365.721 143.866 364.98 L143.866 360.281 Q145.95 361.416 148.172 361.971 Q150.394 362.527 152.871 362.527 Q156.876 362.527 159.214 360.42 Q161.552 358.314 161.552 354.703 Q161.552 351.092 159.214 348.985 Q156.876 346.879 152.871 346.879 Q150.996 346.879 149.121 347.295 Q147.269 347.712 145.325 348.592 L145.325 331.231 Z" fill="#000000" fill-rule="nonzero" fill-opacity="1" /><path clip-path="url(#clip700)" d="M29.4065 839.529 L34.9447 839.529 Q33.6716 842.012 33.035 844.686 Q32.3984 847.359 32.3984 850.224 Q32.3984 854.584 33.7352 856.78 Q35.072 858.945 37.7456 858.945 Q39.7826 858.945 40.9603 857.385 Q42.1061 855.826 43.1565 851.115 L43.6021 849.11 Q44.9389 842.871 47.3897 840.261 Q49.8086 837.62 54.1691 837.62 Q59.1344 837.62 62.0308 841.566 Q64.9272 845.481 64.9272 852.356 Q64.9272 855.221 64.3543 858.34 Q63.8132 861.427 62.6992 864.865 L56.6518 864.865 Q58.3387 861.618 59.198 858.467 Q60.0256 855.316 60.0256 852.229 Q60.0256 848.091 58.6251 845.863 Q57.1929 843.635 54.6147 843.635 Q52.2276 843.635 50.9545 845.258 Q49.6813 846.85 48.5037 852.293 L48.0262 854.33 Q46.8804 859.772 44.5251 862.191 Q42.138 864.61 38.0002 864.61 Q32.9713 864.61 30.2341 861.045 Q27.4968 857.481 27.4968 850.924 Q27.4968 847.677 27.9743 844.813 Q28.4517 841.948 29.4065 839.529 Z" fill="#000000" fill-rule="nonzero" fill-opacity="1" /><path clip-path="url(#clip700)" d="M16.4842 817.886 L16.4842 812.475 L70.0516 829.026 L70.0516 834.437 L16.4842 817.886 Z" fill="#000000" fill-rule="nonzero" fill-opacity="1" /><path clip-path="url(#clip700)" d="M16.4842 812.666 L16.4842 772.467 L21.895 772.467 L21.895 789.336 L64.0042 789.336 L64.0042 795.797 L21.895 795.797 L21.895 812.666 L16.4842 812.666 Z" fill="#000000" fill-rule="nonzero" fill-opacity="1" /><path clip-path="url(#clip700)" d="M16.4842 742.23 L34.2127 724.947 L34.2127 731.344 L21.6404 745.349 L34.2127 759.353 L34.2127 765.751 L16.4842 748.468 L16.4842 742.23 Z" fill="#000000" fill-rule="nonzero" fill-opacity="1" /><path clip-path="url(#clip700)" d="M38.3822 691.59 Q39.3689 686.975 42.4881 684.397 Q45.6073 681.787 50.1906 681.787 Q57.2247 681.787 61.0759 686.625 Q64.9272 691.463 64.9272 700.375 Q64.9272 703.367 64.3224 706.55 Q63.7495 709.701 62.5719 713.075 L56.3653 713.075 Q57.9249 710.401 58.7206 707.218 Q59.5163 704.035 59.5163 700.566 Q59.5163 694.519 57.1292 691.368 Q54.7421 688.185 50.1906 688.185 Q45.9892 688.185 43.6339 691.145 Q41.2468 694.073 41.2468 699.325 L41.2468 704.863 L35.9632 704.863 L35.9632 699.07 Q35.9632 694.328 34.0853 691.813 Q32.1756 689.299 28.6108 689.299 Q24.9505 689.299 23.009 691.909 Q21.0356 694.487 21.0356 699.325 Q21.0356 701.966 21.6086 704.99 Q22.1815 708.014 23.3909 711.642 L17.6618 711.642 Q16.6433 707.982 16.134 704.799 Q15.6248 701.584 15.6248 698.752 Q15.6248 691.431 18.9668 687.166 Q22.277 682.901 27.9424 682.901 Q31.8892 682.901 34.6264 685.161 Q37.3318 687.421 38.3822 691.59 Z" fill="#000000" fill-rule="nonzero" fill-opacity="1" /><path clip-path="url(#clip700)" d="M-181.644 9.54393 L-174.19 9.54393 L-174.19 72.576 L-181.644 72.576 L-181.644 9.54393 Z" fill="#000000" fill-rule="nonzero" fill-opacity="1" /><path clip-path="url(#clip700)" d="M-141.013 32.4315 Q-147.009 32.4315 -150.493 37.1306 Q-153.976 41.7891 -153.976 49.9314 Q-153.976 58.0738 -150.533 62.7728 Q-147.049 67.4314 -141.013 67.4314 Q-135.059 67.4314 -131.575 62.7323 Q-128.091 58.0333 -128.091 49.9314 Q-128.091 41.8701 -131.575 37.1711 Q-135.059 32.4315 -141.013 32.4315 M-141.013 26.1121 Q-131.291 26.1121 -125.742 32.4315 Q-120.192 38.7509 -120.192 49.9314 Q-120.192 61.0714 -125.742 67.4314 Q-131.291 73.7508 -141.013 73.7508 Q-150.776 73.7508 -156.326 67.4314 Q-161.835 61.0714 -161.835 49.9314 Q-161.835 38.7509 -156.326 32.4315 Q-150.776 26.1121 -141.013 26.1121 Z" fill="#000000" fill-rule="nonzero" fill-opacity="1" /><path clip-path="url(#clip700)" d="M-77.9814 49.3643 Q-77.9814 41.2625 -81.3436 36.8065 Q-84.6654 32.3505 -90.7012 32.3505 Q-96.6965 32.3505 -100.059 36.8065 Q-103.381 41.2625 -103.381 49.3643 Q-103.381 57.4256 -100.059 61.8816 Q-96.6965 66.3376 -90.7012 66.3376 Q-84.6654 66.3376 -81.3436 61.8816 Q-77.9814 57.4256 -77.9814 49.3643 M-70.5277 66.9452 Q-70.5277 78.5308 -75.6724 84.1616 Q-80.817 89.8329 -91.4304 89.8329 Q-95.3598 89.8329 -98.8435 89.2252 Q-102.327 88.6581 -105.609 87.4428 L-105.609 80.1917 Q-102.327 81.9741 -99.1271 82.8248 Q-95.9269 83.6755 -92.6051 83.6755 Q-85.273 83.6755 -81.6272 79.8271 Q-77.9814 76.0193 -77.9814 68.282 L-77.9814 64.5957 Q-80.2904 68.6061 -83.8957 70.5911 Q-87.501 72.576 -92.5241 72.576 Q-100.869 72.576 -105.973 66.2161 Q-111.077 59.8562 -111.077 49.3643 Q-111.077 38.832 -105.973 32.472 Q-100.869 26.1121 -92.5241 26.1121 Q-87.501 26.1121 -83.8957 28.0971 Q-80.2904 30.082 -77.9814 34.0924 L-77.9814 27.2059 L-70.5277 27.2059 L-70.5277 66.9452 Z" fill="#000000" fill-rule="nonzero" fill-opacity="1" /><path clip-path="url(#clip700)" d="M-29.411 12.096 L-21.1877 12.096 L-21.1877 48.8377 Q-21.1877 58.5599 -17.6634 62.8538 Q-14.1391 67.1073 -6.23986 67.1073 Q1.6189 67.1073 5.14318 62.8538 Q8.66747 58.5599 8.66747 48.8377 L8.66747 12.096 L16.8908 12.096 L16.8908 49.8504 Q16.8908 61.6791 11.017 67.7149 Q5.18369 73.7508 -6.23986 73.7508 Q-17.7039 73.7508 -23.5777 67.7149 Q-29.411 61.6791 -29.411 49.8504 L-29.411 12.096 Z" fill="#000000" fill-rule="nonzero" fill-opacity="1" /><path clip-path="url(#clip700)" d="M81.2597 9.54393 L81.2597 15.7418 L74.1301 15.7418 Q70.1197 15.7418 68.5398 17.3622 Q67.0005 18.9825 67.0005 23.1955 L67.0005 27.2059 L79.2747 27.2059 L79.2747 32.9987 L67.0005 32.9987 L67.0005 72.576 L59.5063 72.576 L59.5063 32.9987 L52.3767 32.9987 L52.3767 27.2059 L59.5063 27.2059 L59.5063 24.0462 Q59.5063 16.471 63.0306 13.0277 Q66.5549 9.54393 74.2111 9.54393 L81.2597 9.54393 Z" fill="#000000" fill-rule="nonzero" fill-opacity="1" /><path clip-path="url(#clip700)" d="M87.4981 27.2059 L94.9517 27.2059 L94.9517 72.576 L87.4981 72.576 L87.4981 27.2059 M87.4981 9.54393 L94.9517 9.54393 L94.9517 18.9825 L87.4981 18.9825 L87.4981 9.54393 Z" fill="#000000" fill-rule="nonzero" fill-opacity="1" /><path clip-path="url(#clip700)" d="M117.92 14.324 L117.92 27.2059 L133.273 27.2059 L133.273 32.9987 L117.92 32.9987 L117.92 57.6282 Q117.92 63.1779 119.419 64.7578 Q120.959 66.3376 125.617 66.3376 L133.273 66.3376 L133.273 72.576 L125.617 72.576 Q116.989 72.576 113.707 69.3758 Q110.426 66.1351 110.426 57.6282 L110.426 32.9987 L104.957 32.9987 L104.957 27.2059 L110.426 27.2059 L110.426 14.324 L117.92 14.324 Z" fill="#000000" fill-rule="nonzero" fill-opacity="1" /><path clip-path="url(#clip700)" d="M179.049 9.17935 L179.049 92.1419 L172.162 92.1419 L172.162 9.17935 L179.049 9.17935 Z" fill="#000000" fill-rule="nonzero" fill-opacity="1" /><path clip-path="url(#clip700)" d="M244.39 49.7694 Q235.356 49.7694 231.872 51.8354 Q228.389 53.9013 228.389 58.8839 Q228.389 62.8538 230.981 65.2034 Q233.614 67.5124 238.111 67.5124 Q244.309 67.5124 248.035 63.1374 Q251.803 58.7219 251.803 51.4303 L251.803 49.7694 L244.39 49.7694 M259.256 46.6907 L259.256 72.576 L251.803 72.576 L251.803 65.6895 Q249.251 69.8214 245.443 71.8063 Q241.635 73.7508 236.126 73.7508 Q229.158 73.7508 225.026 69.8619 Q220.935 65.9325 220.935 59.3701 Q220.935 51.7138 226.039 47.825 Q231.184 43.9361 241.351 43.9361 L251.803 43.9361 L251.803 43.2069 Q251.803 38.0623 248.4 35.2672 Q245.038 32.4315 238.921 32.4315 Q235.032 32.4315 231.346 33.3632 Q227.659 34.295 224.257 36.1584 L224.257 29.2718 Q228.348 27.692 232.196 26.9223 Q236.045 26.1121 239.691 26.1121 Q249.534 26.1121 254.395 31.2163 Q259.256 36.3204 259.256 46.6907 Z" fill="#000000" fill-rule="nonzero" fill-opacity="1" /><path clip-path="url(#clip700)" d="M277.08 65.6895 L290.448 65.6895 L290.448 19.5497 L275.906 22.4663 L275.906 15.0127 L290.367 12.096 L298.55 12.096 L298.55 65.6895 L311.918 65.6895 L311.918 72.576 L277.08 72.576 L277.08 65.6895 Z" fill="#000000" fill-rule="nonzero" fill-opacity="1" /><path clip-path="url(#clip700)" d="M328.365 34.9026 L380.297 34.9026 L380.297 41.7081 L328.365 41.7081 L328.365 34.9026 M328.365 51.4303 L380.297 51.4303 L380.297 58.3168 L328.365 58.3168 L328.365 51.4303 Z" fill="#000000" fill-rule="nonzero" fill-opacity="1" /><path clip-path="url(#clip700)" d="M395.893 12.096 L434.782 12.096 L434.782 15.5798 L412.826 72.576 L404.279 72.576 L424.938 18.9825 L395.893 18.9825 L395.893 12.096 Z" fill="#000000" fill-rule="nonzero" fill-opacity="1" /><path clip-path="url(#clip700)" d="M450.986 71.3202 L450.986 63.8666 Q454.064 65.3249 457.224 66.0946 Q460.384 66.8642 463.422 66.8642 Q471.524 66.8642 475.777 61.436 Q480.071 55.9673 480.679 44.8678 Q478.329 48.3516 474.724 50.215 Q471.119 52.0784 466.744 52.0784 Q457.67 52.0784 452.363 46.6097 Q447.097 41.1005 447.097 31.5808 Q447.097 22.2638 452.606 16.633 Q458.115 11.0023 467.27 11.0023 Q477.762 11.0023 483.271 19.0636 Q488.821 27.0843 488.821 42.3968 Q488.821 56.6965 482.016 65.2439 Q475.251 73.7508 463.787 73.7508 Q460.708 73.7508 457.548 73.1431 Q454.388 72.5355 450.986 71.3202 M467.27 45.678 Q472.78 45.678 475.98 41.9107 Q479.221 38.1433 479.221 31.5808 Q479.221 25.0589 475.98 21.2916 Q472.78 17.4837 467.27 17.4837 Q461.761 17.4837 458.52 21.2916 Q455.32 25.0589 455.32 31.5808 Q455.32 38.1433 458.52 41.9107 Q461.761 45.678 467.27 45.678 Z" fill="#000000" fill-rule="nonzero" fill-opacity="1" /><path clip-path="url(#clip700)" d="M503.526 62.2867 L512.073 62.2867 L512.073 72.576 L503.526 72.576 L503.526 62.2867 Z" fill="#000000" fill-rule="nonzero" fill-opacity="1" /><path clip-path="url(#clip700)" d="M536.946 65.6895 L565.505 65.6895 L565.505 72.576 L527.102 72.576 L527.102 65.6895 Q531.761 60.8689 539.782 52.7671 Q547.843 44.6248 549.909 42.2752 Q553.838 37.8598 555.378 34.8216 Q556.957 31.7429 556.957 28.7857 Q556.957 23.9651 553.555 20.927 Q550.192 17.8888 544.764 17.8888 Q540.916 17.8888 536.622 19.2256 Q532.368 20.5624 527.507 23.2765 L527.507 15.0127 Q532.449 13.0277 536.743 12.015 Q541.037 11.0023 544.602 11.0023 Q554 11.0023 559.59 15.7013 Q565.181 20.4004 565.181 28.2591 Q565.181 31.9859 563.763 35.3482 Q562.386 38.6699 558.699 43.2069 Q557.687 44.3817 552.258 50.0125 Q546.83 55.6027 536.946 65.6895 Z" fill="#000000" fill-rule="nonzero" fill-opacity="1" /><path clip-path="url(#clip700)" d="M605.163 19.2256 L584.504 51.5113 L605.163 51.5113 L605.163 19.2256 M603.016 12.096 L613.305 12.096 L613.305 51.5113 L621.934 51.5113 L621.934 58.3168 L613.305 58.3168 L613.305 72.576 L605.163 72.576 L605.163 58.3168 L577.86 58.3168 L577.86 50.4176 L603.016 12.096 Z" fill="#000000" fill-rule="nonzero" fill-opacity="1" /><path clip-path="url(#clip700)" d="M636.882 65.6895 L650.25 65.6895 L650.25 19.5497 L635.707 22.4663 L635.707 15.0127 L650.169 12.096 L658.351 12.096 L658.351 65.6895 L671.719 65.6895 L671.719 72.576 L636.882 72.576 L636.882 65.6895 Z" fill="#000000" fill-rule="nonzero" fill-opacity="1" /><path clip-path="url(#clip700)" d="M689.098 62.2867 L697.645 62.2867 L697.645 69.2543 L691.002 82.2172 L685.776 82.2172 L689.098 69.2543 L689.098 62.2867 Z" fill="#000000" fill-rule="nonzero" fill-opacity="1" /><path clip-path="url(#clip700)" d="M760.556 49.7694 Q751.522 49.7694 748.039 51.8354 Q744.555 53.9013 744.555 58.8839 Q744.555 62.8538 747.147 65.2034 Q749.78 67.5124 754.277 67.5124 Q760.475 67.5124 764.202 63.1374 Q767.969 58.7219 767.969 51.4303 L767.969 49.7694 L760.556 49.7694 M775.423 46.6907 L775.423 72.576 L767.969 72.576 L767.969 65.6895 Q765.417 69.8214 761.609 71.8063 Q757.801 73.7508 752.292 73.7508 Q745.324 73.7508 741.192 69.8619 Q737.101 65.9325 737.101 59.3701 Q737.101 51.7138 742.205 47.825 Q747.35 43.9361 757.518 43.9361 L767.969 43.9361 L767.969 43.2069 Q767.969 38.0623 764.566 35.2672 Q761.204 32.4315 755.087 32.4315 Q751.198 32.4315 747.512 33.3632 Q743.826 34.295 740.423 36.1584 L740.423 29.2718 Q744.514 27.692 748.363 26.9223 Q752.211 26.1121 755.857 26.1121 Q765.7 26.1121 770.562 31.2163 Q775.423 36.3204 775.423 46.6907 Z" fill="#000000" fill-rule="nonzero" fill-opacity="1" /><path clip-path="url(#clip700)" d="M798.877 65.6895 L827.436 65.6895 L827.436 72.576 L789.034 72.576 L789.034 65.6895 Q793.692 60.8689 801.713 52.7671 Q809.774 44.6248 811.84 42.2752 Q815.77 37.8598 817.309 34.8216 Q818.889 31.7429 818.889 28.7857 Q818.889 23.9651 815.486 20.927 Q812.124 17.8888 806.696 17.8888 Q802.847 17.8888 798.553 19.2256 Q794.3 20.5624 789.439 23.2765 L789.439 15.0127 Q794.381 13.0277 798.675 12.015 Q802.969 11.0023 806.534 11.0023 Q815.932 11.0023 821.522 15.7013 Q827.112 20.4004 827.112 28.2591 Q827.112 31.9859 825.694 35.3482 Q824.317 38.6699 820.631 43.2069 Q819.618 44.3817 814.19 50.0125 Q808.762 55.6027 798.877 65.6895 Z" fill="#000000" fill-rule="nonzero" fill-opacity="1" /><path clip-path="url(#clip700)" d="M844.531 34.9026 L896.464 34.9026 L896.464 41.7081 L844.531 41.7081 L844.531 34.9026 M844.531 51.4303 L896.464 51.4303 L896.464 58.3168 L844.531 58.3168 L844.531 51.4303 Z" fill="#000000" fill-rule="nonzero" fill-opacity="1" /><path clip-path="url(#clip700)" d="M915.543 65.6895 L928.911 65.6895 L928.911 19.5497 L914.369 22.4663 L914.369 15.0127 L928.83 12.096 L937.013 12.096 L937.013 65.6895 L950.381 65.6895 L950.381 72.576 L915.543 72.576 L915.543 65.6895 Z" fill="#000000" fill-rule="nonzero" fill-opacity="1" /><path clip-path="url(#clip700)" d="M966.909 62.2867 L975.456 62.2867 L975.456 72.576 L966.909 72.576 L966.909 62.2867 Z" fill="#000000" fill-rule="nonzero" fill-opacity="1" /><path clip-path="url(#clip700)" d="M1010.78 43.8551 Q1004.95 43.8551 1001.58 46.9743 Q998.263 50.0935 998.263 55.5622 Q998.263 61.0309 1001.58 64.1501 Q1004.95 67.2693 1010.78 67.2693 Q1016.61 67.2693 1019.98 64.1501 Q1023.34 60.9904 1023.34 55.5622 Q1023.34 50.0935 1019.98 46.9743 Q1016.65 43.8551 1010.78 43.8551 M1002.6 40.3713 Q997.331 39.075 994.374 35.4697 Q991.457 31.8644 991.457 26.6793 Q991.457 19.4281 996.602 15.2152 Q1001.79 11.0023 1010.78 11.0023 Q1019.81 11.0023 1024.96 15.2152 Q1030.1 19.4281 1030.1 26.6793 Q1030.1 31.8644 1027.15 35.4697 Q1024.23 39.075 1019 40.3713 Q1024.92 41.7486 1028.2 45.759 Q1031.52 49.7694 1031.52 55.5622 Q1031.52 64.3527 1026.13 69.0517 Q1020.79 73.7508 1010.78 73.7508 Q1000.77 73.7508 995.387 69.0517 Q990.04 64.3527 990.04 55.5622 Q990.04 49.7694 993.361 45.759 Q996.683 41.7486 1002.6 40.3713 M999.6 27.4489 Q999.6 32.148 1002.52 34.7811 Q1005.47 37.4142 1010.78 37.4142 Q1016.05 37.4142 1019 34.7811 Q1022 32.148 1022 27.4489 Q1022 22.7499 1019 20.1168 Q1016.05 17.4837 1010.78 17.4837 Q1005.47 17.4837 1002.52 20.1168 Q999.6 22.7499 999.6 27.4489 Z" fill="#000000" fill-rule="nonzero" fill-opacity="1" /><path clip-path="url(#clip700)" d="M1046.14 12.096 L1078.27 12.096 L1078.27 18.9825 L1053.64 18.9825 L1053.64 33.8088 Q1055.42 33.2012 1057.2 32.9176 Q1058.99 32.5936 1060.77 32.5936 Q1070.9 32.5936 1076.81 38.1433 Q1082.72 43.6931 1082.72 53.1722 Q1082.72 62.9348 1076.65 68.3631 Q1070.57 73.7508 1059.51 73.7508 Q1055.7 73.7508 1051.73 73.1026 Q1047.81 72.4545 1043.59 71.1582 L1043.59 62.9348 Q1047.24 64.9198 1051.13 65.892 Q1055.02 66.8642 1059.35 66.8642 Q1066.36 66.8642 1070.45 63.1779 Q1074.54 59.4916 1074.54 53.1722 Q1074.54 46.8528 1070.45 43.1664 Q1066.36 39.4801 1059.35 39.4801 Q1056.07 39.4801 1052.79 40.2093 Q1049.55 40.9384 1046.14 42.4778 L1046.14 12.096 Z" fill="#000000" fill-rule="nonzero" fill-opacity="1" /><path clip-path="url(#clip700)" d="M1116.35 43.8551 Q1110.51 43.8551 1107.15 46.9743 Q1103.83 50.0935 1103.83 55.5622 Q1103.83 61.0309 1107.15 64.1501 Q1110.51 67.2693 1116.35 67.2693 Q1122.18 67.2693 1125.54 64.1501 Q1128.9 60.9904 1128.9 55.5622 Q1128.9 50.0935 1125.54 46.9743 Q1122.22 43.8551 1116.35 43.8551 M1108.16 40.3713 Q1102.9 39.075 1099.94 35.4697 Q1097.02 31.8644 1097.02 26.6793 Q1097.02 19.4281 1102.17 15.2152 Q1107.35 11.0023 1116.35 11.0023 Q1125.38 11.0023 1130.52 15.2152 Q1135.67 19.4281 1135.67 26.6793 Q1135.67 31.8644 1132.71 35.4697 Q1129.8 39.075 1124.57 40.3713 Q1130.48 41.7486 1133.77 45.759 Q1137.09 49.7694 1137.09 55.5622 Q1137.09 64.3527 1131.7 69.0517 Q1126.35 73.7508 1116.35 73.7508 Q1106.34 73.7508 1100.95 69.0517 Q1095.61 64.3527 1095.61 55.5622 Q1095.61 49.7694 1098.93 45.759 Q1102.25 41.7486 1108.16 40.3713 M1105.17 27.4489 Q1105.17 32.148 1108.08 34.7811 Q1111.04 37.4142 1116.35 37.4142 Q1121.61 37.4142 1124.57 34.7811 Q1127.57 32.148 1127.57 27.4489 Q1127.57 22.7499 1124.57 20.1168 Q1121.61 17.4837 1116.35 17.4837 Q1111.04 17.4837 1108.08 20.1168 Q1105.17 22.7499 1105.17 27.4489 Z" fill="#000000" fill-rule="nonzero" fill-opacity="1" /><path clip-path="url(#clip700)" d="M1151.87 71.3202 L1151.87 63.8666 Q1154.95 65.3249 1158.11 66.0946 Q1161.27 66.8642 1164.31 66.8642 Q1172.41 66.8642 1176.66 61.436 Q1180.96 55.9673 1181.57 44.8678 Q1179.22 48.3516 1175.61 50.215 Q1172.01 52.0784 1167.63 52.0784 Q1158.56 52.0784 1153.25 46.6097 Q1147.98 41.1005 1147.98 31.5808 Q1147.98 22.2638 1153.49 16.633 Q1159 11.0023 1168.16 11.0023 Q1178.65 11.0023 1184.16 19.0636 Q1189.71 27.0843 1189.71 42.3968 Q1189.71 56.6965 1182.9 65.2439 Q1176.14 73.7508 1164.67 73.7508 Q1161.6 73.7508 1158.44 73.1431 Q1155.28 72.5355 1151.87 71.3202 M1168.16 45.678 Q1173.67 45.678 1176.87 41.9107 Q1180.11 38.1433 1180.11 31.5808 Q1180.11 25.0589 1176.87 21.2916 Q1173.67 17.4837 1168.16 17.4837 Q1162.65 17.4837 1159.41 21.2916 Q1156.21 25.0589 1156.21 31.5808 Q1156.21 38.1433 1159.41 41.9107 Q1162.65 45.678 1168.16 45.678 Z" fill="#000000" fill-rule="nonzero" fill-opacity="1" /><path clip-path="url(#clip700)" d="M1205.26 62.2867 L1213.81 62.2867 L1213.81 69.2543 L1207.17 82.2172 L1201.94 82.2172 L1205.26 69.2543 L1205.26 62.2867 Z" fill="#000000" fill-rule="nonzero" fill-opacity="1" /><path clip-path="url(#clip700)" d="M1248.04 12.096 L1299.2 12.096 L1299.2 18.9825 L1277.73 18.9825 L1277.73 72.576 L1269.51 72.576 L1269.51 18.9825 L1248.04 18.9825 L1248.04 12.096 Z" fill="#000000" fill-rule="nonzero" fill-opacity="1" /><path clip-path="url(#clip700)" d="M1325.33 17.4837 Q1319.01 17.4837 1315.81 23.7221 Q1312.65 29.92 1312.65 42.3968 Q1312.65 54.833 1315.81 61.0714 Q1319.01 67.2693 1325.33 67.2693 Q1331.69 67.2693 1334.85 61.0714 Q1338.05 54.833 1338.05 42.3968 Q1338.05 29.92 1334.85 23.7221 Q1331.69 17.4837 1325.33 17.4837 M1325.33 11.0023 Q1335.5 11.0023 1340.85 19.0636 Q1346.24 27.0843 1346.24 42.3968 Q1346.24 57.6687 1340.85 65.73 Q1335.5 73.7508 1325.33 73.7508 Q1315.17 73.7508 1309.78 65.73 Q1304.43 57.6687 1304.43 42.3968 Q1304.43 27.0843 1309.78 19.0636 Q1315.17 11.0023 1325.33 11.0023 Z" fill="#000000" fill-rule="nonzero" fill-opacity="1" /><path clip-path="url(#clip700)" d="M1360.54 34.9026 L1412.47 34.9026 L1412.47 41.7081 L1360.54 41.7081 L1360.54 34.9026 M1360.54 51.4303 L1412.47 51.4303 L1412.47 58.3168 L1360.54 58.3168 L1360.54 51.4303 Z" fill="#000000" fill-rule="nonzero" fill-opacity="1" /><path clip-path="url(#clip700)" d="M1431.55 65.6895 L1444.92 65.6895 L1444.92 19.5497 L1430.37 22.4663 L1430.37 15.0127 L1444.83 12.096 L1453.02 12.096 L1453.02 65.6895 L1466.39 65.6895 L1466.39 72.576 L1431.55 72.576 L1431.55 65.6895 Z" fill="#000000" fill-rule="nonzero" fill-opacity="1" /><path clip-path="url(#clip700)" d="M1480.85 12.096 L1519.74 12.096 L1519.74 15.5798 L1497.78 72.576 L1489.23 72.576 L1509.89 18.9825 L1480.85 18.9825 L1480.85 12.096 Z" fill="#000000" fill-rule="nonzero" fill-opacity="1" /><path clip-path="url(#clip700)" d="M1535.94 71.3202 L1535.94 63.8666 Q1539.02 65.3249 1542.18 66.0946 Q1545.34 66.8642 1548.38 66.8642 Q1556.48 66.8642 1560.73 61.436 Q1565.02 55.9673 1565.63 44.8678 Q1563.28 48.3516 1559.68 50.215 Q1556.07 52.0784 1551.7 52.0784 Q1542.62 52.0784 1537.32 46.6097 Q1532.05 41.1005 1532.05 31.5808 Q1532.05 22.2638 1537.56 16.633 Q1543.07 11.0023 1552.22 11.0023 Q1562.72 11.0023 1568.23 19.0636 Q1573.77 27.0843 1573.77 42.3968 Q1573.77 56.6965 1566.97 65.2439 Q1560.2 73.7508 1548.74 73.7508 Q1545.66 73.7508 1542.5 73.1431 Q1539.34 72.5355 1535.94 71.3202 M1552.22 45.678 Q1557.73 45.678 1560.93 41.9107 Q1564.17 38.1433 1564.17 31.5808 Q1564.17 25.0589 1560.93 21.2916 Q1557.73 17.4837 1552.22 17.4837 Q1546.71 17.4837 1543.47 21.2916 Q1540.27 25.0589 1540.27 31.5808 Q1540.27 38.1433 1543.47 41.9107 Q1546.71 45.678 1552.22 45.678 Z" fill="#000000" fill-rule="nonzero" fill-opacity="1" /><path clip-path="url(#clip700)" d="M1588.48 62.2867 L1597.03 62.2867 L1597.03 72.576 L1588.48 72.576 L1588.48 62.2867 Z" fill="#000000" fill-rule="nonzero" fill-opacity="1" /><path clip-path="url(#clip700)" d="M1615.09 71.3202 L1615.09 63.8666 Q1618.17 65.3249 1621.33 66.0946 Q1624.49 66.8642 1627.53 66.8642 Q1635.63 66.8642 1639.89 61.436 Q1644.18 55.9673 1644.79 44.8678 Q1642.44 48.3516 1638.83 50.215 Q1635.23 52.0784 1630.85 52.0784 Q1621.78 52.0784 1616.47 46.6097 Q1611.21 41.1005 1611.21 31.5808 Q1611.21 22.2638 1616.71 16.633 Q1622.22 11.0023 1631.38 11.0023 Q1641.87 11.0023 1647.38 19.0636 Q1652.93 27.0843 1652.93 42.3968 Q1652.93 56.6965 1646.12 65.2439 Q1639.36 73.7508 1627.89 73.7508 Q1624.82 73.7508 1621.66 73.1431 Q1618.5 72.5355 1615.09 71.3202 M1631.38 45.678 Q1636.89 45.678 1640.09 41.9107 Q1643.33 38.1433 1643.33 31.5808 Q1643.33 25.0589 1640.09 21.2916 Q1636.89 17.4837 1631.38 17.4837 Q1625.87 17.4837 1622.63 21.2916 Q1619.43 25.0589 1619.43 31.5808 Q1619.43 38.1433 1622.63 41.9107 Q1625.87 45.678 1631.38 45.678 Z" fill="#000000" fill-rule="nonzero" fill-opacity="1" /><path clip-path="url(#clip700)" d="M1667.88 71.3202 L1667.88 63.8666 Q1670.96 65.3249 1674.12 66.0946 Q1677.28 66.8642 1680.31 66.8642 Q1688.42 66.8642 1692.67 61.436 Q1696.96 55.9673 1697.57 44.8678 Q1695.22 48.3516 1691.62 50.215 Q1688.01 52.0784 1683.64 52.0784 Q1674.56 52.0784 1669.25 46.6097 Q1663.99 41.1005 1663.99 31.5808 Q1663.99 22.2638 1669.5 16.633 Q1675.01 11.0023 1684.16 11.0023 Q1694.65 11.0023 1700.16 19.0636 Q1705.71 27.0843 1705.71 42.3968 Q1705.71 56.6965 1698.91 65.2439 Q1692.14 73.7508 1680.68 73.7508 Q1677.6 73.7508 1674.44 73.1431 Q1671.28 72.5355 1667.88 71.3202 M1684.16 45.678 Q1689.67 45.678 1692.87 41.9107 Q1696.11 38.1433 1696.11 31.5808 Q1696.11 25.0589 1692.87 21.2916 Q1689.67 17.4837 1684.16 17.4837 Q1678.65 17.4837 1675.41 21.2916 Q1672.21 25.0589 1672.21 31.5808 Q1672.21 38.1433 1675.41 41.9107 Q1678.65 45.678 1684.16 45.678 Z" fill="#000000" fill-rule="nonzero" fill-opacity="1" /><path clip-path="url(#clip700)" d="M1720.66 71.3202 L1720.66 63.8666 Q1723.74 65.3249 1726.9 66.0946 Q1730.06 66.8642 1733.1 66.8642 Q1741.2 66.8642 1745.45 61.436 Q1749.75 55.9673 1750.35 44.8678 Q1748 48.3516 1744.4 50.215 Q1740.79 52.0784 1736.42 52.0784 Q1727.34 52.0784 1722.04 46.6097 Q1716.77 41.1005 1716.77 31.5808 Q1716.77 22.2638 1722.28 16.633 Q1727.79 11.0023 1736.95 11.0023 Q1747.44 11.0023 1752.95 19.0636 Q1758.5 27.0843 1758.5 42.3968 Q1758.5 56.6965 1751.69 65.2439 Q1744.93 73.7508 1733.46 73.7508 Q1730.38 73.7508 1727.22 73.1431 Q1724.06 72.5355 1720.66 71.3202 M1736.95 45.678 Q1742.45 45.678 1745.65 41.9107 Q1748.9 38.1433 1748.9 31.5808 Q1748.9 25.0589 1745.65 21.2916 Q1742.45 17.4837 1736.95 17.4837 Q1731.44 17.4837 1728.2 21.2916 Q1725 25.0589 1725 31.5808 Q1725 38.1433 1728.2 41.9107 Q1731.44 45.678 1736.95 45.678 Z" fill="#000000" fill-rule="nonzero" fill-opacity="1" /><path clip-path="url(#clip700)" d="M1798.84 12.096 L1811.04 12.096 L1826.47 53.2532 L1841.99 12.096 L1854.18 12.096 L1854.18 72.576 L1846.2 72.576 L1846.2 19.4686 L1830.6 60.9499 L1822.38 60.9499 L1806.78 19.4686 L1806.78 72.576 L1798.84 72.576 L1798.84 12.096 Z" fill="#000000" fill-rule="nonzero" fill-opacity="1" /><path clip-path="url(#clip700)" d="M1908.91 48.0275 L1908.91 51.6733 L1874.64 51.6733 Q1875.12 59.3701 1879.25 63.421 Q1883.43 67.4314 1890.84 67.4314 Q1895.13 67.4314 1899.14 66.3781 Q1903.19 65.3249 1907.16 63.2184 L1907.16 70.267 Q1903.15 71.9684 1898.94 72.8596 Q1894.73 73.7508 1890.39 73.7508 Q1879.54 73.7508 1873.18 67.4314 Q1866.86 61.1119 1866.86 50.3365 Q1866.86 39.1965 1872.85 32.6746 Q1878.89 26.1121 1889.1 26.1121 Q1898.25 26.1121 1903.56 32.0264 Q1908.91 37.9003 1908.91 48.0275 M1901.45 45.84 Q1901.37 39.7232 1898.01 36.0774 Q1894.69 32.4315 1889.18 32.4315 Q1882.94 32.4315 1879.17 35.9558 Q1875.45 39.4801 1874.88 45.8805 L1901.45 45.84 Z" fill="#000000" fill-rule="nonzero" fill-opacity="1" /><path clip-path="url(#clip700)" d="M1937.06 72.576 L1913.97 12.096 L1922.52 12.096 L1941.68 63.0159 L1960.88 12.096 L1969.39 12.096 L1946.34 72.576 L1937.06 72.576 Z" fill="#000000" fill-rule="nonzero" fill-opacity="1" /><path clip-path="url(#clip700)" d="M1979.8 62.2867 L1988.34 62.2867 L1988.34 69.2543 L1981.7 82.2172 L1976.48 82.2172 L1979.8 69.2543 L1979.8 62.2867 Z" fill="#000000" fill-rule="nonzero" fill-opacity="1" /><path clip-path="url(#clip700)" d="M2022.57 12.096 L2073.74 12.096 L2073.74 18.9825 L2052.27 18.9825 L2052.27 72.576 L2044.04 72.576 L2044.04 18.9825 L2022.57 18.9825 L2022.57 12.096 Z" fill="#000000" fill-rule="nonzero" fill-opacity="1" /><path clip-path="url(#clip700)" d="M2088.52 65.7705 L2088.52 89.8329 L2081.03 89.8329 L2081.03 27.2059 L2088.52 27.2059 L2088.52 34.0924 Q2090.87 30.0415 2094.44 28.0971 Q2098.04 26.1121 2103.03 26.1121 Q2111.29 26.1121 2116.43 32.6746 Q2121.62 39.2371 2121.62 49.9314 Q2121.62 60.6258 2116.43 67.1883 Q2111.29 73.7508 2103.03 73.7508 Q2098.04 73.7508 2094.44 71.8063 Q2090.87 69.8214 2088.52 65.7705 M2113.88 49.9314 Q2113.88 41.7081 2110.48 37.0496 Q2107.12 32.3505 2101.2 32.3505 Q2095.29 32.3505 2091.89 37.0496 Q2088.52 41.7081 2088.52 49.9314 Q2088.52 58.1548 2091.89 62.8538 Q2095.29 67.5124 2101.2 67.5124 Q2107.12 67.5124 2110.48 62.8538 Q2113.88 58.1548 2113.88 49.9314 Z" fill="#000000" fill-rule="nonzero" fill-opacity="1" /><path clip-path="url(#clip700)" d="M2166.62 28.9478 L2166.62 35.9153 Q2163.46 34.1734 2160.26 33.3227 Q2157.11 32.4315 2153.86 32.4315 Q2146.61 32.4315 2142.6 37.0496 Q2138.59 41.6271 2138.59 49.9314 Q2138.59 58.2358 2142.6 62.8538 Q2146.61 67.4314 2153.86 67.4314 Q2157.11 67.4314 2160.26 66.5807 Q2163.46 65.6895 2166.62 63.9476 L2166.62 70.8341 Q2163.51 72.2924 2160.14 73.0216 Q2156.82 73.7508 2153.05 73.7508 Q2142.81 73.7508 2136.77 67.3098 Q2130.73 60.8689 2130.73 49.9314 Q2130.73 38.832 2136.81 32.472 Q2142.93 26.1121 2153.54 26.1121 Q2156.98 26.1121 2160.26 26.8413 Q2163.55 27.5299 2166.62 28.9478 Z" fill="#000000" fill-rule="nonzero" fill-opacity="1" /><path clip-path="url(#clip700)" d="M2180.56 34.9026 L2232.49 34.9026 L2232.49 41.7081 L2180.56 41.7081 L2180.56 34.9026 M2180.56 51.4303 L2232.49 51.4303 L2232.49 58.3168 L2180.56 58.3168 L2180.56 51.4303 Z" fill="#000000" fill-rule="nonzero" fill-opacity="1" /><path clip-path="url(#clip700)" d="M2251.57 65.6895 L2264.94 65.6895 L2264.94 19.5497 L2250.4 22.4663 L2250.4 15.0127 L2264.86 12.096 L2273.04 12.096 L2273.04 65.6895 L2286.41 65.6895 L2286.41 72.576 L2251.57 72.576 L2251.57 65.6895 Z" fill="#000000" fill-rule="nonzero" fill-opacity="1" /><path clip-path="url(#clip700)" d="M2321.45 39.075 Q2315.94 39.075 2312.7 42.8424 Q2309.5 46.6097 2309.5 53.1722 Q2309.5 59.6941 2312.7 63.502 Q2315.94 67.2693 2321.45 67.2693 Q2326.96 67.2693 2330.16 63.502 Q2333.4 59.6941 2333.4 53.1722 Q2333.4 46.6097 2330.16 42.8424 Q2326.96 39.075 2321.45 39.075 M2337.69 13.4328 L2337.69 20.8865 Q2334.62 19.4281 2331.46 18.6585 Q2328.34 17.8888 2325.26 17.8888 Q2317.16 17.8888 2312.86 23.3575 Q2308.61 28.8262 2308 39.8852 Q2310.39 36.3609 2314 34.4975 Q2317.6 32.5936 2321.94 32.5936 Q2331.05 32.5936 2336.32 38.1433 Q2341.62 43.6525 2341.62 53.1722 Q2341.62 62.4892 2336.11 68.12 Q2330.61 73.7508 2321.45 73.7508 Q2310.96 73.7508 2305.41 65.73 Q2299.86 57.6687 2299.86 42.3968 Q2299.86 28.0566 2306.66 19.5497 Q2313.47 11.0023 2324.93 11.0023 Q2328.01 11.0023 2331.13 11.6099 Q2334.29 12.2175 2337.69 13.4328 Z" fill="#000000" fill-rule="nonzero" fill-opacity="1" /><path clip-path="url(#clip700)" d="M2355.8 12.096 L2387.93 12.096 L2387.93 18.9825 L2363.3 18.9825 L2363.3 33.8088 Q2365.08 33.2012 2366.86 32.9176 Q2368.64 32.5936 2370.43 32.5936 Q2380.55 32.5936 2386.47 38.1433 Q2392.38 43.6931 2392.38 53.1722 Q2392.38 62.9348 2386.31 68.3631 Q2380.23 73.7508 2369.17 73.7508 Q2365.36 73.7508 2361.39 73.1026 Q2357.46 72.4545 2353.25 71.1582 L2353.25 62.9348 Q2356.9 64.9198 2360.78 65.892 Q2364.67 66.8642 2369.01 66.8642 Q2376.02 66.8642 2380.11 63.1779 Q2384.2 59.4916 2384.2 53.1722 Q2384.2 46.8528 2380.11 43.1664 Q2376.02 39.4801 2369.01 39.4801 Q2365.73 39.4801 2362.45 40.2093 Q2359.2 40.9384 2355.8 42.4778 L2355.8 12.096 Z" fill="#000000" fill-rule="nonzero" fill-opacity="1" /><path clip-path="url(#clip700)" d="M2408.5 62.2867 L2417.05 62.2867 L2417.05 72.576 L2408.5 72.576 L2408.5 62.2867 Z" fill="#000000" fill-rule="nonzero" fill-opacity="1" /><path clip-path="url(#clip700)" d="M2432.81 12.096 L2471.7 12.096 L2471.7 15.5798 L2449.74 72.576 L2441.19 72.576 L2461.85 18.9825 L2432.81 18.9825 L2432.81 12.096 Z" fill="#000000" fill-rule="nonzero" fill-opacity="1" /><path clip-path="url(#clip700)" d="M2506.17 39.075 Q2500.66 39.075 2497.42 42.8424 Q2494.22 46.6097 2494.22 53.1722 Q2494.22 59.6941 2497.42 63.502 Q2500.66 67.2693 2506.17 67.2693 Q2511.68 67.2693 2514.88 63.502 Q2518.12 59.6941 2518.12 53.1722 Q2518.12 46.6097 2514.88 42.8424 Q2511.68 39.075 2506.17 39.075 M2522.42 13.4328 L2522.42 20.8865 Q2519.34 19.4281 2516.18 18.6585 Q2513.06 17.8888 2509.98 17.8888 Q2501.88 17.8888 2497.58 23.3575 Q2493.33 28.8262 2492.72 39.8852 Q2495.11 36.3609 2498.72 34.4975 Q2502.32 32.5936 2506.66 32.5936 Q2515.77 32.5936 2521.04 38.1433 Q2526.34 43.6525 2526.34 53.1722 Q2526.34 62.4892 2520.84 68.12 Q2515.33 73.7508 2506.17 73.7508 Q2495.68 73.7508 2490.13 65.73 Q2484.58 57.6687 2484.58 42.3968 Q2484.58 28.0566 2491.39 19.5497 Q2498.19 11.0023 2509.66 11.0023 Q2512.73 11.0023 2515.85 11.6099 Q2519.01 12.2175 2522.42 13.4328 Z" fill="#000000" fill-rule="nonzero" fill-opacity="1" /><path clip-path="url(#clip700)" d="M2566.08 12.096 L2578.28 12.096 L2593.71 53.2532 L2609.23 12.096 L2621.42 12.096 L2621.42 72.576 L2613.44 72.576 L2613.44 19.4686 L2597.84 60.9499 L2589.62 60.9499 L2574.02 19.4686 L2574.02 72.576 L2566.08 72.576 L2566.08 12.096 Z" fill="#000000" fill-rule="nonzero" fill-opacity="1" /><path clip-path="url(#clip700)" d="M2676.15 48.0275 L2676.15 51.6733 L2641.88 51.6733 Q2642.36 59.3701 2646.49 63.421 Q2650.67 67.4314 2658.08 67.4314 Q2662.37 67.4314 2666.38 66.3781 Q2670.44 65.3249 2674.41 63.2184 L2674.41 70.267 Q2670.4 71.9684 2666.18 72.8596 Q2661.97 73.7508 2657.63 73.7508 Q2646.78 73.7508 2640.42 67.4314 Q2634.1 61.1119 2634.1 50.3365 Q2634.1 39.1965 2640.09 32.6746 Q2646.13 26.1121 2656.34 26.1121 Q2665.49 26.1121 2670.8 32.0264 Q2676.15 37.9003 2676.15 48.0275 M2668.69 45.84 Q2668.61 39.7232 2665.25 36.0774 Q2661.93 32.4315 2656.42 32.4315 Q2650.18 32.4315 2646.41 35.9558 Q2642.69 39.4801 2642.12 45.8805 L2668.69 45.84 Z" fill="#000000" fill-rule="nonzero" fill-opacity="1" /><path clip-path="url(#clip700)" d="M2704.3 72.576 L2681.21 12.096 L2689.76 12.096 L2708.92 63.0159 L2728.12 12.096 L2736.63 12.096 L2713.58 72.576 L2704.3 72.576 Z" fill="#000000" fill-rule="nonzero" fill-opacity="1" /><polyline clip-path="url(#clip702)" style="stroke:#000000; stroke-linecap:round; stroke-linejoin:round; stroke-width:4; stroke-opacity:1; fill:none" points="263.091,1238.05 263.091,1196.14 "/>
<polyline clip-path="url(#clip702)" style="stroke:#000000; stroke-linecap:round; stroke-linejoin:round; stroke-width:4; stroke-opacity:1; fill:none" points="300.662,1221.71 300.662,1161.34 "/>
<polyline clip-path="url(#clip702)" style="stroke:#000000; stroke-linecap:round; stroke-linejoin:round; stroke-width:4; stroke-opacity:1; fill:none" points="338.232,1194.01 338.232,1125.12 "/>
<polyline clip-path="url(#clip702)" style="stroke:#000000; stroke-linecap:round; stroke-linejoin:round; stroke-width:4; stroke-opacity:1; fill:none" points="375.803,1159.92 375.803,1083.93 "/>
<polyline clip-path="url(#clip702)" style="stroke:#000000; stroke-linecap:round; stroke-linejoin:round; stroke-width:4; stroke-opacity:1; fill:none" points="413.373,1121.93 413.373,1038.12 "/>
<polyline clip-path="url(#clip702)" style="stroke:#000000; stroke-linecap:round; stroke-linejoin:round; stroke-width:4; stroke-opacity:1; fill:none" points="450.943,1079.67 450.943,989.473 "/>
<polyline clip-path="url(#clip702)" style="stroke:#000000; stroke-linecap:round; stroke-linejoin:round; stroke-width:4; stroke-opacity:1; fill:none" points="488.514,1035.28 488.514,940.114 "/>
<polyline clip-path="url(#clip702)" style="stroke:#000000; stroke-linecap:round; stroke-linejoin:round; stroke-width:4; stroke-opacity:1; fill:none" points="526.084,990.183 526.084,891.464 "/>
<polyline clip-path="url(#clip702)" style="stroke:#000000; stroke-linecap:round; stroke-linejoin:round; stroke-width:4; stroke-opacity:1; fill:none" points="563.655,944.02 563.655,843.881 "/>
<polyline clip-path="url(#clip702)" style="stroke:#000000; stroke-linecap:round; stroke-linejoin:round; stroke-width:4; stroke-opacity:1; fill:none" points="601.225,900.342 601.225,799.493 "/>
<polyline clip-path="url(#clip702)" style="stroke:#000000; stroke-linecap:round; stroke-linejoin:round; stroke-width:4; stroke-opacity:1; fill:none" points="638.795,858.085 638.795,757.945 "/>
<polyline clip-path="url(#clip702)" style="stroke:#000000; stroke-linecap:round; stroke-linejoin:round; stroke-width:4; stroke-opacity:1; fill:none" points="676.366,819.378 676.366,718.529 "/>
<polyline clip-path="url(#clip702)" style="stroke:#000000; stroke-linecap:round; stroke-linejoin:round; stroke-width:4; stroke-opacity:1; fill:none" points="713.936,780.672 713.936,683.374 "/>
<polyline clip-path="url(#clip702)" style="stroke:#000000; stroke-linecap:round; stroke-linejoin:round; stroke-width:4; stroke-opacity:1; fill:none" points="751.506,746.582 751.506,650.704 "/>
<polyline clip-path="url(#clip702)" style="stroke:#000000; stroke-linecap:round; stroke-linejoin:round; stroke-width:4; stroke-opacity:1; fill:none" points="789.077,714.978 789.077,621.23 "/>
<polyline clip-path="url(#clip702)" style="stroke:#000000; stroke-linecap:round; stroke-linejoin:round; stroke-width:4; stroke-opacity:1; fill:none" points="826.647,685.149 826.647,594.242 "/>
<polyline clip-path="url(#clip702)" style="stroke:#000000; stroke-linecap:round; stroke-linejoin:round; stroke-width:4; stroke-opacity:1; fill:none" points="864.218,658.161 864.218,568.675 "/>
<polyline clip-path="url(#clip702)" style="stroke:#000000; stroke-linecap:round; stroke-linejoin:round; stroke-width:4; stroke-opacity:1; fill:none" points="901.788,632.594 901.788,545.948 "/>
<polyline clip-path="url(#clip702)" style="stroke:#000000; stroke-linecap:round; stroke-linejoin:round; stroke-width:4; stroke-opacity:1; fill:none" points="939.358,609.867 939.358,524.642 "/>
<polyline clip-path="url(#clip702)" style="stroke:#000000; stroke-linecap:round; stroke-linejoin:round; stroke-width:4; stroke-opacity:1; fill:none" points="976.929,588.206 976.929,505.111 "/>
<polyline clip-path="url(#clip702)" style="stroke:#000000; stroke-linecap:round; stroke-linejoin:round; stroke-width:4; stroke-opacity:1; fill:none" points="1014.5,568.32 1014.5,485.226 "/>
<polyline clip-path="url(#clip702)" style="stroke:#000000; stroke-linecap:round; stroke-linejoin:round; stroke-width:4; stroke-opacity:1; fill:none" points="1052.07,549.854 1052.07,466.76 "/>
<polyline clip-path="url(#clip702)" style="stroke:#000000; stroke-linecap:round; stroke-linejoin:round; stroke-width:4; stroke-opacity:1; fill:none" points="1089.64,531.744 1089.64,449.36 "/>
<polyline clip-path="url(#clip702)" style="stroke:#000000; stroke-linecap:round; stroke-linejoin:round; stroke-width:4; stroke-opacity:1; fill:none" points="1127.21,514.344 1127.21,432.67 "/>
<polyline clip-path="url(#clip702)" style="stroke:#000000; stroke-linecap:round; stroke-linejoin:round; stroke-width:4; stroke-opacity:1; fill:none" points="1164.78,497.654 1164.78,416.69 "/>
<polyline clip-path="url(#clip702)" style="stroke:#000000; stroke-linecap:round; stroke-linejoin:round; stroke-width:4; stroke-opacity:1; fill:none" points="1202.35,482.74 1202.35,401.776 "/>
<polyline clip-path="url(#clip702)" style="stroke:#000000; stroke-linecap:round; stroke-linejoin:round; stroke-width:4; stroke-opacity:1; fill:none" points="1239.92,468.181 1239.92,386.507 "/>
<polyline clip-path="url(#clip702)" style="stroke:#000000; stroke-linecap:round; stroke-linejoin:round; stroke-width:4; stroke-opacity:1; fill:none" points="1277.49,453.976 1277.49,372.302 "/>
<polyline clip-path="url(#clip702)" style="stroke:#000000; stroke-linecap:round; stroke-linejoin:round; stroke-width:4; stroke-opacity:1; fill:none" points="1315.06,440.127 1315.06,359.164 "/>
<polyline clip-path="url(#clip702)" style="stroke:#000000; stroke-linecap:round; stroke-linejoin:round; stroke-width:4; stroke-opacity:1; fill:none" points="1352.63,427.344 1352.63,346.38 "/>
<polyline clip-path="url(#clip702)" style="stroke:#000000; stroke-linecap:round; stroke-linejoin:round; stroke-width:4; stroke-opacity:1; fill:none" points="1390.2,415.27 1390.2,334.306 "/>
<polyline clip-path="url(#clip702)" style="stroke:#000000; stroke-linecap:round; stroke-linejoin:round; stroke-width:4; stroke-opacity:1; fill:none" points="1427.77,403.197 1427.77,322.233 "/>
<polyline clip-path="url(#clip702)" style="stroke:#000000; stroke-linecap:round; stroke-linejoin:round; stroke-width:4; stroke-opacity:1; fill:none" points="1465.34,392.188 1465.34,311.935 "/>
<polyline clip-path="url(#clip702)" style="stroke:#000000; stroke-linecap:round; stroke-linejoin:round; stroke-width:4; stroke-opacity:1; fill:none" points="1502.91,380.47 1502.91,300.927 "/>
<polyline clip-path="url(#clip702)" style="stroke:#000000; stroke-linecap:round; stroke-linejoin:round; stroke-width:4; stroke-opacity:1; fill:none" points="1540.48,370.527 1540.48,290.984 "/>
<polyline clip-path="url(#clip702)" style="stroke:#000000; stroke-linecap:round; stroke-linejoin:round; stroke-width:4; stroke-opacity:1; fill:none" points="1578.05,360.229 1578.05,281.396 "/>
<polyline clip-path="url(#clip702)" style="stroke:#000000; stroke-linecap:round; stroke-linejoin:round; stroke-width:4; stroke-opacity:1; fill:none" points="1615.63,350.996 1615.63,272.163 "/>
<polyline clip-path="url(#clip702)" style="stroke:#000000; stroke-linecap:round; stroke-linejoin:round; stroke-width:4; stroke-opacity:1; fill:none" points="1653.2,342.474 1653.2,263.641 "/>
<polyline clip-path="url(#clip702)" style="stroke:#000000; stroke-linecap:round; stroke-linejoin:round; stroke-width:4; stroke-opacity:1; fill:none" points="1690.77,333.596 1690.77,255.473 "/>
<polyline clip-path="url(#clip702)" style="stroke:#000000; stroke-linecap:round; stroke-linejoin:round; stroke-width:4; stroke-opacity:1; fill:none" points="1728.34,324.719 1728.34,247.306 "/>
<polyline clip-path="url(#clip702)" style="stroke:#000000; stroke-linecap:round; stroke-linejoin:round; stroke-width:4; stroke-opacity:1; fill:none" points="1765.91,316.551 1765.91,239.849 "/>
<polyline clip-path="url(#clip702)" style="stroke:#000000; stroke-linecap:round; stroke-linejoin:round; stroke-width:4; stroke-opacity:1; fill:none" points="1803.48,309.449 1803.48,232.747 "/>
<polyline clip-path="url(#clip702)" style="stroke:#000000; stroke-linecap:round; stroke-linejoin:round; stroke-width:4; stroke-opacity:1; fill:none" points="1841.05,301.992 1841.05,226 "/>
<polyline clip-path="url(#clip702)" style="stroke:#000000; stroke-linecap:round; stroke-linejoin:round; stroke-width:4; stroke-opacity:1; fill:none" points="1878.62,294.89 1878.62,218.898 "/>
<polyline clip-path="url(#clip702)" style="stroke:#000000; stroke-linecap:round; stroke-linejoin:round; stroke-width:4; stroke-opacity:1; fill:none" points="1916.19,288.143 1916.19,212.861 "/>
<polyline clip-path="url(#clip702)" style="stroke:#000000; stroke-linecap:round; stroke-linejoin:round; stroke-width:4; stroke-opacity:1; fill:none" points="1953.76,281.751 1953.76,206.469 "/>
<polyline clip-path="url(#clip702)" style="stroke:#000000; stroke-linecap:round; stroke-linejoin:round; stroke-width:4; stroke-opacity:1; fill:none" points="1991.33,276.069 1991.33,200.787 "/>
<polyline clip-path="url(#clip702)" style="stroke:#000000; stroke-linecap:round; stroke-linejoin:round; stroke-width:4; stroke-opacity:1; fill:none" points="2028.9,270.388 2028.9,195.106 "/>
<polyline clip-path="url(#clip702)" style="stroke:#000000; stroke-linecap:round; stroke-linejoin:round; stroke-width:4; stroke-opacity:1; fill:none" points="2066.47,264.706 2066.47,189.424 "/>
<polyline clip-path="url(#clip702)" style="stroke:#000000; stroke-linecap:round; stroke-linejoin:round; stroke-width:4; stroke-opacity:1; fill:none" points="2104.04,259.735 2104.04,184.452 "/>
<polyline clip-path="url(#clip702)" style="stroke:#000000; stroke-linecap:round; stroke-linejoin:round; stroke-width:4; stroke-opacity:1; fill:none" points="2141.61,254.763 2141.61,179.481 "/>
<polyline clip-path="url(#clip702)" style="stroke:#000000; stroke-linecap:round; stroke-linejoin:round; stroke-width:4; stroke-opacity:1; fill:none" points="2179.18,249.792 2179.18,174.51 "/>
<polyline clip-path="url(#clip702)" style="stroke:#000000; stroke-linecap:round; stroke-linejoin:round; stroke-width:4; stroke-opacity:1; fill:none" points="2216.75,244.82 2216.75,169.538 "/>
<polyline clip-path="url(#clip702)" style="stroke:#000000; stroke-linecap:round; stroke-linejoin:round; stroke-width:4; stroke-opacity:1; fill:none" points="2254.32,240.559 2254.32,165.277 "/>
<polyline clip-path="url(#clip702)" style="stroke:#000000; stroke-linecap:round; stroke-linejoin:round; stroke-width:4; stroke-opacity:1; fill:none" points="2291.89,235.587 2291.89,160.305 "/>
<line clip-path="url(#clip702)" x1="279.091" y1="1238.05" x2="247.091" y2="1238.05" style="stroke:#000000; stroke-width:4; stroke-opacity:1"/>
<line clip-path="url(#clip702)" x1="279.091" y1="1196.14" x2="247.091" y2="1196.14" style="stroke:#000000; stroke-width:4; stroke-opacity:1"/>
<line clip-path="url(#clip702)" x1="316.662" y1="1221.71" x2="284.662" y2="1221.71" style="stroke:#000000; stroke-width:4; stroke-opacity:1"/>
<line clip-path="url(#clip702)" x1="316.662" y1="1161.34" x2="284.662" y2="1161.34" style="stroke:#000000; stroke-width:4; stroke-opacity:1"/>
<line clip-path="url(#clip702)" x1="354.232" y1="1194.01" x2="322.232" y2="1194.01" style="stroke:#000000; stroke-width:4; stroke-opacity:1"/>
<line clip-path="url(#clip702)" x1="354.232" y1="1125.12" x2="322.232" y2="1125.12" style="stroke:#000000; stroke-width:4; stroke-opacity:1"/>
<line clip-path="url(#clip702)" x1="391.803" y1="1159.92" x2="359.803" y2="1159.92" style="stroke:#000000; stroke-width:4; stroke-opacity:1"/>
<line clip-path="url(#clip702)" x1="391.803" y1="1083.93" x2="359.803" y2="1083.93" style="stroke:#000000; stroke-width:4; stroke-opacity:1"/>
<line clip-path="url(#clip702)" x1="429.373" y1="1121.93" x2="397.373" y2="1121.93" style="stroke:#000000; stroke-width:4; stroke-opacity:1"/>
<line clip-path="url(#clip702)" x1="429.373" y1="1038.12" x2="397.373" y2="1038.12" style="stroke:#000000; stroke-width:4; stroke-opacity:1"/>
<line clip-path="url(#clip702)" x1="466.943" y1="1079.67" x2="434.943" y2="1079.67" style="stroke:#000000; stroke-width:4; stroke-opacity:1"/>
<line clip-path="url(#clip702)" x1="466.943" y1="989.473" x2="434.943" y2="989.473" style="stroke:#000000; stroke-width:4; stroke-opacity:1"/>
<line clip-path="url(#clip702)" x1="504.514" y1="1035.28" x2="472.514" y2="1035.28" style="stroke:#000000; stroke-width:4; stroke-opacity:1"/>
<line clip-path="url(#clip702)" x1="504.514" y1="940.114" x2="472.514" y2="940.114" style="stroke:#000000; stroke-width:4; stroke-opacity:1"/>
<line clip-path="url(#clip702)" x1="542.084" y1="990.183" x2="510.084" y2="990.183" style="stroke:#000000; stroke-width:4; stroke-opacity:1"/>
<line clip-path="url(#clip702)" x1="542.084" y1="891.464" x2="510.084" y2="891.464" style="stroke:#000000; stroke-width:4; stroke-opacity:1"/>
<line clip-path="url(#clip702)" x1="579.655" y1="944.02" x2="547.655" y2="944.02" style="stroke:#000000; stroke-width:4; stroke-opacity:1"/>
<line clip-path="url(#clip702)" x1="579.655" y1="843.881" x2="547.655" y2="843.881" style="stroke:#000000; stroke-width:4; stroke-opacity:1"/>
<line clip-path="url(#clip702)" x1="617.225" y1="900.342" x2="585.225" y2="900.342" style="stroke:#000000; stroke-width:4; stroke-opacity:1"/>
<line clip-path="url(#clip702)" x1="617.225" y1="799.493" x2="585.225" y2="799.493" style="stroke:#000000; stroke-width:4; stroke-opacity:1"/>
<line clip-path="url(#clip702)" x1="654.795" y1="858.085" x2="622.795" y2="858.085" style="stroke:#000000; stroke-width:4; stroke-opacity:1"/>
<line clip-path="url(#clip702)" x1="654.795" y1="757.945" x2="622.795" y2="757.945" style="stroke:#000000; stroke-width:4; stroke-opacity:1"/>
<line clip-path="url(#clip702)" x1="692.366" y1="819.378" x2="660.366" y2="819.378" style="stroke:#000000; stroke-width:4; stroke-opacity:1"/>
<line clip-path="url(#clip702)" x1="692.366" y1="718.529" x2="660.366" y2="718.529" style="stroke:#000000; stroke-width:4; stroke-opacity:1"/>
<line clip-path="url(#clip702)" x1="729.936" y1="780.672" x2="697.936" y2="780.672" style="stroke:#000000; stroke-width:4; stroke-opacity:1"/>
<line clip-path="url(#clip702)" x1="729.936" y1="683.374" x2="697.936" y2="683.374" style="stroke:#000000; stroke-width:4; stroke-opacity:1"/>
<line clip-path="url(#clip702)" x1="767.506" y1="746.582" x2="735.506" y2="746.582" style="stroke:#000000; stroke-width:4; stroke-opacity:1"/>
<line clip-path="url(#clip702)" x1="767.506" y1="650.704" x2="735.506" y2="650.704" style="stroke:#000000; stroke-width:4; stroke-opacity:1"/>
<line clip-path="url(#clip702)" x1="805.077" y1="714.978" x2="773.077" y2="714.978" style="stroke:#000000; stroke-width:4; stroke-opacity:1"/>
<line clip-path="url(#clip702)" x1="805.077" y1="621.23" x2="773.077" y2="621.23" style="stroke:#000000; stroke-width:4; stroke-opacity:1"/>
<line clip-path="url(#clip702)" x1="842.647" y1="685.149" x2="810.647" y2="685.149" style="stroke:#000000; stroke-width:4; stroke-opacity:1"/>
<line clip-path="url(#clip702)" x1="842.647" y1="594.242" x2="810.647" y2="594.242" style="stroke:#000000; stroke-width:4; stroke-opacity:1"/>
<line clip-path="url(#clip702)" x1="880.218" y1="658.161" x2="848.218" y2="658.161" style="stroke:#000000; stroke-width:4; stroke-opacity:1"/>
<line clip-path="url(#clip702)" x1="880.218" y1="568.675" x2="848.218" y2="568.675" style="stroke:#000000; stroke-width:4; stroke-opacity:1"/>
<line clip-path="url(#clip702)" x1="917.788" y1="632.594" x2="885.788" y2="632.594" style="stroke:#000000; stroke-width:4; stroke-opacity:1"/>
<line clip-path="url(#clip702)" x1="917.788" y1="545.948" x2="885.788" y2="545.948" style="stroke:#000000; stroke-width:4; stroke-opacity:1"/>
<line clip-path="url(#clip702)" x1="955.358" y1="609.867" x2="923.358" y2="609.867" style="stroke:#000000; stroke-width:4; stroke-opacity:1"/>
<line clip-path="url(#clip702)" x1="955.358" y1="524.642" x2="923.358" y2="524.642" style="stroke:#000000; stroke-width:4; stroke-opacity:1"/>
<line clip-path="url(#clip702)" x1="992.929" y1="588.206" x2="960.929" y2="588.206" style="stroke:#000000; stroke-width:4; stroke-opacity:1"/>
<line clip-path="url(#clip702)" x1="992.929" y1="505.111" x2="960.929" y2="505.111" style="stroke:#000000; stroke-width:4; stroke-opacity:1"/>
<line clip-path="url(#clip702)" x1="1030.5" y1="568.32" x2="998.499" y2="568.32" style="stroke:#000000; stroke-width:4; stroke-opacity:1"/>
<line clip-path="url(#clip702)" x1="1030.5" y1="485.226" x2="998.499" y2="485.226" style="stroke:#000000; stroke-width:4; stroke-opacity:1"/>
<line clip-path="url(#clip702)" x1="1068.07" y1="549.854" x2="1036.07" y2="549.854" style="stroke:#000000; stroke-width:4; stroke-opacity:1"/>
<line clip-path="url(#clip702)" x1="1068.07" y1="466.76" x2="1036.07" y2="466.76" style="stroke:#000000; stroke-width:4; stroke-opacity:1"/>
<line clip-path="url(#clip702)" x1="1105.64" y1="531.744" x2="1073.64" y2="531.744" style="stroke:#000000; stroke-width:4; stroke-opacity:1"/>
<line clip-path="url(#clip702)" x1="1105.64" y1="449.36" x2="1073.64" y2="449.36" style="stroke:#000000; stroke-width:4; stroke-opacity:1"/>
<line clip-path="url(#clip702)" x1="1143.21" y1="514.344" x2="1111.21" y2="514.344" style="stroke:#000000; stroke-width:4; stroke-opacity:1"/>
<line clip-path="url(#clip702)" x1="1143.21" y1="432.67" x2="1111.21" y2="432.67" style="stroke:#000000; stroke-width:4; stroke-opacity:1"/>
<line clip-path="url(#clip702)" x1="1180.78" y1="497.654" x2="1148.78" y2="497.654" style="stroke:#000000; stroke-width:4; stroke-opacity:1"/>
<line clip-path="url(#clip702)" x1="1180.78" y1="416.69" x2="1148.78" y2="416.69" style="stroke:#000000; stroke-width:4; stroke-opacity:1"/>
<line clip-path="url(#clip702)" x1="1218.35" y1="482.74" x2="1186.35" y2="482.74" style="stroke:#000000; stroke-width:4; stroke-opacity:1"/>
<line clip-path="url(#clip702)" x1="1218.35" y1="401.776" x2="1186.35" y2="401.776" style="stroke:#000000; stroke-width:4; stroke-opacity:1"/>
<line clip-path="url(#clip702)" x1="1255.92" y1="468.181" x2="1223.92" y2="468.181" style="stroke:#000000; stroke-width:4; stroke-opacity:1"/>
<line clip-path="url(#clip702)" x1="1255.92" y1="386.507" x2="1223.92" y2="386.507" style="stroke:#000000; stroke-width:4; stroke-opacity:1"/>
<line clip-path="url(#clip702)" x1="1293.49" y1="453.976" x2="1261.49" y2="453.976" style="stroke:#000000; stroke-width:4; stroke-opacity:1"/>
<line clip-path="url(#clip702)" x1="1293.49" y1="372.302" x2="1261.49" y2="372.302" style="stroke:#000000; stroke-width:4; stroke-opacity:1"/>
<line clip-path="url(#clip702)" x1="1331.06" y1="440.127" x2="1299.06" y2="440.127" style="stroke:#000000; stroke-width:4; stroke-opacity:1"/>
<line clip-path="url(#clip702)" x1="1331.06" y1="359.164" x2="1299.06" y2="359.164" style="stroke:#000000; stroke-width:4; stroke-opacity:1"/>
<line clip-path="url(#clip702)" x1="1368.63" y1="427.344" x2="1336.63" y2="427.344" style="stroke:#000000; stroke-width:4; stroke-opacity:1"/>
<line clip-path="url(#clip702)" x1="1368.63" y1="346.38" x2="1336.63" y2="346.38" style="stroke:#000000; stroke-width:4; stroke-opacity:1"/>
<line clip-path="url(#clip702)" x1="1406.2" y1="415.27" x2="1374.2" y2="415.27" style="stroke:#000000; stroke-width:4; stroke-opacity:1"/>
<line clip-path="url(#clip702)" x1="1406.2" y1="334.306" x2="1374.2" y2="334.306" style="stroke:#000000; stroke-width:4; stroke-opacity:1"/>
<line clip-path="url(#clip702)" x1="1443.77" y1="403.197" x2="1411.77" y2="403.197" style="stroke:#000000; stroke-width:4; stroke-opacity:1"/>
<line clip-path="url(#clip702)" x1="1443.77" y1="322.233" x2="1411.77" y2="322.233" style="stroke:#000000; stroke-width:4; stroke-opacity:1"/>
<line clip-path="url(#clip702)" x1="1481.34" y1="392.188" x2="1449.34" y2="392.188" style="stroke:#000000; stroke-width:4; stroke-opacity:1"/>
<line clip-path="url(#clip702)" x1="1481.34" y1="311.935" x2="1449.34" y2="311.935" style="stroke:#000000; stroke-width:4; stroke-opacity:1"/>
<line clip-path="url(#clip702)" x1="1518.91" y1="380.47" x2="1486.91" y2="380.47" style="stroke:#000000; stroke-width:4; stroke-opacity:1"/>
<line clip-path="url(#clip702)" x1="1518.91" y1="300.927" x2="1486.91" y2="300.927" style="stroke:#000000; stroke-width:4; stroke-opacity:1"/>
<line clip-path="url(#clip702)" x1="1556.48" y1="370.527" x2="1524.48" y2="370.527" style="stroke:#000000; stroke-width:4; stroke-opacity:1"/>
<line clip-path="url(#clip702)" x1="1556.48" y1="290.984" x2="1524.48" y2="290.984" style="stroke:#000000; stroke-width:4; stroke-opacity:1"/>
<line clip-path="url(#clip702)" x1="1594.05" y1="360.229" x2="1562.05" y2="360.229" style="stroke:#000000; stroke-width:4; stroke-opacity:1"/>
<line clip-path="url(#clip702)" x1="1594.05" y1="281.396" x2="1562.05" y2="281.396" style="stroke:#000000; stroke-width:4; stroke-opacity:1"/>
<line clip-path="url(#clip702)" x1="1631.63" y1="350.996" x2="1599.63" y2="350.996" style="stroke:#000000; stroke-width:4; stroke-opacity:1"/>
<line clip-path="url(#clip702)" x1="1631.63" y1="272.163" x2="1599.63" y2="272.163" style="stroke:#000000; stroke-width:4; stroke-opacity:1"/>
<line clip-path="url(#clip702)" x1="1669.2" y1="342.474" x2="1637.2" y2="342.474" style="stroke:#000000; stroke-width:4; stroke-opacity:1"/>
<line clip-path="url(#clip702)" x1="1669.2" y1="263.641" x2="1637.2" y2="263.641" style="stroke:#000000; stroke-width:4; stroke-opacity:1"/>
<line clip-path="url(#clip702)" x1="1706.77" y1="333.596" x2="1674.77" y2="333.596" style="stroke:#000000; stroke-width:4; stroke-opacity:1"/>
<line clip-path="url(#clip702)" x1="1706.77" y1="255.473" x2="1674.77" y2="255.473" style="stroke:#000000; stroke-width:4; stroke-opacity:1"/>
<line clip-path="url(#clip702)" x1="1744.34" y1="324.719" x2="1712.34" y2="324.719" style="stroke:#000000; stroke-width:4; stroke-opacity:1"/>
<line clip-path="url(#clip702)" x1="1744.34" y1="247.306" x2="1712.34" y2="247.306" style="stroke:#000000; stroke-width:4; stroke-opacity:1"/>
<line clip-path="url(#clip702)" x1="1781.91" y1="316.551" x2="1749.91" y2="316.551" style="stroke:#000000; stroke-width:4; stroke-opacity:1"/>
<line clip-path="url(#clip702)" x1="1781.91" y1="239.849" x2="1749.91" y2="239.849" style="stroke:#000000; stroke-width:4; stroke-opacity:1"/>
<line clip-path="url(#clip702)" x1="1819.48" y1="309.449" x2="1787.48" y2="309.449" style="stroke:#000000; stroke-width:4; stroke-opacity:1"/>
<line clip-path="url(#clip702)" x1="1819.48" y1="232.747" x2="1787.48" y2="232.747" style="stroke:#000000; stroke-width:4; stroke-opacity:1"/>
<line clip-path="url(#clip702)" x1="1857.05" y1="301.992" x2="1825.05" y2="301.992" style="stroke:#000000; stroke-width:4; stroke-opacity:1"/>
<line clip-path="url(#clip702)" x1="1857.05" y1="226" x2="1825.05" y2="226" style="stroke:#000000; stroke-width:4; stroke-opacity:1"/>
<line clip-path="url(#clip702)" x1="1894.62" y1="294.89" x2="1862.62" y2="294.89" style="stroke:#000000; stroke-width:4; stroke-opacity:1"/>
<line clip-path="url(#clip702)" x1="1894.62" y1="218.898" x2="1862.62" y2="218.898" style="stroke:#000000; stroke-width:4; stroke-opacity:1"/>
<line clip-path="url(#clip702)" x1="1932.19" y1="288.143" x2="1900.19" y2="288.143" style="stroke:#000000; stroke-width:4; stroke-opacity:1"/>
<line clip-path="url(#clip702)" x1="1932.19" y1="212.861" x2="1900.19" y2="212.861" style="stroke:#000000; stroke-width:4; stroke-opacity:1"/>
<line clip-path="url(#clip702)" x1="1969.76" y1="281.751" x2="1937.76" y2="281.751" style="stroke:#000000; stroke-width:4; stroke-opacity:1"/>
<line clip-path="url(#clip702)" x1="1969.76" y1="206.469" x2="1937.76" y2="206.469" style="stroke:#000000; stroke-width:4; stroke-opacity:1"/>
<line clip-path="url(#clip702)" x1="2007.33" y1="276.069" x2="1975.33" y2="276.069" style="stroke:#000000; stroke-width:4; stroke-opacity:1"/>
<line clip-path="url(#clip702)" x1="2007.33" y1="200.787" x2="1975.33" y2="200.787" style="stroke:#000000; stroke-width:4; stroke-opacity:1"/>
<line clip-path="url(#clip702)" x1="2044.9" y1="270.388" x2="2012.9" y2="270.388" style="stroke:#000000; stroke-width:4; stroke-opacity:1"/>
<line clip-path="url(#clip702)" x1="2044.9" y1="195.106" x2="2012.9" y2="195.106" style="stroke:#000000; stroke-width:4; stroke-opacity:1"/>
<line clip-path="url(#clip702)" x1="2082.47" y1="264.706" x2="2050.47" y2="264.706" style="stroke:#000000; stroke-width:4; stroke-opacity:1"/>
<line clip-path="url(#clip702)" x1="2082.47" y1="189.424" x2="2050.47" y2="189.424" style="stroke:#000000; stroke-width:4; stroke-opacity:1"/>
<line clip-path="url(#clip702)" x1="2120.04" y1="259.735" x2="2088.04" y2="259.735" style="stroke:#000000; stroke-width:4; stroke-opacity:1"/>
<line clip-path="url(#clip702)" x1="2120.04" y1="184.452" x2="2088.04" y2="184.452" style="stroke:#000000; stroke-width:4; stroke-opacity:1"/>
<line clip-path="url(#clip702)" x1="2157.61" y1="254.763" x2="2125.61" y2="254.763" style="stroke:#000000; stroke-width:4; stroke-opacity:1"/>
<line clip-path="url(#clip702)" x1="2157.61" y1="179.481" x2="2125.61" y2="179.481" style="stroke:#000000; stroke-width:4; stroke-opacity:1"/>
<line clip-path="url(#clip702)" x1="2195.18" y1="249.792" x2="2163.18" y2="249.792" style="stroke:#000000; stroke-width:4; stroke-opacity:1"/>
<line clip-path="url(#clip702)" x1="2195.18" y1="174.51" x2="2163.18" y2="174.51" style="stroke:#000000; stroke-width:4; stroke-opacity:1"/>
<line clip-path="url(#clip702)" x1="2232.75" y1="244.82" x2="2200.75" y2="244.82" style="stroke:#000000; stroke-width:4; stroke-opacity:1"/>
<line clip-path="url(#clip702)" x1="2232.75" y1="169.538" x2="2200.75" y2="169.538" style="stroke:#000000; stroke-width:4; stroke-opacity:1"/>
<line clip-path="url(#clip702)" x1="2270.32" y1="240.559" x2="2238.32" y2="240.559" style="stroke:#000000; stroke-width:4; stroke-opacity:1"/>
<line clip-path="url(#clip702)" x1="2270.32" y1="165.277" x2="2238.32" y2="165.277" style="stroke:#000000; stroke-width:4; stroke-opacity:1"/>
<line clip-path="url(#clip702)" x1="2307.89" y1="235.587" x2="2275.89" y2="235.587" style="stroke:#000000; stroke-width:4; stroke-opacity:1"/>
<line clip-path="url(#clip702)" x1="2307.89" y1="160.305" x2="2275.89" y2="160.305" style="stroke:#000000; stroke-width:4; stroke-opacity:1"/>
<circle clip-path="url(#clip702)" cx="263.091" cy="1217.09" r="14.4" fill="#009af9" fill-rule="evenodd" fill-opacity="1" stroke="#000000" stroke-opacity="1" stroke-width="3.2"/>
<circle clip-path="url(#clip702)" cx="300.662" cy="1191.53" r="14.4" fill="#009af9" fill-rule="evenodd" fill-opacity="1" stroke="#000000" stroke-opacity="1" stroke-width="3.2"/>
<circle clip-path="url(#clip702)" cx="338.232" cy="1159.57" r="14.4" fill="#009af9" fill-rule="evenodd" fill-opacity="1" stroke="#000000" stroke-opacity="1" stroke-width="3.2"/>
<circle clip-path="url(#clip702)" cx="375.803" cy="1121.93" r="14.4" fill="#009af9" fill-rule="evenodd" fill-opacity="1" stroke="#000000" stroke-opacity="1" stroke-width="3.2"/>
<circle clip-path="url(#clip702)" cx="413.373" cy="1080.02" r="14.4" fill="#009af9" fill-rule="evenodd" fill-opacity="1" stroke="#000000" stroke-opacity="1" stroke-width="3.2"/>
<circle clip-path="url(#clip702)" cx="450.943" cy="1034.57" r="14.4" fill="#009af9" fill-rule="evenodd" fill-opacity="1" stroke="#000000" stroke-opacity="1" stroke-width="3.2"/>
<circle clip-path="url(#clip702)" cx="488.514" cy="987.698" r="14.4" fill="#009af9" fill-rule="evenodd" fill-opacity="1" stroke="#000000" stroke-opacity="1" stroke-width="3.2"/>
<circle clip-path="url(#clip702)" cx="526.084" cy="940.824" r="14.4" fill="#009af9" fill-rule="evenodd" fill-opacity="1" stroke="#000000" stroke-opacity="1" stroke-width="3.2"/>
<circle clip-path="url(#clip702)" cx="563.655" cy="893.95" r="14.4" fill="#009af9" fill-rule="evenodd" fill-opacity="1" stroke="#000000" stroke-opacity="1" stroke-width="3.2"/>
<circle clip-path="url(#clip702)" cx="601.225" cy="849.917" r="14.4" fill="#009af9" fill-rule="evenodd" fill-opacity="1" stroke="#000000" stroke-opacity="1" stroke-width="3.2"/>
<circle clip-path="url(#clip702)" cx="638.795" cy="808.015" r="14.4" fill="#009af9" fill-rule="evenodd" fill-opacity="1" stroke="#000000" stroke-opacity="1" stroke-width="3.2"/>
<circle clip-path="url(#clip702)" cx="676.366" cy="768.954" r="14.4" fill="#009af9" fill-rule="evenodd" fill-opacity="1" stroke="#000000" stroke-opacity="1" stroke-width="3.2"/>
<circle clip-path="url(#clip702)" cx="713.936" cy="732.023" r="14.4" fill="#009af9" fill-rule="evenodd" fill-opacity="1" stroke="#000000" stroke-opacity="1" stroke-width="3.2"/>
<circle clip-path="url(#clip702)" cx="751.506" cy="698.643" r="14.4" fill="#009af9" fill-rule="evenodd" fill-opacity="1" stroke="#000000" stroke-opacity="1" stroke-width="3.2"/>
<circle clip-path="url(#clip702)" cx="789.077" cy="668.104" r="14.4" fill="#009af9" fill-rule="evenodd" fill-opacity="1" stroke="#000000" stroke-opacity="1" stroke-width="3.2"/>
<circle clip-path="url(#clip702)" cx="826.647" cy="639.696" r="14.4" fill="#009af9" fill-rule="evenodd" fill-opacity="1" stroke="#000000" stroke-opacity="1" stroke-width="3.2"/>
<circle clip-path="url(#clip702)" cx="864.218" cy="613.418" r="14.4" fill="#009af9" fill-rule="evenodd" fill-opacity="1" stroke="#000000" stroke-opacity="1" stroke-width="3.2"/>
<circle clip-path="url(#clip702)" cx="901.788" cy="589.271" r="14.4" fill="#009af9" fill-rule="evenodd" fill-opacity="1" stroke="#000000" stroke-opacity="1" stroke-width="3.2"/>
<circle clip-path="url(#clip702)" cx="939.358" cy="567.255" r="14.4" fill="#009af9" fill-rule="evenodd" fill-opacity="1" stroke="#000000" stroke-opacity="1" stroke-width="3.2"/>
<circle clip-path="url(#clip702)" cx="976.929" cy="546.659" r="14.4" fill="#009af9" fill-rule="evenodd" fill-opacity="1" stroke="#000000" stroke-opacity="1" stroke-width="3.2"/>
<circle clip-path="url(#clip702)" cx="1014.5" cy="526.773" r="14.4" fill="#009af9" fill-rule="evenodd" fill-opacity="1" stroke="#000000" stroke-opacity="1" stroke-width="3.2"/>
<circle clip-path="url(#clip702)" cx="1052.07" cy="508.307" r="14.4" fill="#009af9" fill-rule="evenodd" fill-opacity="1" stroke="#000000" stroke-opacity="1" stroke-width="3.2"/>
<circle clip-path="url(#clip702)" cx="1089.64" cy="490.552" r="14.4" fill="#009af9" fill-rule="evenodd" fill-opacity="1" stroke="#000000" stroke-opacity="1" stroke-width="3.2"/>
<circle clip-path="url(#clip702)" cx="1127.21" cy="473.507" r="14.4" fill="#009af9" fill-rule="evenodd" fill-opacity="1" stroke="#000000" stroke-opacity="1" stroke-width="3.2"/>
<circle clip-path="url(#clip702)" cx="1164.78" cy="457.172" r="14.4" fill="#009af9" fill-rule="evenodd" fill-opacity="1" stroke="#000000" stroke-opacity="1" stroke-width="3.2"/>
<circle clip-path="url(#clip702)" cx="1202.35" cy="442.258" r="14.4" fill="#009af9" fill-rule="evenodd" fill-opacity="1" stroke="#000000" stroke-opacity="1" stroke-width="3.2"/>
<circle clip-path="url(#clip702)" cx="1239.92" cy="427.344" r="14.4" fill="#009af9" fill-rule="evenodd" fill-opacity="1" stroke="#000000" stroke-opacity="1" stroke-width="3.2"/>
<circle clip-path="url(#clip702)" cx="1277.49" cy="413.139" r="14.4" fill="#009af9" fill-rule="evenodd" fill-opacity="1" stroke="#000000" stroke-opacity="1" stroke-width="3.2"/>
<circle clip-path="url(#clip702)" cx="1315.06" cy="399.645" r="14.4" fill="#009af9" fill-rule="evenodd" fill-opacity="1" stroke="#000000" stroke-opacity="1" stroke-width="3.2"/>
<circle clip-path="url(#clip702)" cx="1352.63" cy="386.862" r="14.4" fill="#009af9" fill-rule="evenodd" fill-opacity="1" stroke="#000000" stroke-opacity="1" stroke-width="3.2"/>
<circle clip-path="url(#clip702)" cx="1390.2" cy="374.788" r="14.4" fill="#009af9" fill-rule="evenodd" fill-opacity="1" stroke="#000000" stroke-opacity="1" stroke-width="3.2"/>
<circle clip-path="url(#clip702)" cx="1427.77" cy="362.715" r="14.4" fill="#009af9" fill-rule="evenodd" fill-opacity="1" stroke="#000000" stroke-opacity="1" stroke-width="3.2"/>
<circle clip-path="url(#clip702)" cx="1465.34" cy="352.062" r="14.4" fill="#009af9" fill-rule="evenodd" fill-opacity="1" stroke="#000000" stroke-opacity="1" stroke-width="3.2"/>
<circle clip-path="url(#clip702)" cx="1502.91" cy="340.698" r="14.4" fill="#009af9" fill-rule="evenodd" fill-opacity="1" stroke="#000000" stroke-opacity="1" stroke-width="3.2"/>
<circle clip-path="url(#clip702)" cx="1540.48" cy="330.755" r="14.4" fill="#009af9" fill-rule="evenodd" fill-opacity="1" stroke="#000000" stroke-opacity="1" stroke-width="3.2"/>
<circle clip-path="url(#clip702)" cx="1578.05" cy="320.812" r="14.4" fill="#009af9" fill-rule="evenodd" fill-opacity="1" stroke="#000000" stroke-opacity="1" stroke-width="3.2"/>
<circle clip-path="url(#clip702)" cx="1615.63" cy="311.58" r="14.4" fill="#009af9" fill-rule="evenodd" fill-opacity="1" stroke="#000000" stroke-opacity="1" stroke-width="3.2"/>
<circle clip-path="url(#clip702)" cx="1653.2" cy="303.057" r="14.4" fill="#009af9" fill-rule="evenodd" fill-opacity="1" stroke="#000000" stroke-opacity="1" stroke-width="3.2"/>
<circle clip-path="url(#clip702)" cx="1690.77" cy="294.535" r="14.4" fill="#009af9" fill-rule="evenodd" fill-opacity="1" stroke="#000000" stroke-opacity="1" stroke-width="3.2"/>
<circle clip-path="url(#clip702)" cx="1728.34" cy="286.012" r="14.4" fill="#009af9" fill-rule="evenodd" fill-opacity="1" stroke="#000000" stroke-opacity="1" stroke-width="3.2"/>
<circle clip-path="url(#clip702)" cx="1765.91" cy="278.2" r="14.4" fill="#009af9" fill-rule="evenodd" fill-opacity="1" stroke="#000000" stroke-opacity="1" stroke-width="3.2"/>
<circle clip-path="url(#clip702)" cx="1803.48" cy="271.098" r="14.4" fill="#009af9" fill-rule="evenodd" fill-opacity="1" stroke="#000000" stroke-opacity="1" stroke-width="3.2"/>
<circle clip-path="url(#clip702)" cx="1841.05" cy="263.996" r="14.4" fill="#009af9" fill-rule="evenodd" fill-opacity="1" stroke="#000000" stroke-opacity="1" stroke-width="3.2"/>
<circle clip-path="url(#clip702)" cx="1878.62" cy="256.894" r="14.4" fill="#009af9" fill-rule="evenodd" fill-opacity="1" stroke="#000000" stroke-opacity="1" stroke-width="3.2"/>
<circle clip-path="url(#clip702)" cx="1916.19" cy="250.502" r="14.4" fill="#009af9" fill-rule="evenodd" fill-opacity="1" stroke="#000000" stroke-opacity="1" stroke-width="3.2"/>
<circle clip-path="url(#clip702)" cx="1953.76" cy="244.11" r="14.4" fill="#009af9" fill-rule="evenodd" fill-opacity="1" stroke="#000000" stroke-opacity="1" stroke-width="3.2"/>
<circle clip-path="url(#clip702)" cx="1991.33" cy="238.428" r="14.4" fill="#009af9" fill-rule="evenodd" fill-opacity="1" stroke="#000000" stroke-opacity="1" stroke-width="3.2"/>
<circle clip-path="url(#clip702)" cx="2028.9" cy="232.747" r="14.4" fill="#009af9" fill-rule="evenodd" fill-opacity="1" stroke="#000000" stroke-opacity="1" stroke-width="3.2"/>
<circle clip-path="url(#clip702)" cx="2066.47" cy="227.065" r="14.4" fill="#009af9" fill-rule="evenodd" fill-opacity="1" stroke="#000000" stroke-opacity="1" stroke-width="3.2"/>
<circle clip-path="url(#clip702)" cx="2104.04" cy="222.094" r="14.4" fill="#009af9" fill-rule="evenodd" fill-opacity="1" stroke="#000000" stroke-opacity="1" stroke-width="3.2"/>
<circle clip-path="url(#clip702)" cx="2141.61" cy="217.122" r="14.4" fill="#009af9" fill-rule="evenodd" fill-opacity="1" stroke="#000000" stroke-opacity="1" stroke-width="3.2"/>
<circle clip-path="url(#clip702)" cx="2179.18" cy="212.151" r="14.4" fill="#009af9" fill-rule="evenodd" fill-opacity="1" stroke="#000000" stroke-opacity="1" stroke-width="3.2"/>
<circle clip-path="url(#clip702)" cx="2216.75" cy="207.179" r="14.4" fill="#009af9" fill-rule="evenodd" fill-opacity="1" stroke="#000000" stroke-opacity="1" stroke-width="3.2"/>
<circle clip-path="url(#clip702)" cx="2254.32" cy="202.918" r="14.4" fill="#009af9" fill-rule="evenodd" fill-opacity="1" stroke="#000000" stroke-opacity="1" stroke-width="3.2"/>
<circle clip-path="url(#clip702)" cx="2291.89" cy="197.946" r="14.4" fill="#009af9" fill-rule="evenodd" fill-opacity="1" stroke="#000000" stroke-opacity="1" stroke-width="3.2"/>
<polyline clip-path="url(#clip702)" style="stroke:#e26f46; stroke-linecap:round; stroke-linejoin:round; stroke-width:8; stroke-opacity:1; fill:none" points="263.091,1386.4 300.662,1371.04 338.232,1335.96 375.803,1190.8 413.373,1067.83 450.943,978.702 488.514,900.14 526.084,828.602 563.655,770.651 601.225,730.003 638.795,700.649 676.366,677.077 713.936,656.587 751.506,637.9 789.077,620.352 826.647,603.565 864.218,587.311 901.788,571.444 939.358,555.871 976.929,540.537 1014.5,525.407 1052.07,510.467 1089.64,495.712 1127.21,481.147 1164.78,466.782 1202.35,452.63 1239.92,438.705 1277.49,425.021 1315.06,411.594 1352.63,398.433 1390.2,385.551 1427.77,372.954 1465.34,360.648 1502.91,348.638 1540.48,336.925 1578.05,325.51 1615.63,314.392 1653.2,303.568 1690.77,293.036 1728.34,282.791 1765.91,272.83 1803.48,263.148 1841.05,253.74 1878.62,244.6 1916.19,235.724 1953.76,227.106 1991.33,218.74 2028.9,210.621 2066.47,202.744 2104.04,195.103 2141.61,187.693 2179.18,180.509 2216.75,173.545 2254.32,166.796 2291.89,160.256 "/>
<path clip-path="url(#clip700)" d="M1790.21 1379.86 L2281.07 1379.86 L2281.07 1224.34 L1790.21 1224.34  Z" fill="#ffffff" fill-rule="evenodd" fill-opacity="1"/>
<polyline clip-path="url(#clip700)" style="stroke:#000000; stroke-linecap:round; stroke-linejoin:round; stroke-width:4; stroke-opacity:1; fill:none" points="1790.21,1379.86 2281.07,1379.86 2281.07,1224.34 1790.21,1224.34 1790.21,1379.86 "/>
<circle clip-path="url(#clip700)" cx="1885.79" cy="1276.18" r="20.48" fill="#009af9" fill-rule="evenodd" fill-opacity="1" stroke="#000000" stroke-opacity="1" stroke-width="4.55111"/>
<path clip-path="url(#clip700)" d="M1981.37 1258.9 L1986.04 1258.9 L1986.04 1289.52 L2002.87 1289.52 L2002.87 1293.46 L1981.37 1293.46 L1981.37 1258.9 Z" fill="#000000" fill-rule="nonzero" fill-opacity="1" /><path clip-path="url(#clip700)" d="M2021.81 1262.07 Q2016.72 1262.07 2013.71 1265.86 Q2010.72 1269.66 2010.72 1276.21 Q2010.72 1282.74 2013.71 1286.53 Q2016.72 1290.33 2021.81 1290.33 Q2026.9 1290.33 2029.86 1286.53 Q2032.85 1282.74 2032.85 1276.21 Q2032.85 1269.66 2029.86 1265.86 Q2026.9 1262.07 2021.81 1262.07 M2028.36 1292.83 L2034.52 1299.57 L2028.87 1299.57 L2023.75 1294.03 Q2022.99 1294.08 2022.57 1294.1 Q2022.18 1294.13 2021.81 1294.13 Q2014.52 1294.13 2010.14 1289.27 Q2005.79 1284.38 2005.79 1276.21 Q2005.79 1268.02 2010.14 1263.16 Q2014.52 1258.27 2021.81 1258.27 Q2029.08 1258.27 2033.43 1263.16 Q2037.78 1268.02 2037.78 1276.21 Q2037.78 1282.23 2035.35 1286.51 Q2032.94 1290.79 2028.36 1292.83 Z" fill="#000000" fill-rule="nonzero" fill-opacity="1" /><path clip-path="url(#clip700)" d="M2070.97 1261.56 L2070.97 1266.49 Q2068.61 1264.29 2065.93 1263.2 Q2063.27 1262.11 2060.26 1262.11 Q2054.33 1262.11 2051.18 1265.75 Q2048.03 1269.36 2048.03 1276.21 Q2048.03 1283.04 2051.18 1286.67 Q2054.33 1290.28 2060.26 1290.28 Q2063.27 1290.28 2065.93 1289.2 Q2068.61 1288.11 2070.97 1285.91 L2070.97 1290.79 Q2068.52 1292.46 2065.77 1293.29 Q2063.03 1294.13 2059.98 1294.13 Q2052.13 1294.13 2047.62 1289.34 Q2043.1 1284.52 2043.1 1276.21 Q2043.1 1267.88 2047.62 1263.09 Q2052.13 1258.27 2059.98 1258.27 Q2063.08 1258.27 2065.81 1259.1 Q2068.57 1259.91 2070.97 1261.56 Z" fill="#000000" fill-rule="nonzero" fill-opacity="1" /><path clip-path="url(#clip700)" d="M2082.87 1262.74 L2082.87 1289.61 L2088.52 1289.61 Q2095.67 1289.61 2098.98 1286.37 Q2102.32 1283.13 2102.32 1276.14 Q2102.32 1269.2 2098.98 1265.98 Q2095.67 1262.74 2088.52 1262.74 L2082.87 1262.74 M2078.2 1258.9 L2087.8 1258.9 Q2097.85 1258.9 2102.55 1263.09 Q2107.25 1267.25 2107.25 1276.14 Q2107.25 1285.08 2102.52 1289.27 Q2097.8 1293.46 2087.8 1293.46 L2078.2 1293.46 L2078.2 1258.9 Z" fill="#000000" fill-rule="nonzero" fill-opacity="1" /><polyline clip-path="url(#clip700)" style="stroke:#e26f46; stroke-linecap:round; stroke-linejoin:round; stroke-width:8; stroke-opacity:1; fill:none" points="1814.1,1328.02 1957.47,1328.02 "/>
<path clip-path="url(#clip700)" d="M1981.37 1309.28 L1985.63 1309.28 L1985.63 1345.3 L1981.37 1345.3 L1981.37 1309.28 Z" fill="#000000" fill-rule="nonzero" fill-opacity="1" /><path clip-path="url(#clip700)" d="M2004.59 1322.36 Q2001.16 1322.36 1999.17 1325.04 Q1997.18 1327.7 1997.18 1332.36 Q1997.18 1337.01 1999.15 1339.69 Q2001.14 1342.36 2004.59 1342.36 Q2007.99 1342.36 2009.98 1339.67 Q2011.97 1336.99 2011.97 1332.36 Q2011.97 1327.75 2009.98 1325.06 Q2007.99 1322.36 2004.59 1322.36 M2004.59 1318.75 Q2010.14 1318.75 2013.31 1322.36 Q2016.48 1325.97 2016.48 1332.36 Q2016.48 1338.72 2013.31 1342.36 Q2010.14 1345.97 2004.59 1345.97 Q1999.01 1345.97 1995.84 1342.36 Q1992.69 1338.72 1992.69 1332.36 Q1992.69 1325.97 1995.84 1322.36 Q1999.01 1318.75 2004.59 1318.75 Z" fill="#000000" fill-rule="nonzero" fill-opacity="1" /><path clip-path="url(#clip700)" d="M2040.6 1332.03 Q2040.6 1327.4 2038.68 1324.86 Q2036.78 1322.31 2033.34 1322.31 Q2029.91 1322.31 2027.99 1324.86 Q2026.09 1327.4 2026.09 1332.03 Q2026.09 1336.64 2027.99 1339.19 Q2029.91 1341.73 2033.34 1341.73 Q2036.78 1341.73 2038.68 1339.19 Q2040.6 1336.64 2040.6 1332.03 M2044.86 1342.08 Q2044.86 1348.7 2041.92 1351.92 Q2038.98 1355.16 2032.92 1355.16 Q2030.67 1355.16 2028.68 1354.81 Q2026.69 1354.49 2024.82 1353.79 L2024.82 1349.65 Q2026.69 1350.67 2028.52 1351.15 Q2030.35 1351.64 2032.25 1351.64 Q2036.44 1351.64 2038.52 1349.44 Q2040.6 1347.26 2040.6 1342.84 L2040.6 1340.74 Q2039.28 1343.03 2037.22 1344.16 Q2035.16 1345.3 2032.29 1345.3 Q2027.53 1345.3 2024.61 1341.66 Q2021.69 1338.03 2021.69 1332.03 Q2021.69 1326.01 2024.61 1322.38 Q2027.53 1318.75 2032.29 1318.75 Q2035.16 1318.75 2037.22 1319.88 Q2039.28 1321.01 2040.6 1323.31 L2040.6 1319.37 L2044.86 1319.37 L2044.86 1342.08 Z" fill="#000000" fill-rule="nonzero" fill-opacity="1" /><path clip-path="url(#clip700)" d="M2068.36 1310.74 L2073.06 1310.74 L2073.06 1331.73 Q2073.06 1337.29 2075.07 1339.74 Q2077.09 1342.17 2081.6 1342.17 Q2086.09 1342.17 2088.1 1339.74 Q2090.12 1337.29 2090.12 1331.73 L2090.12 1310.74 L2094.82 1310.74 L2094.82 1332.31 Q2094.82 1339.07 2091.46 1342.52 Q2088.13 1345.97 2081.6 1345.97 Q2075.05 1345.97 2071.69 1342.52 Q2068.36 1339.07 2068.36 1332.31 L2068.36 1310.74 Z" fill="#000000" fill-rule="nonzero" fill-opacity="1" /><path clip-path="url(#clip700)" d="M2138.66 1324.35 Q2140.26 1321.48 2142.48 1320.11 Q2144.7 1318.75 2147.71 1318.75 Q2151.76 1318.75 2153.96 1321.59 Q2156.16 1324.42 2156.16 1329.65 L2156.16 1345.3 L2151.88 1345.3 L2151.88 1329.79 Q2151.88 1326.06 2150.56 1324.25 Q2149.24 1322.45 2146.53 1322.45 Q2143.22 1322.45 2141.3 1324.65 Q2139.38 1326.85 2139.38 1330.64 L2139.38 1345.3 L2135.09 1345.3 L2135.09 1329.79 Q2135.09 1326.04 2133.77 1324.25 Q2132.46 1322.45 2129.7 1322.45 Q2126.44 1322.45 2124.52 1324.67 Q2122.59 1326.87 2122.59 1330.64 L2122.59 1345.3 L2118.31 1345.3 L2118.31 1319.37 L2122.59 1319.37 L2122.59 1323.4 Q2124.05 1321.01 2126.09 1319.88 Q2128.13 1318.75 2130.93 1318.75 Q2133.75 1318.75 2135.72 1320.18 Q2137.71 1321.62 2138.66 1324.35 Z" fill="#000000" fill-rule="nonzero" fill-opacity="1" /><path clip-path="url(#clip700)" d="M2174.7 1322.36 Q2171.27 1322.36 2169.28 1325.04 Q2167.29 1327.7 2167.29 1332.36 Q2167.29 1337.01 2169.26 1339.69 Q2171.25 1342.36 2174.7 1342.36 Q2178.1 1342.36 2180.09 1339.67 Q2182.08 1336.99 2182.08 1332.36 Q2182.08 1327.75 2180.09 1325.06 Q2178.1 1322.36 2174.7 1322.36 M2174.7 1318.75 Q2180.26 1318.75 2183.43 1322.36 Q2186.6 1325.97 2186.6 1332.36 Q2186.6 1338.72 2183.43 1342.36 Q2180.26 1345.97 2174.7 1345.97 Q2169.12 1345.97 2165.95 1342.36 Q2162.8 1338.72 2162.8 1332.36 Q2162.8 1325.97 2165.95 1322.36 Q2169.12 1318.75 2174.7 1318.75 Z" fill="#000000" fill-rule="nonzero" fill-opacity="1" /><path clip-path="url(#clip700)" d="M2210.72 1323.31 L2210.72 1309.28 L2214.98 1309.28 L2214.98 1345.3 L2210.72 1345.3 L2210.72 1341.41 Q2209.38 1343.72 2207.32 1344.86 Q2205.28 1345.97 2202.41 1345.97 Q2197.71 1345.97 2194.75 1342.22 Q2191.81 1338.47 2191.81 1332.36 Q2191.81 1326.25 2194.75 1322.5 Q2197.71 1318.75 2202.41 1318.75 Q2205.28 1318.75 2207.32 1319.88 Q2209.38 1320.99 2210.72 1323.31 M2196.2 1332.36 Q2196.2 1337.06 2198.13 1339.74 Q2200.07 1342.4 2203.45 1342.4 Q2206.83 1342.4 2208.77 1339.74 Q2210.72 1337.06 2210.72 1332.36 Q2210.72 1327.66 2208.77 1325 Q2206.83 1322.31 2203.45 1322.31 Q2200.07 1322.31 2198.13 1325 Q2196.2 1327.66 2196.2 1332.36 Z" fill="#000000" fill-rule="nonzero" fill-opacity="1" /><path clip-path="url(#clip700)" d="M2245.93 1331.27 L2245.93 1333.35 L2226.34 1333.35 Q2226.62 1337.75 2228.98 1340.06 Q2231.37 1342.36 2235.6 1342.36 Q2238.06 1342.36 2240.35 1341.75 Q2242.66 1341.15 2244.93 1339.95 L2244.93 1343.98 Q2242.64 1344.95 2240.23 1345.46 Q2237.83 1345.97 2235.35 1345.97 Q2229.14 1345.97 2225.51 1342.36 Q2221.9 1338.75 2221.9 1332.59 Q2221.9 1326.22 2225.33 1322.5 Q2228.77 1318.75 2234.61 1318.75 Q2239.84 1318.75 2242.87 1322.13 Q2245.93 1325.48 2245.93 1331.27 M2241.67 1330.02 Q2241.62 1326.52 2239.7 1324.44 Q2237.8 1322.36 2234.65 1322.36 Q2231.09 1322.36 2228.94 1324.37 Q2226.81 1326.38 2226.48 1330.04 L2241.67 1330.02 Z" fill="#000000" fill-rule="nonzero" fill-opacity="1" /><path clip-path="url(#clip700)" d="M2252.92 1309.28 L2257.18 1309.28 L2257.18 1345.3 L2252.92 1345.3 L2252.92 1309.28 Z" fill="#000000" fill-rule="nonzero" fill-opacity="1" /></svg>
